{
.appVersion = "3112";
.formatVersion = 3;
DisplayStrings = (
"coucou les concerné..es vous êtes merveilleux..ses
i..els sont belle..aux et guerrièr..es, fièr..es, 
meilleur..es ami..es, 
poête..sses, prêt..es ",
"/u_l_l_e",
l,
e,
"/t_e",
u,
r,
"pr/ecircumflex_t_e  et",
t,
"/e_s_s_e",
"/e_s_s_e_s",
"/e_t_t_e",
"/s_l/s_l_l",
"/s_l_l_e",
"/s_tige/s_c_e"
);
classes = (
{
automatic = 1;
code = "A B C D E F G H I J K L M N O P Q R S T U V W X Y Z AE Lslash Oslash OE Eth Thorn Aacute Acircumflex Adieresis Agrave Aring Atilde Ccedilla Eacute Ecircumflex Edieresis Egrave Iacute Icircumflex Idieresis Igrave Ntilde Oacute Ocircumflex Odieresis Ograve Otilde Scaron Uacute Ucircumflex Udieresis Ugrave Yacute Ydieresis Zcaron Abreve Amacron Aogonek Cacute Ccaron Ccircumflex Cdotaccent Dcaron Dcroat Ebreve Ecaron Edotaccent Emacron Eng Eogonek Gbreve Gcircumflex uni0122 Gdotaccent Hbar Hcircumflex Ibreve Idotaccent IJ Imacron Iogonek Itilde Jcircumflex uni0136 Lacute Lcaron uni013B Ldot Nacute Ncaron uni0145 Obreve Ohungarumlaut Omacron Racute Rcaron uni0156 Sacute Scedilla Scircumflex uni0218 Tbar Tcaron uni0162 uni021A Ubreve Uhungarumlaut Umacron Uogonek Uring Utilde Wacute Wdieresis Wgrave Wcircumflex Ycircumflex Ygrave Zacute Zdotaccent I_e";
name = Uppercase;
},
{
automatic = 1;

glyphs = (
{
glyphname = .notdef;
layers = (
{
layerId = m01;
shapes = (
{
closed = 1;
nodes = (
(60,-100,l),
(454,-100,l),
(454,750,l),
(60,750,l)
);
}
);
width = 514;
}
);
note = ".notdef";
},
{
glyphname = exclam;
kernLeft = exclam;
layers = (
{
layerId = m01;
shapes = (
{
closed = 1;
nodes = (
(119,187,l),
(121,187,l),
(173,641,ls),
(177,672,o),
(144,712,o),
(120,712,qs),
(96,712,o),
(63,672,o),
(67,641,qs)
);
},
{
closed = 1;
nodes = (
(176,0,l),
(176,113,l),
(64,113,l),
(64,0,l)
);
}
);
width = 240;
}
);
note = exclam;
unicode = 33;
},
{
glyphname = quotedbl;
kernLeft = quotedbl;
kernRight = quotedbl;
layers = (
{
layerId = m01;
shapes = (
{
closed = 1;
nodes = (
(120,452,l),
(171,621,ls),
(175,633,o),
(175,648,qs),
(175,675,o),
(145,711,o),
(121,711,qs),
(96,711,o),
(65,675,o),
(65,648,qs),
(65,633,o),
(69,621,qs)
);
},
{
closed = 1;
nodes = (
(280,452,l),
(331,621,ls),
(335,633,o),
(335,648,qs),
(335,675,o),
(305,711,o),
(281,711,qs),
(256,711,o),
(225,675,o),
(225,648,qs),
(225,633,o),
(229,621,qs)
);
}
);
width = 400;
}
);
note = quotedbl;
unicode = 34;
},
{
glyphname = numbersign;
layers = (
{
layerId = m01;
shapes = (
{
closed = 1;
nodes = (
(22,217,l),
(212,217,l),
(150,0,l),
(185,0,l),
(247,217,l),
(421,217,l),
(359,0,l),
(394,0,l),
(456,217,l),
(646,217,l),
(655,248,l),
(465,248,l),
(523,453,l),
(713,453,l),
(722,484,l),
(532,484,l),
(594,701,l),
(559,701,l),
(497,484,l),
(323,484,l),
(385,701,l),
(350,701,l),
(288,484,l),
(98,484,l),
(89,453,l),
(279,453,l),
(221,248,l),
(31,248,l)
);
},
{
closed = 1;
nodes = (
(314,453,l),
(488,453,l),
(430,248,l),
(256,248,l)
);
}
);
width = 744;
}
);
note = numbersign;
unicode = 35;
},
{
glyphname = dollar;
layers = (
{
layerId = m01;
shapes = (
{
closed = 1;
nodes = (
(225,-68,l),
(261,-68,l),
(261,9,l),
(351,17,o),
(459,125,o),
(459,208,qs),
(459,316,o),
(345,370,qs),
(199,438,ls),
(114,477,o),
(114,542,qs),
(114,588,o),
(176,647,o),
(227,649,q),
(227,445,l),
(263,430,l),
(263,647,l),
(301,643,o),
(343,613,o),
(344,588,q),
(322,588,l),
(321,583,o),
(321,573,qs),
(321,544,o),
(353,509,o),
(379,509,qs),
(401,509,o),
(431,542,o),
(431,565,qs),
(431,596,o),
(387,651,o),
(310,687,o),
(263,691,q),
(263,750,l),
(227,750,l),
(227,692,l),
(140,688,o),
(32,589,o),
(32,511,qs),
(32,406,o),
(146,353,qs),
(292,285,ls),
(373,247,o),
(373,172,qs),
(373,123,o),
(312,58,o),
(261,52,q),
(261,279,l),
(225,296,l),
(225,51,l),
(176,53,o),
(122,87,o),
(120,116,q),
(142,116,l),
(146,152,o),
(115,196,o),
(85,196,qs),
(63,196,o),
(32,163,o),
(32,140,qs),
(32,105,o),
(84,46,o),
(172,10,o),
(225,8,q)
);
}
);
width = 495;
}
);
note = dollar;
unicode = 36;
},
{
glyphname = percent;
layers = (
{
layerId = m01;
shapes = (
{
closed = 1;
nodes = (
(143,706,o),
(76,657,o),
(37,568,o),
(37,511,qs),
(37,454,o),
(77,367,o),
(145,319,o),
(187,319,qs),
(227,319,o),
(293,369,o),
(332,458,o),
(332,515,qs),
(332,572,o),
(293,659,o),
(225,706,o),
(183,706,qs)
);
},
{
closed = 1;
nodes = (
(114,598,o),
(151,680,o),
(179,680,qs),
(214,680,o),
(255,586,o),
(255,503,qs),
(255,428,o),
(218,346,o),
(189,346,qs),
(154,346,o),
(114,440,o),
(114,523,qs)
);
},
{
closed = 1;
nodes = (
(189,0,l),
(639,700,l),
(593,700,l),
(143,0,l)
);
},
{
closed = 1;
nodes = (
(448,129,o),
(488,42,o),
(556,-6,o),
(598,-6,qs),
(638,-6,o),
(704,44,o),
(743,133,o),
(743,190,qs),
(743,247,o),
(704,334,o),
(636,381,o),
(594,381,qs),
(554,381,o),
(487,332,o),
(448,243,o),
(448,186,qs)
);
},
{
closed = 1;
nodes = (
(525,273,o),
(562,355,o),
(590,355,qs),
(625,355,o),
(666,261,o),
(666,178,qs),
(666,103,o),
(629,21,o),
(600,21,qs),
(565,21,o),
(525,115,o),
(525,198,qs)
);
}
);
width = 780;
}
);
note = percent;
unicode = 37;
},
{
glyphname = ampersand;
kernLeft = ampersand;
kernRight = ampersand;
layers = (
{
layerId = m01;
shapes = (
{
closed = 1;
nodes = (
(470,78,l),
(448,55,l),
(485,21,o),
(548,-5,o),
(586,-5,qs),
(627,-5,o),
(705,34,o),
(731,65,q),
(720,60,o),
(680,55,o),
(663,55,qs),
(620,55,o),
(546,97,o),
(499,147,q),
(530,190,o),
(556,241,qs),
(601,326,ls),
(616,354,o),
(658,386,o),
(688,393,q),
(688,418,l),
(493,418,l),
(493,392,l),
(516,389,ls),
(554,385,o),
(554,350,qs),
(554,331,o),
(542,304,qs),
(523,263,ls),
(498,208,o),
(476,173,q),
(391,269,o),
(300,398,q),
(273,383,l),
(261,400,l),
(341,444,ls),
(407,480,o),
(462,546,o),
(462,588,qs),
(462,621,o),
(424,676,o),
(359,708,o),
(320,708,qs),
(260,708,o),
(175,662,o),
(132,586,o),
(132,543,qs),
(132,509,o),
(159,438,o),
(191,387,q),
(120,348,o),
(45,283,o),
(17,220,o),
(17,178,qs),
(17,124,o),
(73,39,o),
(172,-9,o),
(235,-9,qs),
(301,-9,o),
(407,41,o),
(455,92,q)
);
},
{
closed = 1;
nodes = (
(115,311,o),
(203,369,q),
(242,310,o),
(369,136,o),
(410,92,q),
(381,66,o),
(316,37,o),
(268,37,qs),
(199,37,o),
(115,127,o),
(115,202,qs)
);
},
{
closed = 1;
nodes = (
(218,617,o),
(265,675,o),
(302,675,qs),
(336,675,o),
(380,622,o),
(380,582,qs),
(380,534,o),
(326,458,o),
(274,434,q),
(243,479,o),
(219,541,o),
(218,573,qs)
);
}
);
width = 725;
}
);
note = ampersand;
unicode = 38;
},
{
glyphname = quoteright;
kernLeft = quotedbl;
kernRight = quotedbl;
layers = (
{
layerId = m01;
shapes = (
{
closed = 1;
nodes = (
(41,455,l),
(105,477,o),
(182,571,o),
(182,627,qs),
(182,665,o),
(145,711,o),
(114,711,qs),
(88,711,o),
(53,677,o),
(53,651,qs),
(53,628,o),
(84,595,o),
(106,595,qs),
(112,595,o),
(122,597,o),
(125,599,q),
(125,623,l),
(141,623,l),
(141,604,ls),
(141,562,o),
(85,483,o),
(37,461,q)
);
}
);
width = 238;
}
);
note = quoteright;
unicode = 8217;
},
{
glyphname = parenleft;
layers = (
{
layerId = m01;
shapes = (
{
closed = 1;
nodes = (
(62,138,o),
(150,-68,o),
(306,-204,o),
(405,-226,q),
(405,-224,l),
(292,-158,o),
(171,90,o),
(171,259,qs),
(171,428,o),
(292,676,o),
(405,742,q),
(405,744,l),
(306,722,o),
(150,586,o),
(62,380,o),
(62,259,qs)
);
}
);
width = 416;
}
);
note = parenleft;
unicode = 40;
},
{
glyphname = parenright;
layers = (
{
layerId = m01;
shapes = (
{
closed = 1;
nodes = (
(354,380,o),
(266,586,o),
(110,722,o),
(11,744,q),
(11,742,l),
(124,676,o),
(245,428,o),
(245,259,qs),
(245,90,o),
(124,-158,o),
(11,-224,q),
(11,-226,l),
(110,-204,o),
(266,-68,o),
(354,138,o),
(354,259,qs)
);
}
);
width = 416;
}
);
note = parenright;
unicode = 41;
},
{
glyphname = asterisk;
kernLeft = asterisk;
kernRight = asterisk;
layers = (
{
layerId = m01;
shapes = (
{
closed = 1;
nodes = (
(48,617,l),
(28,583,l),
(169,501,l),
(189,536,l)
);
},
{
closed = 1;
nodes = (
(48,385,l),
(189,466,l),
(169,501,l),
(28,419,l)
);
},
{
closed = 1;
nodes = (
(229,303,l),
(229,466,l),
(189,466,l),
(189,303,l)
);
},
{
closed = 1;
nodes = (
(229,536,l),
(229,699,l),
(189,699,l),
(189,536,l)
);
},
{
closed = 1;
nodes = (
(370,385,l),
(390,419,l),
(249,501,l),
(229,466,l)
);
},
{
closed = 1;
nodes = (
(249,501,l),
(390,583,l),
(370,617,l),
(229,536,l)
);
}
);
width = 418;
}
);
note = asterisk;
unicode = 42;
},
{
glyphname = plus;
kernLeft = plus;
kernRight = plus;
lastChange = "2023-04-02 16:00:36 +0000";
layers = (
{
layerId = m01;
shapes = (
{
closed = 1;
nodes = (
(35,335,l),
(35,295,l),
(239,295,l),
(239,91,l),
(279,91,l),
(279,295,l),
(483,295,l),
(483,335,l),
(279,335,l),
(279,539,l),
(239,539,l),
(239,335,l)
);
}
);
width = 518;
}
);
note = plus;
unicode = 43;
},
{
glyphname = comma;
kernLeft = comma;
kernRight = comma;
layers = (
{
layerId = m01;
shapes = (
{
closed = 1;
nodes = (
(41,-141,l),
(105,-119,o),
(182,-25,o),
(182,31,qs),
(182,69,o),
(145,115,o),
(114,115,qs),
(88,115,o),
(53,81,o),
(53,55,qs),
(53,32,o),
(84,-1,o),
(106,-1,qs),
(112,-1,o),
(122,1,o),
(125,3,q),
(125,27,l),
(141,27,l),
(141,8,ls),
(141,-34,o),
(85,-113,o),
(37,-135,q)
);
}
);
width = 238;
}
);
note = comma;
unicode = 44;
},
{
glyphname = hyphen;
kernLeft = plus;
kernRight = plus;
layers = (
{
layerId = m01;
shapes = (
{
closed = 1;
nodes = (
(35,335,l),
(35,295,l),
(383,295,l),
(383,335,l)
);
}
);
width = 418;
}
);
note = hyphen;
unicode = 45;
},
{
glyphname = period;
kernLeft = comma;
kernRight = comma;
layers = (
{
layerId = m01;
shapes = (
{
closed = 1;
nodes = (
(64,113,l),
(64,0,l),
(176,0,l),
(176,113,l)
);
}
);
width = 240;
}
);
note = period;
unicode = 46;
},
{
glyphname = slash;
kernLeft = slash;
kernRight = asterisk;
layers = (
{
layerId = m01;
shapes = (
{
closed = 1;
nodes = (
(353,700,l),
(317,700,l),
(-82,-231,l),
(-46,-231,l)
);
}
);
width = 370;
}
);
note = slash;
unicode = 47;
},
{
glyphname = zero;
kernLeft = zero;
kernRight = zero;
layers = (
{
layerId = m01;
shapes = (
{
closed = 1;
nodes = (
(224,711,o),
(113,617,o),
(49,451,o),
(49,347,qs),
(49,244,o),
(115,80,o),
(230,-11,o),
(302,-11,qs),
(369,-11,o),
(480,84,o),
(544,250,o),
(544,353,qs),
(544,456,o),
(478,620,o),
(363,711,o),
(291,711,qs)
);
},
{
closed = 1;
nodes = (
(149,506,o),
(225,669,o),
(290,669,qs),
(336,669,o),
(406,587,o),
(444,435,o),
(444,335,qs),
(444,195,o),
(367,31,o),
(301,31,qs),
(255,31,o),
(187,113,o),
(149,264,o),
(149,365,qs)
);
}
);
width = 593;
}
);
note = zero;
unicode = 48;
},
{
glyphname = one;
kernLeft = one;
kernRight = one;
layers = (
{
layerId = m01;
shapes = (
{
closed = 1;
nodes = (
(231,710,l),
(41,668,l),
(81,651,ls),
(117,636,o),
(139,612,o),
(139,589,qs),
(139,95,ls),
(139,64,o),
(100,32,o),
(59,28,qs),
(39,26,l),
(39,0,l),
(332,0,l),
(332,26,l),
(311,28,ls),
(270,32,o),
(231,64,o),
(231,95,qs)
);
}
);
width = 370;
}
);
note = one;
unicode = 49;
},
{
glyphname = two;
kernLeft = two;
kernRight = two;
layers = (
{
layerId = m01;
shapes = (
{
closed = 1;
nodes = (
(97,47,l),
(340,329,ls),
(399,396,o),
(450,497,o),
(450,539,qs),
(450,617,o),
(340,710,o),
(236,710,qs),
(177,710,o),
(83,664,o),
(29,588,o),
(29,545,qs),
(29,521,o),
(59,488,o),
(81,488,qs),
(104,488,o),
(132,521,o),
(132,548,qs),
(132,556,o),
(131,560,q),
(110,560,l),
(111,611,o),
(171,669,o),
(225,669,qs),
(281,669,o),
(346,591,o),
(346,523,qs),
(346,475,o),
(305,380,o),
(256,317,qs),
(15,0,l),
(444,0,l),
(475,174,l),
(443,174,l),
(425,134,ls),
(398,71,o),
(293,71,qs),
(141,71,l),
(120,47,l)
);
}
);
width = 504;
}
);
note = two;
unicode = 50;
},
{
glyphname = three;
kernLeft = three;
kernRight = three;
layers = (
{
layerId = m01;
shapes = (
{
closed = 1;
nodes = (
(479,277,o),
(423,370,o),
(323,421,o),
(259,419,q),
(482,700,l),
(73,700,l),
(45,537,l),
(77,537,l),
(87,565,ls),
(99,601,o),
(143,629,o),
(182,629,qs),
(345,629,l),
(365,654,l),
(388,654,l),
(144,347,l),
(179,354,o),
(211,354,qs),
(297,354,o),
(379,268,o),
(379,200,qs),
(379,123,o),
(299,30,o),
(232,30,qs),
(181,30,o),
(122,78,o),
(120,120,q),
(140,120,l),
(142,132,o),
(142,137,qs),
(142,164,o),
(112,197,o),
(88,197,qs),
(66,197,o),
(36,166,o),
(36,143,qs),
(36,100,o),
(90,30,o),
(185,-11,o),
(243,-11,qs),
(309,-11,o),
(417,48,o),
(479,153,o),
(479,218,qs)
);
}
);
width = 520;
}
);
note = three;
unicode = 51;
},
{
glyphname = four;
kernLeft = four;
kernRight = four;
layers = (
{
layerId = m01;
shapes = (
{
closed = 1;
nodes = (
(355,214,l),
(355,95,ls),
(355,63,o),
(331,31,o),
(299,28,qs),
(278,26,l),
(278,0,l),
(523,0,l),
(523,26,l),
(502,28,ls),
(470,31,o),
(446,62,o),
(446,95,qs),
(446,196,l),
(413,196,l),
(413,214,l),
(553,214,l),
(579,385,l),
(547,385,l),
(535,354,ls),
(512,295,o),
(446,283,q),
(446,469,l),
(355,416,l),
(355,280,l),
(123,280,l),
(215,384,o),
(309,495,qs),
(383,583,o),
(432,683,o),
(429,719,q),
(313,698,l),
(315,650,o),
(278,549,o),
(228,478,qs),
(133,342,o),
(25,214,q)
);
}
);
width = 601;
}
);
note = four;
unicode = 52;
},
{
glyphname = five;
kernLeft = five;
kernRight = three;
layers = (
{
layerId = m01;
shapes = (
{
closed = 1;
nodes = (
(174,624,l),
(437,624,l),
(456,752,l),
(429,752,l),
(423,736,ls),
(411,700,o),
(348,700,qs),
(119,700,l),
(84,327,l),
(156,364,o),
(230,364,qs),
(299,364,o),
(388,279,o),
(388,204,qs),
(388,126,o),
(311,31,o),
(243,31,qs),
(191,31,o),
(130,78,o),
(128,121,q),
(149,121,l),
(150,127,o),
(150,138,qs),
(150,169,o),
(119,198,o),
(98,198,qs),
(76,198,o),
(46,164,o),
(46,140,qs),
(46,98,o),
(99,30,o),
(188,-10,o),
(241,-10,qs),
(312,-10,o),
(423,50,o),
(486,156,o),
(486,224,qs),
(486,290,o),
(426,389,o),
(320,442,o),
(251,442,qs),
(186,442,o),
(137,422,q),
(158,654,l),
(176,654,l)
);
}
);
width = 521;
}
);
note = five;
unicode = 53;
},
{
glyphname = six;
kernLeft = zero;
kernRight = three;
layers = (
{
layerId = m01;
shapes = (
{
closed = 1;
nodes = (
(522,285,o),
(469,376,o),
(374,427,o),
(315,427,qs),
(268,427,o),
(165,376,o),
(124,328,q),
(124,354,l),
(151,382,l),
(157,517,o),
(244,670,o),
(314,670,qs),
(361,670,o),
(417,621,o),
(418,579,q),
(397,579,l),
(395,565,o),
(395,560,qs),
(395,534,o),
(426,502,o),
(450,502,qs),
(472,502,o),
(501,534,o),
(501,557,qs),
(501,598,o),
(450,669,o),
(365,711,o),
(317,711,qs),
(239,711,o),
(116,612,o),
(47,438,o),
(47,328,qs),
(49,231,o),
(115,77,o),
(230,-10,o),
(301,-10,qs),
(360,-10,o),
(462,53,o),
(522,162,o),
(522,227,qs)
);
},
{
closed = 1;
nodes = (
(172,347,o),
(250,384,o),
(292,384,qs),
(353,384,o),
(424,287,o),
(424,205,qs),
(424,126,o),
(360,32,o),
(306,32,qs),
(239,32,o),
(155,184,o),
(151,315,q)
);
}
);
width = 566;
}
);
note = six;
unicode = 54;
},
{
glyphname = seven;
kernLeft = seven;
kernRight = seven;
layers = (
{
layerId = m01;
shapes = (
{
closed = 1;
nodes = (
(226,-6,l),
(219,27,o),
(219,53,qs),
(219,93,o),
(245,193,o),
(274,260,qs),
(382,512,o),
(476,700,q),
(47,700,l),
(16,521,l),
(49,521,l),
(64,567,ls),
(75,600,o),
(151,629,o),
(218,629,qs),
(379,629,l),
(393,654,l),
(414,654,l),
(308,459,o),
(175,190,qs),
(140,121,o),
(109,33,o),
(109,-1,qs),
(109,-12,o),
(113,-34,q)
);
}
);
width = 486;
}
);
note = seven;
unicode = 55;
},
{
glyphname = eight;
kernLeft = three;
kernRight = three;
layers = (
{
layerId = m01;
shapes = (
{
closed = 1;
nodes = (
(338,-11,o),
(445,44,o),
(504,134,o),
(504,186,qs),
(504,243,o),
(437,339,o),
(356,378,q),
(324,366,l),
(305,376,l),
(337,389,ls),
(404,416,o),
(470,497,o),
(470,553,qs),
(470,599,o),
(419,670,o),
(330,710,o),
(274,710,qs),
(214,710,o),
(122,662,o),
(72,582,o),
(72,535,qs),
(72,434,o),
(180,375,q),
(211,388,l),
(229,378,l),
(198,364,ls),
(117,328,o),
(39,238,o),
(39,175,qs),
(39,123,o),
(98,38,o),
(204,-11,o),
(270,-11,qs)
);
},
{
closed = 1;
nodes = (
(129,243,o),
(181,325,o),
(229,344,q),
(294,310,ls),
(358,277,o),
(407,207,o),
(407,161,qs),
(407,105,o),
(333,31,o),
(270,31,qs),
(208,31,o),
(129,119,o),
(129,187,qs)
);
},
{
closed = 1;
nodes = (
(156,614,o),
(218,676,o),
(267,676,qs),
(318,676,o),
(387,603,o),
(387,546,qs),
(387,501,o),
(346,430,o),
(309,410,q),
(251,438,ls),
(156,484,o),
(156,565,qs)
);
}
);
width = 543;
}
);
note = eight;
unicode = 56;
},
{
glyphname = nine;
kernLeft = three;
kernRight = zero;
layers = (
{
layerId = m01;
shapes = (
{
closed = 1;
nodes = (
(516,469,o),
(450,624,o),
(336,711,o),
(265,711,qs),
(206,711,o),
(106,648,o),
(46,539,o),
(46,474,qs),
(46,416,o),
(99,325,o),
(192,274,o),
(251,274,qs),
(299,274,o),
(400,325,o),
(441,373,q),
(441,346,l),
(413,319,l),
(408,184,o),
(322,31,o),
(252,31,qs),
(205,31,o),
(149,80,o),
(148,122,q),
(169,122,l),
(171,136,o),
(171,141,qs),
(171,167,o),
(140,199,o),
(116,199,qs),
(95,199,o),
(65,168,o),
(65,145,qs),
(65,104,o),
(116,32,o),
(201,-10,o),
(250,-10,qs),
(327,-10,o),
(449,89,o),
(517,263,o),
(517,373,qs)
);
},
{
closed = 1;
nodes = (
(144,576,o),
(207,669,o),
(261,669,qs),
(326,669,o),
(409,517,o),
(413,385,q),
(392,353,o),
(316,317,o),
(275,317,qs),
(215,317,o),
(144,414,o),
(144,496,qs)
);
}
);
width = 566;
}
);
note = nine;
unicode = 57;
},
{
glyphname = colon;
kernLeft = colon;
kernRight = colon;
layers = (
{
layerId = m01;
shapes = (
{
closed = 1;
nodes = (
(64,480,l),
(64,367,l),
(176,367,l),
(176,480,l)
);
},
{
closed = 1;
nodes = (
(176,0,l),
(176,113,l),
(64,113,l),
(64,0,l)
);
}
);
width = 240;
}
);
note = colon;
unicode = 58;
},
{
glyphname = semicolon;
kernLeft = colon;
kernRight = colon;
layers = (
{
layerId = m01;
shapes = (
{
closed = 1;
nodes = (
(64,480,l),
(64,367,l),
(176,367,l),
(176,480,l)
);
},
{
closed = 1;
nodes = (
(41,-141,l),
(105,-119,o),
(182,-25,o),
(182,31,qs),
(182,69,o),
(145,115,o),
(114,115,qs),
(88,115,o),
(53,81,o),
(53,55,qs),
(53,32,o),
(84,-1,o),
(106,-1,qs),
(112,-1,o),
(122,1,o),
(125,3,q),
(125,27,l),
(141,27,l),
(141,8,ls),
(141,-34,o),
(85,-113,o),
(37,-135,q)
);
}
);
width = 240;
}
);
note = semicolon;
unicode = 59;
},
{
glyphname = equal;
kernLeft = plus;
kernRight = plus;
layers = (
{
layerId = m01;
shapes = (
{
closed = 1;
nodes = (
(35,410,l),
(35,370,l),
(483,370,l),
(483,410,l)
);
},
{
closed = 1;
nodes = (
(483,220,l),
(483,260,l),
(35,260,l),
(35,220,l)
);
}
);
width = 518;
}
);
note = equal;
unicode = 61;
},
{
glyphname = question;
kernLeft = question;
layers = (
{
layerId = m01;
shapes = (
{
closed = 1;
nodes = (
(210,220,o),
(210,250,qs),
(210,269,o),
(229,306,o),
(247,318,qs),
(317,369,ls),
(375,411,o),
(426,493,o),
(426,543,qs),
(426,590,o),
(369,667,o),
(270,710,o),
(208,710,qs),
(158,710,o),
(71,672,o),
(19,609,o),
(19,573,qs),
(19,551,o),
(48,519,o),
(68,519,qs),
(90,519,o),
(115,549,o),
(115,573,qs),
(115,579,o),
(113,591,q),
(93,591,l),
(95,629,o),
(153,672,o),
(202,672,qs),
(259,672,o),
(333,601,o),
(333,547,qs),
(333,467,o),
(267,410,qs),
(214,364,ls),
(189,342,o),
(166,299,o),
(166,274,qs),
(166,244,o),
(203,208,o),
(232,207,q)
);
},
{
closed = 1;
nodes = (
(261,0,l),
(261,113,l),
(149,113,l),
(149,0,l)
);
}
);
width = 430;
}
);
note = question;
unicode = 63;
},
{
glyphname = at;
kernLeft = at;
kernRight = at;
layers = (
{
layerId = m01;
shapes = (
{
closed = 1;
nodes = (
(591,419,l),
(507,393,l),
(477,417,o),
(433,417,qs),
(384,417,o),
(291,369,o),
(222,284,o),
(206,230,qs),
(194,188,o),
(194,154,qs),
(194,107,o),
(238,52,o),
(276,51,qs),
(317,51,o),
(397,118,o),
(444,193,q),
(430,145,l),
(411,117,l),
(411,83,o),
(463,51,o),
(505,51,qs),
(569,51,o),
(674,120,o),
(734,239,o),
(734,312,qs),
(734,392,o),
(657,518,o),
(520,589,o),
(435,589,qs),
(332,589,o),
(153,485,o),
(45,304,o),
(45,195,qs),
(45,104,o),
(127,-42,o),
(272,-125,o),
(362,-125,qs),
(492,-125,o),
(589,-47,q),
(588,-45,l),
(485,-96,o),
(382,-96,qs),
(295,-96,o),
(159,-22,o),
(83,110,o),
(83,194,qs),
(83,296,o),
(181,463,o),
(343,557,o),
(434,557,qs),
(508,557,o),
(629,494,o),
(698,383,o),
(698,314,qs),
(698,252,o),
(653,148,o),
(576,88,o),
(528,88,qs),
(482,88,o),
(482,124,qs),
(482,141,o),
(491,165,qs)
);
},
{
closed = 1;
nodes = (
(278,188,o),
(294,238,qs),
(317,308,o),
(391,387,o),
(434,387,qs),
(468,387,o),
(489,357,q),
(431,218,l),
(353,100,o),
(313,100,qs),
(296,100,o),
(278,127,o),
(278,152,qs)
);
}
);
width = 764;
}
);
note = at;
unicode = 64;
},
{
glyphname = A;
kernLeft = A;
kernRight = A;
layers = (
{
layerId = m01;
shapes = (
{
closed = 1;
nodes = (
(472,216,l),
(520,102,ls),
(527,87,o),
(527,73,qs),
(527,55,o),
(503,33,o),
(481,31,qs),
(464,29,l),
(464,0,l),
(715,0,l),
(715,27,l),
(683,34,o),
(646,69,o),
(631,103,qs),
(362,733,l),
(360,733,l),
(93,111,ls),
(64,43,o),
(6,27,q),
(6,0,l),
(210,0,l),
(210,29,l),
(193,31,ls),
(140,37,o),
(140,81,qs),
(140,102,o),
(153,132,qs),
(197,236,l),
(500,236,l),
(508,216,l)
);
},
{
closed = 1;
nodes = (
(331,556,l),
(450,271,l),
(212,271,l)
);
}
);
width = 721;
}
);
note = A;
unicode = 65;
},
{
glyphname = B;
kernRight = B;
layers = (
{
layerId = m01;
shapes = (
{
closed = 1;
nodes = (
(621,260,o),
(535,355,o),
(458,375,q),
(515,397,o),
(581,479,o),
(581,528,qs),
(581,580,o),
(520,657,o),
(407,700,o),
(333,700,qs),
(20,700,l),
(20,671,l),
(43,669,ls),
(114,663,o),
(114,595,qs),
(114,105,ls),
(114,37,o),
(43,31,qs),
(20,29,l),
(20,0,l),
(358,0,ls),
(437,0,o),
(556,48,o),
(621,135,o),
(621,193,qs)
);
},
{
closed = 1;
nodes = (
(184,61,l),
(220,61,l),
(220,351,l),
(344,351,ls),
(421,351,o),
(510,268,o),
(510,197,qs),
(510,123,o),
(420,41,o),
(339,41,qs),
(184,41,l)
);
},
{
closed = 1;
nodes = (
(184,659,l),
(319,659,ls),
(392,659,o),
(472,586,o),
(472,521,qs),
(472,459,o),
(393,386,o),
(326,386,qs),
(220,386,l),
(220,639,l),
(184,639,l)
);
}
);
width = 660;
}
);
note = B;
unicode = 66;
},
{
glyphname = C;
kernLeft = C;
kernRight = C;
layers = (
{
layerId = m01;
shapes = (
{
closed = 1;
nodes = (
(455,-10,o),
(597,103,o),
(626,201,q),
(622,203,l),
(573,120,o),
(458,44,o),
(381,44,qs),
(313,44,o),
(207,122,o),
(149,263,o),
(149,354,qs),
(149,446,o),
(203,586,o),
(302,663,o),
(366,663,qs),
(432,663,o),
(533,585,o),
(565,508,qs),
(585,462,l),
(619,462,l),
(619,707,l),
(542,664,l),
(549,658,o),
(568,637,o),
(574,629,q),
(574,594,l),
(499,710,o),
(364,710,qs),
(271,710,o),
(119,613,o),
(32,443,o),
(32,340,qs),
(32,241,o),
(118,81,o),
(269,-10,o),
(362,-10,qs)
);
}
);
width = 665;
}
);
note = C;
unicode = 67;
},
{
glyphname = D;
kernRight = D;
layers = (
{
layerId = m01;
shapes = (
{
closed = 1;
nodes = (
(20,29,l),
(20,0,l),
(317,0,ls),
(423,0,o),
(597,94,o),
(698,256,o),
(698,355,qs),
(698,453,o),
(600,611,o),
(427,700,o),
(319,700,qs),
(20,700,l),
(20,671,l),
(43,669,ls),
(114,663,o),
(114,595,qs),
(114,105,ls),
(114,37,o),
(43,31,qs)
);
},
{
closed = 1;
nodes = (
(184,61,l),
(220,61,l),
(220,639,l),
(184,639,l),
(184,659,l),
(314,659,ls),
(393,659,o),
(514,581,o),
(581,442,o),
(581,351,qs),
(581,257,o),
(514,117,o),
(389,41,o),
(305,41,qs),
(184,41,l)
);
}
);
width = 729;
}
);
note = D;
unicode = 68;
},
{
glyphname = E;
kernRight = E;
layers = (
{
layerId = m01;
shapes = (
{
closed = 1;
nodes = (
(220,61,l),
(220,340,l),
(325,340,ls),
(363,340,o),
(402,304,o),
(412,260,qs),
(420,226,l),
(453,226,l),
(453,490,l),
(420,490,l),
(412,456,ls),
(402,411,o),
(363,375,o),
(325,375,qs),
(220,375,l),
(220,639,l),
(184,639,l),
(184,659,l),
(402,659,ls),
(460,659,o),
(529,600,o),
(547,535,qs),
(569,456,l),
(601,456,l),
(589,700,l),
(20,700,l),
(20,671,l),
(43,669,ls),
(114,663,o),
(114,595,qs),
(114,105,ls),
(114,37,o),
(43,31,qs),
(20,29,l),
(20,0,l),
(587,0,l),
(619,249,l),
(586,249,l),
(568,184,ls),
(548,110,o),
(470,41,o),
(409,41,qs),
(184,41,l),
(184,61,l)
);
}
);
width = 660;
}
);
note = E;
unicode = 69;
},
{
glyphname = F;
kernRight = F;
layers = (
{
layerId = m01;
shapes = (
{
closed = 1;
nodes = (
(220,314,l),
(184,314,l),
(184,334,l),
(330,334,ls),
(368,334,o),
(407,298,o),
(417,254,qs),
(425,220,l),
(458,220,l),
(458,484,l),
(425,484,l),
(417,450,ls),
(407,405,o),
(368,369,o),
(330,369,qs),
(220,369,l),
(220,639,l),
(184,639,l),
(184,659,l),
(402,659,ls),
(460,659,o),
(529,600,o),
(547,535,qs),
(569,456,l),
(601,456,l),
(589,700,l),
(20,700,l),
(20,671,l),
(43,669,ls),
(114,663,o),
(114,595,qs),
(114,105,ls),
(114,37,o),
(43,31,qs),
(20,29,l),
(20,0,l),
(314,0,l),
(314,29,l),
(291,31,ls),
(220,37,o),
(220,105,qs)
);
}
);
width = 645;
}
);
note = F;
unicode = 70;
},
{
glyphname = G;
kernLeft = C;
kernRight = G;
layers = (
{
layerId = m01;
shapes = (
{
closed = 1;
nodes = (
(490,-9,o),
(579,56,q),
(650,-11,l),
(650,232,ls),
(650,300,o),
(716,306,qs),
(739,308,l),
(739,337,l),
(452,337,l),
(452,308,l),
(475,306,ls),
(551,300,o),
(551,232,qs),
(551,118,l),
(589,144,l),
(589,119,l),
(538,80,o),
(445,44,o),
(395,44,qs),
(322,44,o),
(211,122,o),
(149,263,o),
(149,355,qs),
(149,446,o),
(204,586,o),
(305,663,o),
(371,663,qs),
(443,663,o),
(549,585,o),
(581,508,qs),
(600,463,l),
(634,463,l),
(634,708,l),
(558,665,l),
(565,658,o),
(588,634,o),
(589,630,q),
(589,595,l),
(553,652,o),
(443,710,o),
(373,710,qs),
(277,710,o),
(121,613,o),
(32,445,o),
(32,341,qs),
(32,242,o),
(118,82,o),
(269,-9,o),
(363,-9,qs)
);
}
);
width = 755;
}
);
note = G;
unicode = 71;
},
{
glyphname = H;
kernRight = H;
layers = (
{
layerId = m01;
shapes = (
{
closed = 1;
nodes = (
(184,340,l),
(585,340,l),
(585,320,l),
(549,320,l),
(549,105,ls),
(549,37,o),
(478,31,qs),
(455,29,l),
(455,0,l),
(749,0,l),
(749,29,l),
(726,31,ls),
(655,37,o),
(655,105,qs),
(655,595,ls),
(655,663,o),
(726,669,qs),
(749,671,l),
(749,700,l),
(455,700,l),
(455,671,l),
(478,669,ls),
(549,663,o),
(549,595,qs),
(549,375,l),
(220,375,l),
(220,595,ls),
(220,663,o),
(291,669,qs),
(314,671,l),
(314,700,l),
(20,700,l),
(20,671,l),
(43,669,ls),
(114,663,o),
(114,595,qs),
(114,105,ls),
(114,37,o),
(43,31,qs),
(20,29,l),
(20,0,l),
(314,0,l),
(314,29,l),
(291,31,ls),
(220,37,o),
(220,105,qs),
(220,320,l),
(184,320,l)
);
}
);
width = 769;
}
);
note = H;
unicode = 72;
},
{
glyphname = I;
kernRight = H;
layers = (
{
layerId = m01;
shapes = (
{
closed = 1;
nodes = (
(220,595,ls),
(220,663,o),
(291,669,qs),
(314,671,l),
(314,700,l),
(20,700,l),
(20,671,l),
(43,669,ls),
(114,663,o),
(114,595,qs),
(114,105,ls),
(114,37,o),
(43,31,qs),
(20,29,l),
(20,0,l),
(314,0,l),
(314,29,l),
(291,31,ls),
(220,37,o),
(220,105,qs)
);
}
);
width = 334;
}
);
note = I;
unicode = 73;
},
{
glyphname = J;
kernLeft = J;
kernRight = J;
layers = (
{
layerId = m01;
shapes = (
{
closed = 1;
nodes = (
(454,595,ls),
(454,663,o),
(525,669,qs),
(548,671,l),
(548,700,l),
(254,700,l),
(254,671,l),
(277,669,ls),
(348,663,o),
(348,595,qs),
(348,183,ls),
(348,112,o),
(275,32,o),
(211,32,qs),
(165,32,o),
(108,77,o),
(107,114,q),
(128,114,l),
(130,126,o),
(130,132,qs),
(130,160,o),
(100,192,o),
(74,192,qs),
(52,192,o),
(21,160,o),
(21,137,qs),
(21,97,o),
(74,29,o),
(165,-11,o),
(218,-11,qs),
(286,-11,o),
(394,47,o),
(454,149,o),
(454,214,qs)
);
}
);
width = 568;
}
);
note = J;
unicode = 74;
},
{
glyphname = K;
kernRight = K;
layers = (
{
layerId = m01;
shapes = (
{
closed = 1;
nodes = (
(17,29,l),
(17,0,l),
(311,0,l),
(311,29,l),
(288,31,ls),
(217,37,o),
(217,105,qs),
(217,259,l),
(311,356,l),
(556,0,l),
(719,0,l),
(719,27,l),
(689,35,o),
(642,71,o),
(619,103,qs),
(383,431,l),
(535,587,ls),
(564,616,o),
(649,663,o),
(689,673,q),
(689,700,l),
(454,700,l),
(454,671,l),
(476,669,ls),
(492,668,o),
(510,652,o),
(510,639,qs),
(510,617,o),
(483,588,qs),
(189,283,l),
(189,308,l),
(217,338,l),
(217,595,ls),
(217,663,o),
(288,669,qs),
(311,671,l),
(311,700,l),
(17,700,l),
(17,671,l),
(40,669,ls),
(111,663,o),
(111,595,qs),
(111,105,ls),
(111,37,o),
(40,31,qs)
);
}
);
width = 728;
}
);
note = K;
unicode = 75;
},
{
glyphname = L;
kernRight = L;
layers = (
{
layerId = m01;
shapes = (
{
closed = 1;
nodes = (
(587,0,l),
(619,249,l),
(586,249,l),
(569,188,ls),
(548,112,o),
(470,41,o),
(409,41,qs),
(184,41,l),
(184,61,l),
(220,61,l),
(220,595,ls),
(220,663,o),
(291,669,qs),
(314,671,l),
(314,700,l),
(20,700,l),
(20,671,l),
(43,669,ls),
(114,663,o),
(114,595,qs),
(114,105,ls),
(114,37,o),
(43,31,qs),
(20,29,l),
(20,0,l)
);
}
);
width = 645;
}
);
note = L;
unicode = 76;
},
{
glyphname = M;
kernRight = H;
layers = (
{
layerId = m01;
shapes = (
{
closed = 1;
nodes = (
(20,671,l),
(43,668,ls),
(79,663,o),
(114,622,o),
(114,584,qs),
(114,116,ls),
(114,78,o),
(79,37,o),
(43,32,qs),
(20,29,l),
(20,0,l),
(262,0,l),
(262,29,l),
(239,32,ls),
(167,41,o),
(167,116,qs),
(167,613,l),
(431,-31,l),
(433,-31,l),
(692,601,l),
(713,601,l),
(697,562,l),
(697,105,ls),
(697,37,o),
(626,31,qs),
(603,29,l),
(603,0,l),
(896,0,l),
(896,29,l),
(873,31,ls),
(802,37,o),
(802,105,qs),
(802,595,ls),
(802,663,o),
(873,669,qs),
(896,671,l),
(896,700,l),
(679,700,l),
(449,126,l),
(437,150,l),
(452,188,l),
(243,700,l),
(20,700,l)
);
}
);
width = 916;
}
);
note = M;
unicode = 77;
},
{
glyphname = N;
kernRight = N;
layers = (
{
layerId = m01;
shapes = (
{
closed = 1;
nodes = (
(650,584,ls),
(650,622,o),
(685,663,o),
(721,668,qs),
(744,671,l),
(744,700,l),
(502,700,l),
(502,671,l),
(525,668,ls),
(597,659,o),
(597,584,qs),
(597,189,l),
(578,211,l),
(578,248,l),
(196,700,l),
(34,700,l),
(114,618,l),
(114,116,ls),
(114,78,o),
(79,37,o),
(43,32,qs),
(20,29,l),
(20,0,l),
(262,0,l),
(262,29,l),
(239,32,ls),
(167,41,o),
(167,116,qs),
(167,570,l),
(650,-10,l)
);
}
);
width = 759;
}
);
note = N;
unicode = 78;
},
{
glyphname = O;
kernLeft = C;
kernRight = D;
layers = (
{
layerId = m01;
shapes = (
{
closed = 1;
nodes = (
(456,-11,o),
(610,85,o),
(700,253,o),
(700,355,qs),
(700,457,o),
(611,620,o),
(459,712,o),
(368,712,qs),
(276,712,o),
(122,616,o),
(32,449,o),
(32,347,qs),
(32,245,o),
(121,81,o),
(273,-11,o),
(364,-11,qs)
);
},
{
closed = 1;
nodes = (
(146,461,o),
(200,597,o),
(295,670,o),
(354,670,qs),
(420,670,o),
(523,588,o),
(582,434,o),
(582,331,qs),
(582,241,o),
(528,105,o),
(433,32,o),
(374,32,qs),
(308,32,o),
(205,114,o),
(146,268,o),
(146,371,qs)
);
}
);
width = 731;
}
);
note = O;
unicode = 79;
},
{
glyphname = P;
kernRight = P;
layers = (
{
layerId = m01;
shapes = (
{
closed = 1;
nodes = (
(220,303,l),
(184,303,l),
(184,323,l),
(345,323,ls),
(415,323,o),
(525,372,o),
(587,461,o),
(587,517,qs),
(587,571,o),
(526,654,o),
(416,700,o),
(344,700,qs),
(20,700,l),
(20,671,l),
(43,669,ls),
(114,663,o),
(114,595,qs),
(114,105,ls),
(114,37,o),
(43,31,qs),
(20,29,l),
(20,0,l),
(314,0,l),
(314,29,l),
(291,31,ls),
(220,37,o),
(220,105,qs)
);
},
{
closed = 1;
nodes = (
(184,659,l),
(333,659,ls),
(400,659,o),
(476,581,o),
(476,513,qs),
(476,443,o),
(398,358,o),
(333,358,qs),
(220,358,l),
(220,639,l),
(184,639,l)
);
}
);
width = 617;
}
);
note = P;
unicode = 80;
},
{
glyphname = Q;
kernLeft = C;
kernRight = D;
layers = (
{
layerId = m01;
shapes = (
{
closed = 1;
nodes = (
(680,-82,l),
(664,-97,o),
(641,-105,o),
(625,-105,qs),
(595,-105,o),
(572,-66,qs),
(517,28,l),
(600,72,o),
(700,247,o),
(700,355,qs),
(700,457,o),
(611,620,o),
(459,712,o),
(368,712,qs),
(276,712,o),
(122,616,o),
(32,449,o),
(32,347,qs),
(32,245,o),
(121,81,o),
(273,-11,o),
(364,-11,qs),
(376,-11,o),
(402,-9,q),
(382,32,l),
(345,31,o),
(276,57,o),
(248,83,q),
(249,114,o),
(277,155,o),
(301,155,qs),
(320,155,o),
(349,133,o),
(361,110,qs),
(463,-87,ls),
(483,-125,o),
(532,-158,o),
(570,-158,qs),
(607,-158,o),
(662,-122,o),
(683,-84,q)
);
},
{
closed = 1;
nodes = (
(147,466,o),
(204,601,o),
(299,670,o),
(355,670,qs),
(422,670,o),
(526,586,o),
(583,432,o),
(583,329,qs),
(583,241,o),
(533,110,o),
(490,73,q),
(458,127,ls),
(437,163,o),
(382,202,o),
(337,203,qs),
(292,203,o),
(228,152,o),
(221,111,q),
(186,156,o),
(147,289,o),
(147,371,qs)
);
}
);
width = 731;
}
);
note = Q;
unicode = 81;
},
{
glyphname = R;
kernRight = R;
layers = (
{
layerId = m01;
shapes = (
{
closed = 1;
nodes = (
(220,318,l),
(184,318,l),
(184,338,l),
(316,338,ls),
(353,338,o),
(397,304,o),
(412,264,qs),
(511,0,l),
(687,0,l),
(687,28,l),
(674,30,ls),
(644,35,o),
(607,59,o),
(597,84,qs),
(524,258,ls),
(509,294,o),
(464,339,o),
(428,352,q),
(469,360,o),
(542,411,o),
(587,486,o),
(587,527,qs),
(587,578,o),
(527,657,o),
(419,700,o),
(349,700,qs),
(20,700,l),
(20,671,l),
(43,669,ls),
(114,663,o),
(114,595,qs),
(114,105,ls),
(114,37,o),
(43,31,qs),
(20,29,l),
(20,0,l),
(314,0,l),
(314,29,l),
(291,31,ls),
(220,37,o),
(220,105,qs)
);
},
{
closed = 1;
nodes = (
(184,659,l),
(333,659,ls),
(400,659,o),
(476,583,o),
(476,517,qs),
(476,453,o),
(397,373,o),
(333,373,qs),
(220,373,l),
(220,639,l),
(184,639,l)
);
}
);
width = 693;
}
);
note = R;
unicode = 82;
},
{
glyphname = S;
kernLeft = S;
kernRight = S;
layers = (
{
layerId = m01;
shapes = (
{
closed = 1;
nodes = (
(352,-11,o),
(460,41,o),
(520,136,o),
(520,198,qs),
(520,259,o),
(455,349,o),
(394,373,qs),
(210,445,ls),
(167,462,o),
(121,520,o),
(121,557,qs),
(121,606,o),
(184,665,o),
(237,665,qs),
(300,665,o),
(389,593,o),
(422,516,qs),
(440,474,l),
(475,474,l),
(472,708,l),
(400,667,l),
(406,661,o),
(425,639,o),
(431,630,q),
(432,593,l),
(400,649,o),
(301,710,o),
(240,710,qs),
(180,710,o),
(87,660,o),
(35,571,o),
(35,514,qs),
(35,458,o),
(96,375,o),
(155,351,qs),
(326,283,ls),
(375,264,o),
(428,200,o),
(428,159,qs),
(428,102,o),
(350,34,o),
(283,34,qs),
(156,34,o),
(91,178,qs),
(65,235,l),
(30,235,l),
(33,-9,l),
(107,35,l),
(81,57,o),
(76,64,q),
(75,98,l),
(159,-11,o),
(281,-11,qs)
);
}
);
width = 545;
}
);
note = S;
unicode = 83;
},
{
glyphname = T;
kernLeft = T;
kernRight = T;
layers = (
{
layerId = m01;
shapes = (
{
closed = 1;
nodes = (
(30,700,l),
(18,480,l),
(51,480,l),
(67,536,ls),
(86,601,o),
(156,659,o),
(215,659,qs),
(277,659,l),
(277,105,ls),
(277,37,o),
(206,31,qs),
(183,29,l),
(183,0,l),
(477,0,l),
(477,29,l),
(454,31,ls),
(383,37,o),
(383,105,qs),
(383,639,l),
(347,639,l),
(347,659,l),
(444,659,ls),
(503,659,o),
(573,601,o),
(592,536,qs),
(608,480,l),
(641,480,l),
(629,700,l)
);
}
);
width = 659;
}
);
note = T;
unicode = 84;
},
{
glyphname = U;
kernLeft = U;
kernRight = J;
layers = (
{
layerId = m01;
shapes = (
{
closed = 1;
nodes = (
(456,-11,o),
(581,61,o),
(649,194,o),
(649,283,qs),
(649,584,ls),
(649,622,o),
(684,663,o),
(720,668,qs),
(743,671,l),
(743,700,l),
(501,700,l),
(501,671,l),
(524,668,ls),
(596,659,o),
(596,584,qs),
(596,296,ls),
(596,183,o),
(490,51,o),
(399,51,qs),
(317,51,o),
(219,159,o),
(219,250,qs),
(219,595,ls),
(219,663,o),
(290,669,qs),
(313,671,l),
(313,700,l),
(20,700,l),
(20,671,l),
(43,669,ls),
(114,663,o),
(114,595,qs),
(114,230,ls),
(114,157,o),
(177,48,o),
(294,-11,o),
(372,-11,qs)
);
}
);
width = 763;
}
);
note = U;
unicode = 85;
},
{
glyphname = V;
kernLeft = V;
kernRight = V;
layers = (
{
layerId = m01;
shapes = (
{
closed = 1;
nodes = (
(201,598,ls),
(195,615,o),
(195,627,qs),
(195,645,o),
(218,667,o),
(240,669,qs),
(257,671,l),
(257,700,l),
(6,700,l),
(6,673,l),
(37,666,o),
(75,632,o),
(90,597,qs),
(359,-33,l),
(361,-33,l),
(628,589,ls),
(658,658,o),
(715,673,q),
(715,700,l),
(511,700,l),
(511,671,l),
(528,669,ls),
(581,663,o),
(581,619,qs),
(581,597,o),
(568,568,qs),
(375,119,l),
(364,144,l),
(378,177,l)
);
}
);
width = 721;
}
);
note = V;
unicode = 86;
},
{
glyphname = W;
kernLeft = V;
kernRight = V;
layers = (
{
layerId = m01;
shapes = (
{
closed = 1;
nodes = (
(701,195,l),
(550,598,ls),
(544,615,o),
(544,627,qs),
(544,663,o),
(589,669,qs),
(606,671,l),
(606,700,l),
(357,700,l),
(357,673,l),
(390,666,o),
(428,631,o),
(442,597,qs),
(498,462,l),
(363,124,l),
(352,149,l),
(364,185,l),
(203,598,ls),
(197,615,o),
(197,627,qs),
(197,663,o),
(242,669,qs),
(259,671,l),
(259,700,l),
(10,700,l),
(10,673,l),
(43,665,o),
(82,631,o),
(95,597,qs),
(347,-36,l),
(349,-36,l),
(522,402,l),
(684,-36,l),
(686,-36,l),
(926,589,ls),
(938,622,o),
(982,665,o),
(1011,673,q),
(1011,700,l),
(806,700,l),
(806,671,l),
(823,669,ls),
(850,666,o),
(875,642,o),
(875,619,qs),
(875,599,o),
(864,568,qs),
(701,133,l),
(688,160,l)
);
}
);
width = 1021;
}
);
note = W;
unicode = 87;
},
{
glyphname = X;
kernLeft = X;
kernRight = K;
layers = (
{
layerId = m01;
shapes = (
{
closed = 1;
nodes = (
(221,29,l),
(200,31,ls),
(182,32,o),
(163,49,o),
(163,62,qs),
(163,81,o),
(181,105,qs),
(358,337,l),
(371,317,l),
(349,288,l),
(467,105,ls),
(482,83,o),
(482,64,qs),
(482,50,o),
(463,32,o),
(445,31,qs),
(424,29,l),
(424,0,l),
(701,0,l),
(701,29,l),
(664,34,o),
(615,69,o),
(591,105,qs),
(399,399,l),
(548,595,ls),
(574,628,o),
(627,664,o),
(664,671,q),
(664,700,l),
(452,700,l),
(452,671,l),
(473,669,ls),
(492,668,o),
(511,651,o),
(511,639,qs),
(511,620,o),
(492,595,qs),
(349,411,l),
(336,429,l),
(358,458,l),
(270,595,ls),
(255,619,o),
(255,637,qs),
(255,666,o),
(292,669,qs),
(313,671,l),
(313,700,l),
(41,700,l),
(41,671,l),
(77,664,o),
(124,629,o),
(146,595,qs),
(306,346,l),
(126,105,ls),
(101,73,o),
(48,37,o),
(9,29,q),
(9,0,l),
(221,0,l)
);
}
);
width = 720;
}
);
note = X;
unicode = 88;
},
{
glyphname = Y;
kernLeft = Y;
kernRight = Y;
layers = (
{
layerId = m01;
shapes = (
{
closed = 1;
nodes = (
(369,312,l),
(356,327,l),
(376,357,l),
(223,588,ls),
(208,612,o),
(208,630,qs),
(208,646,o),
(228,666,o),
(247,668,qs),
(272,671,l),
(272,700,l),
(21,700,l),
(21,673,l),
(42,669,o),
(77,640,o),
(95,613,qs),
(314,285,l),
(314,105,ls),
(314,37,o),
(243,31,qs),
(220,29,l),
(220,0,l),
(511,0,l),
(511,29,l),
(488,31,ls),
(417,37,o),
(417,105,qs),
(417,313,l),
(610,599,ls),
(632,632,o),
(672,667,o),
(695,673,q),
(695,700,l),
(486,700,l),
(486,671,l),
(503,669,ls),
(558,663,o),
(558,623,qs),
(558,598,o),
(536,566,qs)
);
}
);
width = 716;
}
);
note = Y;
unicode = 89;
},
{
glyphname = Z;
kernLeft = Z;
kernRight = Z;
layers = (
{
layerId = m01;
shapes = (
{
closed = 1;
nodes = (
(420,640,l),
(13,0,l),
(561,0,l),
(593,249,l),
(560,249,l),
(542,184,ls),
(522,110,o),
(444,41,o),
(383,41,qs),
(120,41,l),
(132,60,l),
(165,60,l),
(573,700,l),
(56,700,l),
(44,456,l),
(76,456,l),
(98,535,ls),
(116,600,o),
(185,659,o),
(243,659,qs),
(466,659,l),
(454,640,l)
);
}
);
width = 610;
}
);
note = Z;
unicode = 90;
},
{
glyphname = bracketleft;
layers = (
{
layerId = m01;
shapes = (
{
closed = 1;
nodes = (
(175,-157,l),
(175,682,l),
(143,682,l),
(143,700,l),
(333,700,l),
(333,735,l),
(75,735,l),
(75,-210,l),
(333,-210,l),
(333,-175,l),
(143,-175,l),
(143,-157,l)
);
}
);
width = 363;
}
);
note = bracketleft;
unicode = 91;
},
{
glyphname = backslash;
kernLeft = asterisk;
kernRight = backslash;
layers = (
{
layerId = m01;
shapes = (
{
closed = 1;
nodes = (
(17,700,l),
(416,-231,l),
(452,-231,l),
(53,700,l)
);
}
);
width = 370;
}
);
note = backslash;
unicode = 92;
},
{
glyphname = bracketright;
layers = (
{
layerId = m01;
shapes = (
{
closed = 1;
nodes = (
(188,682,l),
(188,-157,l),
(220,-157,l),
(220,-175,l),
(30,-175,l),
(30,-210,l),
(288,-210,l),
(288,735,l),
(30,735,l),
(30,700,l),
(220,700,l),
(220,682,l)
);
}
);
width = 363;
}
);
note = bracketright;
unicode = 93;
},
{
glyphname = asciicircum;
layers = (
{
layerId = m01;
shapes = (
{
closed = 1;
nodes = (
(267,700,l),
(39,354,l),
(90,354,l),
(285,646,l),
(480,354,l),
(531,354,l),
(303,700,l)
);
}
);
width = 570;
}
);
note = asciicircum;
unicode = 94;
},
{
glyphname = underscore;
layers = (
{
layerId = m01;
shapes = (
{
closed = 1;
nodes = (
(-1,-115,l),
(-1,-155,l),
(447,-155,l),
(447,-115,l)
);
}
);
width = 446;
}
);
note = underscore;
unicode = 95;
},
{
glyphname = quoteleft;
kernLeft = quotedbl;
kernRight = quotedbl;
layers = (
{
layerId = m01;
shapes = (
{
closed = 1;
nodes = (
(197,707,l),
(133,685,o),
(56,591,o),
(56,535,qs),
(56,497,o),
(93,451,o),
(124,451,qs),
(150,451,o),
(185,485,o),
(185,511,qs),
(185,534,o),
(154,567,o),
(132,567,qs),
(126,567,o),
(116,565,o),
(113,563,q),
(113,539,l),
(97,539,l),
(97,558,ls),
(97,600,o),
(153,679,o),
(201,701,q)
);
}
);
width = 238;
}
);
note = quoteleft;
unicode = 8216;
},
{
glyphname = a;
kernLeft = a;
kernRight = a;
layers = (
{
layerId = m01;
shapes = (
{
closed = 1;
nodes = (
(317,59,l),
(318,28,o),
(356,-6,o),
(390,-6,qs),
(419,-6,o),
(477,36,o),
(490,67,q),
(488,68,l),
(476,57,o),
(453,48,o),
(438,48,qs),
(424,48,o),
(406,66,o),
(406,82,qs),
(406,336,ls),
(406,406,o),
(316,480,o),
(231,480,qs),
(181,480,o),
(99,445,o),
(53,390,o),
(53,362,qs),
(53,340,o),
(81,310,o),
(100,310,qs),
(124,310,o),
(152,340,o),
(152,370,qs),
(152,382,o),
(151,388,q),
(120,388,l),
(124,411,o),
(183,441,o),
(222,441,qs),
(264,441,o),
(315,385,o),
(315,338,qs),
(315,292,l),
(161,240,ls),
(90,216,o),
(34,158,o),
(34,109,qs),
(34,53,o),
(105,-10,o),
(167,-10,qs),
(213,-10,o),
(286,40,o),
(330,107,qs),
(340,122,l),
(340,95,l)
);
},
{
closed = 1;
nodes = (
(125,161,o),
(164,207,o),
(212,224,qs),
(315,260,l),
(315,126,l),
(294,89,o),
(232,43,o),
(201,43,qs),
(167,43,o),
(125,87,o),
(125,122,qs)
);
}
);
width = 501;
}
);
note = a;
unicode = 97;
},
{
glyphname = b;
kernLeft = b;
kernRight = b;
layers = (
{
layerId = m01;
shapes = (
{
closed = 1;
nodes = (
(343,-10,o),
(454,58,o),
(517,179,o),
(517,254,qs),
(517,319,o),
(467,422,o),
(379,480,o),
(323,480,qs),
(276,480,o),
(197,428,o),
(160,372,qs),
(140,342,l),
(140,373,l),
(171,419,l),
(171,725,l),
(-3,683,l),
(33,668,ls),
(60,657,o),
(79,634,o),
(79,614,qs),
(79,-11,l),
(154,25,l),
(207,-10,o),
(274,-10,qs)
);
},
{
closed = 1;
nodes = (
(171,348,l),
(190,377,o),
(251,417,o),
(280,417,qs),
(341,417,o),
(417,313,o),
(417,231,qs),
(417,141,o),
(337,30,o),
(272,30,qs),
(247,30,o),
(193,51,o),
(171,68,q)
);
}
);
width = 550;
}
);
note = b;
unicode = 98;
},
{
glyphname = c;
kernLeft = c;
kernRight = c;
layers = (
{
layerId = m01;
shapes = (
{
closed = 1;
nodes = (
(417,135,l),
(388,90,o),
(323,53,o),
(273,53,qs),
(232,53,o),
(165,105,o),
(128,197,o),
(128,255,qs),
(128,342,o),
(196,440,o),
(255,440,qs),
(292,440,o),
(340,410,o),
(343,385,q),
(322,385,l),
(320,371,o),
(320,365,qs),
(320,339,o),
(348,311,o),
(373,311,qs),
(394,311,o),
(423,341,o),
(423,363,qs),
(423,395,o),
(379,449,o),
(303,481,o),
(259,481,qs),
(196,481,o),
(91,414,o),
(30,298,o),
(30,228,qs),
(30,159,o),
(86,51,o),
(186,-10,o),
(250,-10,qs),
(310,-10,o),
(403,69,o),
(419,134,q)
);
}
);
width = 442;
}
);
note = c;
unicode = 99;
},
{
glyphname = d;
kernLeft = c;
kernRight = d;
layers = (
{
layerId = m01;
shapes = (
{
closed = 1;
nodes = (
(320,-10,o),
(393,104,qs),
(410,130,l),
(410,100,l),
(379,52,l),
(379,-6,l),
(554,18,l),
(516,35,ls),
(491,46,o),
(471,73,o),
(471,98,qs),
(471,725,l),
(297,683,l),
(333,668,ls),
(360,657,o),
(379,634,o),
(379,614,qs),
(379,459,l),
(337,480,o),
(276,480,qs),
(207,480,o),
(96,412,o),
(33,291,o),
(33,216,qs),
(33,151,o),
(83,48,o),
(171,-10,o),
(227,-10,qs)
);
},
{
closed = 1;
nodes = (
(133,329,o),
(213,440,o),
(278,440,qs),
(304,440,o),
(359,416,o),
(379,398,q),
(379,122,l),
(361,93,o),
(299,53,o),
(270,53,qs),
(209,53,o),
(133,157,o),
(133,239,qs)
);
}
);
width = 570;
}
);
note = d;
unicode = 100;
},
{
glyphname = e;
kernLeft = c;
kernRight = e;
layers = (
{
layerId = m01;
shapes = (
{
closed = 1;
nodes = (
(438,266,l),
(440,328,o),
(393,426,o),
(305,480,o),
(248,480,qs),
(190,480,o),
(89,412,o),
(30,296,o),
(30,229,qs),
(30,158,o),
(87,50,o),
(192,-10,o),
(260,-10,qs),
(323,-10,o),
(416,69,o),
(429,134,q),
(427,135,l),
(381,52,o),
(278,52,qs),
(235,52,o),
(168,101,o),
(128,190,o),
(127,247,q),
(95,247,l),
(95,266,l)
);
},
{
closed = 1;
nodes = (
(136,368,o),
(194,440,o),
(241,440,qs),
(284,440,o),
(340,362,o),
(340,301,q),
(129,301,l)
);
}
);
width = 473;
}
);
note = e;
unicode = 101;
},
{
glyphname = f;
kernLeft = f;
kernRight = f;
layers = (
{
layerId = m01;
shapes = (
{
closed = 1;
nodes = (
(94,95,ls),
(94,34,o),
(36,28,qs),
(15,26,l),
(15,0,l),
(262,0,l),
(262,26,l),
(239,28,ls),
(186,33,o),
(186,95,qs),
(186,411,l),
(152,411,l),
(152,430,l),
(314,430,l),
(314,470,l),
(186,470,l),
(186,571,ls),
(186,626,o),
(236,685,o),
(282,685,qs),
(309,685,o),
(338,668,o),
(338,652,q),
(318,652,l),
(317,647,o),
(317,637,qs),
(317,613,o),
(345,582,o),
(368,582,qs),
(389,582,o),
(416,611,o),
(416,633,qs),
(416,669,o),
(342,718,o),
(289,718,qs),
(232,718,o),
(143,663,o),
(94,564,o),
(94,500,qs),
(94,470,l),
(16,470,l),
(16,430,l),
(94,430,l)
);
}
);
width = 330;
}
);
note = f;
unicode = 102;
},
{
glyphname = g;
kernLeft = g;
kernRight = g;
layers = (
{
layerId = m01;
shapes = (
{
closed = 1;
nodes = (
(333,-242,o),
(477,-155,o),
(477,-81,qs),
(477,-29,o),
(403,23,o),
(323,27,qs),
(178,36,ls),
(110,40,o),
(110,76,qs),
(110,92,o),
(144,126,o),
(170,136,q),
(197,130,o),
(229,130,qs),
(282,130,o),
(370,177,o),
(421,259,o),
(421,308,qs),
(421,347,o),
(389,414,o),
(359,437,q),
(381,461,o),
(416,481,o),
(438,481,q),
(438,465,l),
(425,465,l),
(423,457,o),
(423,453,qs),
(423,436,o),
(449,411,o),
(468,411,qs),
(487,411,o),
(514,439,o),
(514,459,qs),
(514,484,o),
(477,518,o),
(448,518,qs),
(386,518,o),
(336,452,q),
(288,479,o),
(229,479,qs),
(175,479,o),
(87,432,o),
(36,351,o),
(36,302,qs),
(36,257,o),
(77,183,o),
(114,160,q),
(143,171,l),
(162,161,l),
(106,141,o),
(38,74,o),
(38,37,qs),
(38,-6,o),
(77,-28,q),
(112,-13,l),
(136,-20,l),
(116,-29,ls),
(46,-60,o),
(-4,-104,o),
(-4,-133,qs),
(-4,-186,o),
(106,-242,o),
(210,-242,qs)
);
},
{
closed = 1;
nodes = (
(72,-81,o),
(130,-49,q),
(146,-53,o),
(169,-55,qs),
(348,-68,ls),
(401,-71,o),
(401,-114,qs),
(401,-155,o),
(311,-202,o),
(231,-202,qs),
(156,-202,o),
(72,-159,o),
(72,-121,qs)
);
},
{
closed = 1;
nodes = (
(132,369,o),
(182,441,o),
(225,441,qs),
(271,441,o),
(325,365,o),
(325,300,qs),
(325,240,o),
(273,167,o),
(230,167,qs),
(185,167,o),
(132,243,o),
(132,308,qs)
);
}
);
width = 485;
}
);
note = g;
unicode = 103;
},
{
glyphname = h;
kernLeft = h;
kernRight = a;
layers = (
{
layerId = m01;
shapes = (
{
closed = 1;
nodes = (
(160,348,l),
(160,379,l),
(191,421,l),
(191,725,l),
(17,683,l),
(53,668,ls),
(80,658,o),
(99,635,o),
(99,613,qs),
(99,95,ls),
(99,34,o),
(41,28,qs),
(20,26,l),
(20,0,l),
(262,0,l),
(262,26,l),
(244,28,ls),
(191,34,o),
(191,95,qs),
(191,354,l),
(214,384,o),
(273,418,o),
(304,418,qs),
(347,418,o),
(394,369,o),
(394,325,qs),
(394,95,ls),
(394,34,o),
(341,28,qs),
(323,26,l),
(323,0,l),
(565,0,l),
(565,26,l),
(544,28,ls),
(486,34,o),
(486,95,qs),
(486,332,ls),
(486,402,o),
(413,481,o),
(348,481,qs),
(303,481,o),
(216,426,o),
(180,375,qs)
);
}
);
width = 581;
}
);
note = h;
unicode = 104;
},
{
glyphname = i;
kernLeft = i;
kernRight = d;
layers = (
{
layerId = m01;
shapes = (
{
closed = 1;
nodes = (
(99,575,l),
(197,575,l),
(197,674,l),
(99,674,l)
);
},
{
closed = 1;
nodes = (
(57,418,ls),
(86,404,o),
(103,384,o),
(103,364,qs),
(103,95,ls),
(103,34,o),
(45,28,qs),
(24,26,l),
(24,0,l),
(274,0,l),
(274,26,l),
(253,28,ls),
(195,34,o),
(195,95,qs),
(195,480,l),
(21,435,l)
);
}
);
width = 294;
}
);
note = i;
unicode = 105;
},
{
glyphname = j;
kernLeft = i;
kernRight = j;
layers = (
{
layerId = m01;
shapes = (
{
closed = 1;
nodes = (
(91,585,l),
(189,585,l),
(189,684,l),
(91,684,l)
);
},
{
closed = 1;
nodes = (
(-76,-190,o),
(-6,-236,o),
(43,-236,qs),
(107,-236,o),
(187,-164,o),
(187,-105,qs),
(187,480,l),
(13,435,l),
(49,418,ls),
(78,404,o),
(95,384,o),
(95,364,qs),
(95,-141,ls),
(95,-206,o),
(42,-206,qs),
(-4,-206,o),
(-4,-176,q),
(15,-176,l),
(18,-144,o),
(-7,-110,o),
(-32,-110,qs),
(-50,-110,o),
(-76,-138,o),
(-76,-158,qs)
);
}
);
width = 266;
}
);
note = j;
unicode = 106;
},
{
glyphname = k;
kernLeft = h;
kernRight = k;
layers = (
{
layerId = m01;
shapes = (
{
closed = 1;
nodes = (
(410,0,l),
(555,0,l),
(555,24,l),
(525,31,o),
(482,61,o),
(461,92,qs),
(315,302,l),
(386,371,ls),
(411,396,o),
(487,437,o),
(525,446,q),
(525,470,l),
(318,470,l),
(318,444,l),
(338,442,ls),
(369,439,o),
(369,417,qs),
(369,398,o),
(344,374,qs),
(164,199,l),
(164,223,l),
(191,251,l),
(191,725,l),
(17,683,l),
(53,668,ls),
(80,657,o),
(99,634,o),
(99,614,qs),
(99,95,ls),
(99,34,o),
(41,28,qs),
(20,26,l),
(20,0,l),
(270,0,l),
(270,26,l),
(249,28,ls),
(191,34,o),
(191,95,qs),
(191,181,l),
(250,239,l)
);
}
);
width = 560;
}
);
note = k;
unicode = 107;
},
{
glyphname = l;
kernLeft = h;
kernRight = d;
layers = (
{
layerId = m01;
shapes = (
{
closed = 1;
nodes = (
(99,95,ls),
(99,34,o),
(41,28,qs),
(20,26,l),
(20,0,l),
(270,0,l),
(270,26,l),
(249,28,ls),
(191,34,o),
(191,95,qs),
(191,725,l),
(17,683,l),
(53,668,ls),
(80,657,o),
(99,634,o),
(99,614,qs)
);
}
);
width = 290;
}
);
note = l;
unicode = 108;
},
{
glyphname = m;
kernLeft = m;
kernRight = a;
layers = (
{
layerId = m01;
shapes = (
{
closed = 1;
nodes = (
(24,26,l),
(24,0,l),
(266,0,l),
(266,26,l),
(248,28,ls),
(195,34,o),
(195,95,qs),
(195,353,l),
(216,384,o),
(275,418,o),
(306,418,qs),
(348,418,o),
(394,369,o),
(394,325,qs),
(394,95,ls),
(394,34,o),
(341,28,qs),
(323,26,l),
(323,0,l),
(565,0,l),
(565,26,l),
(544,28,ls),
(486,34,o),
(486,95,qs),
(486,327,ls),
(486,343,o),
(485,347,q),
(508,381,o),
(567,418,o),
(597,418,qs),
(639,418,o),
(685,369,o),
(685,325,qs),
(685,95,ls),
(685,34,o),
(632,28,qs),
(614,26,l),
(614,0,l),
(856,0,l),
(856,26,l),
(835,28,ls),
(777,34,o),
(777,95,qs),
(777,332,ls),
(777,403,o),
(705,481,o),
(641,481,qs),
(594,481,o),
(503,423,o),
(469,371,qs),
(451,344,l),
(451,375,l),
(470,404,l),
(457,441,o),
(394,481,o),
(350,481,qs),
(304,481,o),
(219,425,o),
(181,372,qs),
(164,348,l),
(164,379,l),
(195,422,l),
(195,480,l),
(21,435,l),
(57,418,ls),
(86,404,o),
(103,384,o),
(103,364,qs),
(103,95,ls),
(103,34,o),
(45,28,qs)
);
}
);
width = 872;
}
);
note = m;
unicode = 109;
},
{
glyphname = n;
kernLeft = m;
kernRight = a;
layers = (
{
layerId = m01;
shapes = (
{
closed = 1;
nodes = (
(103,95,ls),
(103,34,o),
(45,28,qs),
(24,26,l),
(24,0,l),
(266,0,l),
(266,26,l),
(248,28,ls),
(195,34,o),
(195,95,qs),
(195,354,l),
(218,384,o),
(277,418,o),
(308,418,qs),
(351,418,o),
(398,369,o),
(398,325,qs),
(398,95,ls),
(398,34,o),
(345,28,qs),
(327,26,l),
(327,0,l),
(569,0,l),
(569,26,l),
(548,28,ls),
(490,34,o),
(490,95,qs),
(490,332,ls),
(490,402,o),
(417,481,o),
(352,481,qs),
(307,481,o),
(220,426,o),
(184,375,qs),
(164,348,l),
(164,379,l),
(195,421,l),
(195,480,l),
(21,435,l),
(57,418,ls),
(86,404,o),
(103,384,o),
(103,364,qs)
);
}
);
width = 585;
}
);
note = n;
unicode = 110;
},
{
glyphname = o;
kernLeft = c;
kernRight = b;
layers = (
{
layerId = m01;
shapes = (
{
closed = 1;
nodes = (
(194,481,o),
(90,415,o),
(30,301,o),
(30,232,qs),
(30,163,o),
(89,52,o),
(193,-11,o),
(258,-11,qs),
(321,-11,o),
(426,55,o),
(486,169,o),
(486,238,qs),
(486,307,o),
(427,418,o),
(323,481,o),
(258,481,qs)
);
},
{
closed = 1;
nodes = (
(130,338,o),
(195,439,o),
(252,439,qs),
(313,439,o),
(386,320,o),
(386,220,qs),
(386,132,o),
(320,31,o),
(262,31,qs),
(202,31,o),
(130,150,o),
(130,250,qs)
);
}
);
width = 516;
}
);
note = o;
unicode = 111;
},
{
glyphname = p;
kernLeft = p;
kernRight = b;
layers = (
{
layerId = m01;
shapes = (
{
closed = 1;
nodes = (
(270,-204,l),
(249,-202,ls),
(191,-196,o),
(191,-135,qs),
(191,12,l),
(233,-9,o),
(294,-9,qs),
(363,-9,o),
(474,59,o),
(537,180,o),
(537,255,qs),
(537,320,o),
(487,423,o),
(399,481,o),
(343,481,qs),
(297,481,o),
(216,426,o),
(178,369,qs),
(160,342,l),
(160,375,l),
(191,418,l),
(191,480,l),
(17,435,l),
(53,418,ls),
(82,404,o),
(99,384,o),
(99,364,qs),
(99,-135,ls),
(99,-196,o),
(41,-202,qs),
(20,-204,l),
(20,-230,l),
(270,-230,l)
);
},
{
closed = 1;
nodes = (
(191,348,l),
(211,380,o),
(269,418,o),
(300,418,qs),
(361,418,o),
(437,314,o),
(437,232,qs),
(437,142,o),
(357,31,o),
(292,31,qs),
(266,31,o),
(211,55,o),
(191,73,q)
);
}
);
width = 567;
}
);
note = p;
unicode = 112;
},
{
glyphname = q;
kernLeft = c;
kernRight = q;
layers = (
{
layerId = m01;
shapes = (
{
closed = 1;
nodes = (
(410,127,l),
(410,96,l),
(379,48,l),
(379,-135,ls),
(379,-196,o),
(321,-202,qs),
(300,-204,l),
(300,-230,l),
(550,-230,l),
(550,-204,l),
(529,-202,ls),
(471,-196,o),
(471,-135,qs),
(471,485,l),
(393,447,l),
(343,480,o),
(276,480,qs),
(207,480,o),
(96,412,o),
(33,291,o),
(33,216,qs),
(33,151,o),
(83,48,o),
(171,-10,o),
(227,-10,qs),
(319,-10,o),
(390,97,qs)
);
},
{
closed = 1;
nodes = (
(133,329,o),
(213,440,o),
(278,440,qs),
(303,440,o),
(357,419,o),
(379,402,q),
(379,123,l),
(361,93,o),
(299,53,o),
(270,53,qs),
(209,53,o),
(133,157,o),
(133,239,qs)
);
}
);
width = 550;
}
);
note = q;
unicode = 113;
},
{
glyphname = r;
kernLeft = m;
kernRight = r;
layers = (
{
layerId = m01;
shapes = (
{
closed = 1;
nodes = (
(103,95,ls),
(103,34,o),
(45,28,qs),
(24,26,l),
(24,0,l),
(274,0,l),
(274,26,l),
(250,28,ls),
(195,32,o),
(195,95,qs),
(195,315,l),
(211,364,o),
(290,444,o),
(333,442,q),
(333,425,l),
(319,425,l),
(316,423,o),
(310,410,o),
(310,404,qs),
(310,381,o),
(344,350,o),
(365,350,qs),
(388,350,o),
(421,383,o),
(421,411,qs),
(421,440,o),
(378,483,o),
(341,483,qs),
(291,483,o),
(197,389,o),
(170,313,q),
(170,355,l),
(175,366,o),
(189,396,o),
(195,406,q),
(195,480,l),
(21,435,l),
(57,418,ls),
(86,404,o),
(103,384,o),
(103,364,qs)
);
}
);
width = 433;
}
);
note = r;
unicode = 114;
},
{
glyphname = s;
kernLeft = s;
kernRight = s;
layers = (
{
layerId = m01;
shapes = (
{
closed = 1;
nodes = (
(224,437,o),
(289,386,o),
(310,339,qs),
(325,306,l),
(359,306,l),
(357,483,l),
(292,458,l),
(308,446,o),
(322,430,q),
(322,401,l),
(293,439,o),
(225,478,o),
(181,478,qs),
(119,478,o),
(38,402,o),
(38,339,qs),
(38,296,o),
(89,233,o),
(137,215,qs),
(237,177,ls),
(271,164,o),
(306,130,o),
(306,106,qs),
(306,73,o),
(258,35,o),
(217,35,qs),
(173,35,o),
(105,85,o),
(82,132,qs),
(64,169,l),
(30,169,l),
(33,-14,l),
(99,18,l),
(87,29,o),
(72,45,q),
(72,73,l),
(104,33,o),
(177,-8,o),
(224,-8,qs),
(266,-8,o),
(339,28,o),
(383,94,o),
(383,137,qs),
(383,219,o),
(288,256,qs),
(172,302,ls),
(114,326,o),
(114,373,qs),
(114,402,o),
(153,437,o),
(184,437,qs)
);
}
);
width = 409;
}
);
note = s;
unicode = 115;
},
{
glyphname = t;
kernLeft = t;
kernRight = t;
layers = (
{
layerId = m01;
shapes = (
{
closed = 1;
nodes = (
(174,411,l),
(140,411,l),
(140,430,l),
(306,430,l),
(306,470,l),
(174,470,l),
(174,637,l),
(146,578,o),
(46,461,o),
(-1,430,q),
(82,430,l),
(82,91,ls),
(82,47,o),
(138,-8,o),
(181,-8,qs),
(284,-8,o),
(311,121,q),
(308,122,l),
(294,89,o),
(254,57,o),
(226,57,qs),
(203,57,o),
(174,84,o),
(174,107,qs)
);
}
);
width = 328;
}
);
note = t;
unicode = 116;
},
{
glyphname = u;
kernLeft = u;
kernRight = a;
layers = (
{
layerId = m01;
shapes = (
{
closed = 1;
nodes = (
(187,480,l),
(13,435,l),
(49,418,ls),
(78,404,o),
(95,384,o),
(95,364,qs),
(95,139,ls),
(95,70,o),
(167,-10,o),
(233,-10,qs),
(328,-10,o),
(402,97,qs),
(421,124,l),
(421,93,l),
(390,50,l),
(390,-6,l),
(565,18,l),
(527,35,ls),
(502,46,o),
(482,73,o),
(482,98,qs),
(482,480,l),
(308,435,l),
(344,418,ls),
(373,404,o),
(390,384,o),
(390,364,qs),
(390,118,l),
(371,90,o),
(312,53,o),
(277,53,qs),
(232,53,o),
(187,104,o),
(187,146,qs)
);
}
);
width = 581;
}
);
note = u;
unicode = 117;
},
{
glyphname = v;
kernLeft = v;
kernRight = v;
layers = (
{
layerId = m01;
shapes = (
{
closed = 1;
nodes = (
(284,89,l),
(274,110,l),
(289,142,l),
(184,377,ls),
(178,392,o),
(178,403,qs),
(178,436,o),
(220,442,qs),
(235,444,l),
(235,470,l),
(7,470,l),
(7,445,l),
(34,439,o),
(69,408,o),
(84,376,qs),
(273,-29,l),
(275,-29,l),
(463,368,ls),
(493,432,o),
(543,445,q),
(543,470,l),
(354,470,l),
(354,444,l),
(369,442,ls),
(418,435,o),
(418,395,qs),
(418,376,o),
(406,349,qs)
);
}
);
width = 548;
}
);
note = v;
unicode = 118;
},
{
glyphname = w;
kernLeft = v;
kernRight = v;
layers = (
{
layerId = m01;
shapes = (
{
closed = 1;
nodes = (
(277,154,l),
(186,376,ls),
(180,391,o),
(180,403,qs),
(180,435,o),
(216,441,qs),
(232,443,l),
(232,470,l),
(10,470,l),
(10,445,l),
(39,438,o),
(74,407,o),
(87,375,qs),
(260,-28,l),
(262,-28,l),
(391,274,l),
(521,-28,l),
(523,-28,l),
(691,368,ls),
(704,398,o),
(745,438,o),
(771,445,q),
(771,470,l),
(585,470,l),
(585,443,l),
(601,441,ls),
(649,435,o),
(649,396,qs),
(649,378,o),
(637,349,qs),
(532,100,l),
(521,122,l),
(536,157,l),
(447,376,ls),
(441,391,o),
(441,403,qs),
(441,418,o),
(460,438,o),
(478,441,qs),
(493,443,l),
(493,470,l),
(282,470,l),
(282,445,l),
(305,440,o),
(335,409,o),
(349,375,qs),
(370,328,l),
(273,96,l),
(262,119,l)
);
}
);
width = 782;
}
);
note = w;
unicode = 119;
},
{
glyphname = x;
kernLeft = x;
kernRight = k;
layers = (
{
layerId = m01;
shapes = (
{
closed = 1;
nodes = (
(209,385,ls),
(197,400,o),
(197,414,qs),
(197,425,o),
(212,440,o),
(226,441,qs),
(241,443,l),
(241,470,l),
(24,470,l),
(24,443,l),
(50,434,o),
(84,406,o),
(109,373,qs),
(224,223,l),
(112,95,ls),
(79,58,o),
(40,30,o),
(12,27,q),
(12,0,l),
(196,0,l),
(196,27,l),
(178,28,ls),
(161,29,o),
(144,43,o),
(144,54,qs),
(144,71,o),
(160,88,qs),
(272,216,l),
(285,201,l),
(262,174,l),
(328,84,ls),
(338,70,o),
(338,57,qs),
(338,45,o),
(319,29,o),
(301,28,qs),
(284,27,l),
(284,0,l),
(520,0,l),
(520,27,l),
(492,31,o),
(459,58,o),
(431,96,qs),
(307,264,l),
(410,373,ls),
(445,410,o),
(482,437,o),
(509,443,q),
(509,470,l),
(334,470,l),
(334,443,l),
(352,441,ls),
(367,440,o),
(383,425,o),
(383,415,qs),
(383,398,o),
(366,381,qs),
(259,270,l),
(246,284,l),
(270,310,l)
);
}
);
width = 531;
}
);
note = x;
unicode = 120;
},
{
glyphname = y;
kernLeft = v;
kernRight = v;
layers = (
{
layerId = m01;
shapes = (
{
closed = 1;
nodes = (
(236,6,l),
(201,-67,ls),
(169,-135,o),
(113,-194,o),
(80,-194,qs),
(67,-194,l),
(67,-179,l),
(79,-179,l),
(82,-178,o),
(87,-165,o),
(87,-159,qs),
(87,-139,o),
(57,-110,o),
(37,-110,qs),
(15,-110,o),
(-13,-140,o),
(-13,-163,qs),
(-13,-194,o),
(33,-233,o),
(68,-233,qs),
(117,-233,o),
(193,-175,o),
(222,-115,qs),
(456,368,ls),
(487,432,o),
(536,445,q),
(536,470,l),
(347,470,l),
(347,444,l),
(362,442,ls),
(412,434,o),
(412,395,qs),
(412,375,o),
(399,349,qs),
(272,82,l),
(261,103,l),
(276,136,l),
(182,377,ls),
(177,388,o),
(177,403,qs),
(177,436,o),
(218,442,qs),
(233,444,l),
(233,470,l),
(5,470,l),
(5,445,l),
(34,438,o),
(69,407,o),
(82,376,qs)
);
}
);
width = 541;
}
);
note = y;
unicode = 121;
},
{
glyphname = z;
kernLeft = z;
kernRight = z;
layers = (
{
layerId = m01;
shapes = (
{
closed = 1;
nodes = (
(296,414,l),
(15,0,l),
(419,0,l),
(439,189,l),
(408,189,l),
(397,149,ls),
(381,93,o),
(312,38,o),
(256,38,qs),
(118,38,l),
(130,56,l),
(160,56,l),
(441,470,l),
(42,470,l),
(36,286,l),
(66,286,l),
(81,338,ls),
(95,387,o),
(159,432,o),
(214,432,qs),
(338,432,l),
(326,414,l)
);
}
);
width = 459;
}
);
note = z;
unicode = 122;
},
{
glyphname = braceleft;
layers = (
{
layerId = m01;
shapes = (
{
closed = 1;
nodes = (
(30,261,l),
(148,265,o),
(272,358,o),
(272,430,qs),
(272,466,o),
(258,500,qs),
(248,525,ls),
(224,587,o),
(224,629,qs),
(224,677,o),
(290,725,o),
(358,727,q),
(355,750,l),
(243,750,o),
(123,667,o),
(123,589,qs),
(123,539,o),
(146,483,qs),
(154,463,ls),
(172,416,o),
(172,386,qs),
(172,343,o),
(105,288,o),
(30,273,q)
);
},
{
closed = 1;
nodes = (
(132,229,o),
(172,181,o),
(172,149,qs),
(172,118,o),
(154,71,qs),
(146,51,ls),
(123,-5,o),
(123,-55,qs),
(123,-133,o),
(243,-216,o),
(355,-216,q),
(358,-193,l),
(290,-191,o),
(224,-143,o),
(224,-95,qs),
(224,-53,o),
(248,9,qs),
(255,27,ls),
(271,68,o),
(271,106,qs),
(271,158,o),
(207,236,o),
(140,256,q),
(87,248,l)
);
}
);
width = 383;
}
);
note = braceleft;
unicode = 123;
},
{
glyphname = bar;
layers = (
{
layerId = m01;
shapes = (
{
closed = 1;
nodes = (
(208,700,l),
(162,700,l),
(162,-231,l),
(208,-231,l)
);
}
);
width = 370;
}
);
note = bar;
unicode = 124;
},
{
glyphname = braceright;
layers = (
{
layerId = m01;
shapes = (
{
closed = 1;
nodes = (
(353,273,l),
(235,269,o),
(111,176,o),
(111,104,qs),
(111,68,o),
(125,34,qs),
(135,9,ls),
(159,-53,o),
(159,-95,qs),
(159,-143,o),
(93,-191,o),
(25,-193,q),
(28,-216,l),
(140,-216,o),
(260,-133,o),
(260,-55,qs),
(260,-5,o),
(237,51,qs),
(229,71,ls),
(211,118,o),
(211,148,qs),
(211,191,o),
(278,246,o),
(353,261,q)
);
},
{
closed = 1;
nodes = (
(93,725,o),
(159,677,o),
(159,629,qs),
(159,587,o),
(135,525,qs),
(128,507,ls),
(112,466,o),
(112,428,qs),
(112,376,o),
(176,298,o),
(243,278,q),
(296,286,l),
(251,305,o),
(211,353,o),
(211,385,qs),
(211,416,o),
(229,463,qs),
(237,483,ls),
(260,539,o),
(260,589,qs),
(260,667,o),
(140,750,o),
(28,750,q),
(25,727,l)
);
}
);
width = 383;
}
);
note = braceright;
unicode = 125;
},
{
glyphname = asciitilde;
layers = (
{
layerId = m01;
shapes = (
{
closed = 1;
nodes = (
(516,389,l),
(491,352,o),
(450,325,o),
(424,325,qs),
(403,325,o),
(350,339,o),
(307,354,qs),
(254,372,o),
(186,390,o),
(154,390,qs),
(111,390,o),
(53,321,o),
(30,245,q),
(34,245,l),
(59,282,o),
(100,310,o),
(126,310,qs),
(150,310,o),
(209,294,o),
(254,279,qs),
(302,262,o),
(367,245,o),
(396,245,qs),
(439,245,o),
(497,314,o),
(520,389,q)
);
}
);
width = 550;
}
);
note = asciitilde;
unicode = 126;
},
{
glyphname = exclamdown;
layers = (
{
layerId = m01;
shapes = (
{
closed = 1;
nodes = (
(176,587,l),
(176,700,l),
(64,700,l),
(64,587,l)
);
},
{
closed = 1;
nodes = (
(63,28,o),
(96,-12,o),
(120,-12,qs),
(144,-12,o),
(177,28,o),
(173,59,qs),
(121,513,l),
(119,513,l),
(67,59,ls)
);
}
);
width = 240;
}
);
note = exclamdown;
unicode = 161;
},
{
glyphname = cent;
layers = (
{
layerId = m01;
shapes = (
{
closed = 1;
nodes = (
(101,-100,l),
(139,-100,l),
(306,430,l),
(322,423,o),
(342,400,o),
(343,385,q),
(322,385,l),
(320,371,o),
(320,365,qs),
(320,339,o),
(348,311,o),
(373,311,qs),
(394,311,o),
(423,341,o),
(423,363,qs),
(423,400,o),
(366,459,o),
(319,473,q),
(347,560,l),
(311,560,l),
(285,479,l),
(269,481,o),
(259,481,qs),
(196,481,o),
(91,414,o),
(30,298,o),
(30,228,qs),
(30,158,o),
(88,49,o),
(139,19,q)
);
},
{
closed = 1;
nodes = (
(128,342,o),
(196,440,o),
(255,440,qs),
(267,440,o),
(273,439,q),
(169,111,l),
(128,168,o),
(128,255,qs)
);
},
{
closed = 1;
nodes = (
(215,-10,o),
(250,-10,qs),
(310,-10,o),
(403,69,o),
(419,134,q),
(417,135,l),
(389,91,o),
(322,53,o),
(277,53,qs),
(243,53,o),
(214,68,q),
(191,-2,l)
);
}
);
width = 442;
}
);
note = cent;
unicode = 162;
},
{
glyphname = sterling;
layers = (
{
layerId = m01;
shapes = (
{
closed = 1;
nodes = (
(173,318,l),
(198,239,ls),
(212,189,o),
(212,150,qs),
(212,136,o),
(211,129,q),
(161,145,o),
(122,145,qs),
(79,145,o),
(25,100,o),
(25,65,qs),
(25,31,o),
(72,-11,o),
(109,-11,qs),
(143,-11,o),
(206,23,o),
(230,52,q),
(275,21,o),
(338,-11,o),
(371,-11,qs),
(428,-11,o),
(503,80,o),
(517,164,q),
(511,165,l),
(495,125,o),
(435,81,o),
(395,81,qs),
(355,81,o),
(289,103,q),
(284,90,o),
(276,77,q),
(254,89,l),
(288,152,o),
(288,228,qs),
(288,273,o),
(277,311,qs),
(268,344,l),
(414,344,l),
(414,386,l),
(257,386,l),
(233,474,ls),
(222,511,o),
(222,549,qs),
(222,605,o),
(279,668,o),
(331,668,qs),
(368,668,o),
(418,630,o),
(418,602,q),
(390,602,l),
(389,597,o),
(389,587,qs),
(389,558,o),
(421,523,o),
(447,523,qs),
(469,523,o),
(499,558,o),
(499,584,qs),
(499,618,o),
(455,673,o),
(378,705,o),
(331,705,qs),
(237,705,o),
(123,604,o),
(123,518,qs),
(123,473,o),
(139,425,qs),
(152,386,l),
(48,386,l),
(48,344,l),
(203,344,l),
(212,318,l)
);
},
{
closed = 1;
nodes = (
(58,86,o),
(87,112,o),
(109,112,qs),
(128,112,o),
(170,93,o),
(196,76,q),
(183,51,o),
(139,23,o),
(111,23,qs),
(87,23,o),
(58,47,o),
(58,67,qs)
);
}
);
width = 540;
}
);
note = sterling;
unicode = 163;
},
{
glyphname = fraction;
layers = (
{
layerId = m01;
shapes = (
{
closed = 1;
nodes = (
(535,700,l),
(489,700,l),
(39,0,l),
(85,0,l)
);
}
);
width = 574;
}
);
note = fraction;
unicode = 8260;
},
{
glyphname = yen;
layers = (
{
layerId = m01;
shapes = (
{
closed = 1;
nodes = (
(511,29,l),
(488,31,ls),
(417,37,o),
(417,105,qs),
(417,178,l),
(584,178,l),
(584,220,l),
(417,220,l),
(417,246,l),
(584,246,l),
(584,288,l),
(417,288,l),
(417,311,l),
(610,599,ls),
(632,632,o),
(672,667,o),
(695,673,q),
(695,700,l),
(486,700,l),
(486,671,l),
(503,669,ls),
(558,663,o),
(558,623,qs),
(558,598,o),
(536,566,qs),
(387,340,l),
(223,588,ls),
(208,612,o),
(208,630,qs),
(208,646,o),
(228,666,o),
(247,668,qs),
(272,671,l),
(272,700,l),
(21,700,l),
(21,673,l),
(42,669,o),
(77,640,o),
(95,613,qs),
(313,288,l),
(147,288,l),
(147,246,l),
(314,246,l),
(314,220,l),
(147,220,l),
(147,178,l),
(354,178,l),
(354,152,l),
(314,152,l),
(314,105,ls),
(314,37,o),
(243,31,qs),
(220,29,l),
(220,0,l),
(511,0,l)
);
}
);
width = 716;
}
);
note = yen;
unicode = 165;
},
{
glyphname = quotesingle;
kernLeft = quotedbl;
kernRight = quotedbl;
layers = (
{
layerId = m01;
shapes = (
{
closed = 1;
nodes = (
(120,452,l),
(171,621,ls),
(175,633,o),
(175,648,qs),
(175,675,o),
(145,711,o),
(121,711,qs),
(96,711,o),
(65,675,o),
(65,648,qs),
(65,633,o),
(69,621,qs)
);
}
);
width = 240;
}
);
note = quotesingle;
unicode = 39;
},
{
glyphname = quotedblleft;
kernLeft = quotedbl;
kernRight = quotedbl;
layers = (
{
layerId = m01;
shapes = (
{
closed = 1;
nodes = (
(197,707,l),
(133,685,o),
(56,591,o),
(56,535,qs),
(56,497,o),
(93,451,o),
(124,451,qs),
(150,451,o),
(185,485,o),
(185,511,qs),
(185,534,o),
(154,567,o),
(132,567,qs),
(126,567,o),
(116,565,o),
(113,563,q),
(113,539,l),
(97,539,l),
(97,558,ls),
(97,600,o),
(153,679,o),
(201,701,q)
);
},
{
closed = 1;
nodes = (
(214,497,o),
(251,451,o),
(282,451,qs),
(308,451,o),
(343,485,o),
(343,511,qs),
(343,534,o),
(312,567,o),
(290,567,qs),
(284,567,o),
(274,565,o),
(271,563,q),
(271,539,l),
(255,539,l),
(255,558,ls),
(255,600,o),
(311,679,o),
(359,701,q),
(355,707,l),
(291,685,o),
(214,591,o),
(214,535,qs)
);
}
);
width = 396;
}
);
note = quotedblleft;
unicode = 8220;
},
{
glyphname = guillemotleft;
layers = (
{
layerId = m01;
shapes = (
{
closed = 1;
nodes = (
(306,-4,l),
(174,235,l),
(306,474,l),
(306,480,l),
(60,235,l),
(306,-10,l)
);
},
{
closed = 1;
nodes = (
(506,-10,l),
(506,-4,l),
(374,235,l),
(506,474,l),
(506,480,l),
(260,235,l)
);
}
);
width = 580;
}
);
note = guillemotleft;
unicode = 171;
},
{
glyphname = guilsinglleft;
layers = (
{
layerId = m01;
shapes = (
{
closed = 1;
nodes = (
(306,-4,l),
(174,235,l),
(306,474,l),
(306,480,l),
(60,235,l),
(306,-10,l)
);
}
);
width = 380;
}
);
note = guilsinglleft;
unicode = 8249;
},
{
glyphname = guilsinglright;
layers = (
{
layerId = m01;
shapes = (
{
closed = 1;
nodes = (
(74,474,l),
(206,235,l),
(74,-4,l),
(74,-10,l),
(320,235,l),
(74,480,l)
);
}
);
width = 380;
}
);
note = guilsinglright;
unicode = 8250;
},
{
glyphname = fi;
kernLeft = f;
kernRight = d;
layers = (
{
layerId = m01;
shapes = (
{
closed = 1;
nodes = (
(94,95,ls),
(94,34,o),
(36,28,qs),
(15,26,l),
(15,0,l),
(262,0,l),
(262,26,l),
(239,28,ls),
(186,33,o),
(186,95,qs),
(186,411,l),
(152,411,l),
(152,430,l),
(314,430,l),
(314,470,l),
(186,470,l),
(186,571,ls),
(186,626,o),
(236,685,o),
(282,685,qs),
(309,685,o),
(338,668,o),
(338,652,q),
(318,652,l),
(317,647,o),
(317,637,qs),
(317,613,o),
(345,582,o),
(368,582,qs),
(389,582,o),
(416,611,o),
(416,633,qs),
(416,669,o),
(342,718,o),
(289,718,qs),
(232,718,o),
(143,663,o),
(94,564,o),
(94,500,qs),
(94,470,l),
(16,470,l),
(16,430,l),
(94,430,l)
);
},
{
closed = 1;
nodes = (
(387,418,ls),
(416,404,o),
(433,384,o),
(433,364,qs),
(433,95,ls),
(433,34,o),
(375,28,qs),
(354,26,l),
(354,0,l),
(604,0,l),
(604,26,l),
(583,28,ls),
(525,34,o),
(525,95,qs),
(525,480,l),
(351,435,l)
);
},
{
closed = 1;
nodes = (
(527,575,l),
(527,674,l),
(429,674,l),
(429,575,l)
);
}
);
width = 624;
}
);
note = fi;
unicode = 64257;
},
{
glyphname = fl;
kernLeft = f;
kernRight = d;
layers = (
{
layerId = m01;
shapes = (
{
closed = 1;
nodes = (
(94,95,ls),
(94,34,o),
(36,28,qs),
(15,26,l),
(15,0,l),
(262,0,l),
(262,26,l),
(239,28,ls),
(186,33,o),
(186,95,qs),
(186,411,l),
(152,411,l),
(152,430,l),
(314,430,l),
(314,470,l),
(186,470,l),
(186,571,ls),
(186,626,o),
(236,685,o),
(282,685,qs),
(309,685,o),
(338,668,o),
(338,652,q),
(318,652,l),
(317,647,o),
(317,637,qs),
(317,613,o),
(345,582,o),
(368,582,qs),
(389,582,o),
(416,611,o),
(416,633,qs),
(416,643,o),
(413,652,q),
(422,645,o),
(429,627,o),
(429,614,qs),
(429,95,ls),
(429,34,o),
(371,28,qs),
(350,26,l),
(350,0,l),
(600,0,l),
(600,26,l),
(579,28,ls),
(521,34,o),
(521,95,qs),
(521,725,l),
(382,691,l),
(345,718,o),
(289,718,qs),
(232,718,o),
(143,663,o),
(94,564,o),
(94,500,qs),
(94,470,l),
(16,470,l),
(16,430,l),
(94,430,l)
);
}
);
width = 620;
}
);
note = fl;
unicode = 64258;
},
{
glyphname = endash;
kernLeft = plus;
kernRight = plus;
layers = (
{
layerId = m01;
shapes = (
{
closed = 1;
nodes = (
(35,335,l),
(35,295,l),
(483,295,l),
(483,335,l)
);
}
);
width = 518;
}
);
note = endash;
unicode = 8211;
},
{
glyphname = dagger;
layers = (
{
layerId = m01;
shapes = (
{
closed = 1;
nodes = (
(320,356,o),
(298,442,o),
(298,474,qs),
(298,500,ls),
(298,530,o),
(306,580,o),
(314,611,qs),
(322,649,o),
(322,658,qs),
(322,678,o),
(302,700,o),
(285,700,qs),
(268,700,o),
(248,678,o),
(248,658,qs),
(248,649,o),
(256,611,qs),
(264,580,o),
(272,530,o),
(272,500,qs),
(272,474,ls),
(272,442,o),
(250,356,o),
(233,320,q),
(269,118,o),
(282,-231,q),
(288,-231,l),
(301,118,o),
(337,320,q)
);
},
{
closed = 1;
nodes = (
(72,470,o),
(94,450,o),
(114,450,qs),
(126,450,o),
(160,459,qs),
(213,474,o),
(252,477,q),
(254,487,o),
(252,497,q),
(213,500,o),
(160,515,qs),
(126,524,o),
(114,524,qs),
(94,524,o),
(72,504,o),
(72,487,qs)
);
},
{
closed = 1;
nodes = (
(357,474,o),
(410,459,qs),
(444,450,o),
(456,450,qs),
(476,450,o),
(498,470,o),
(498,487,qs),
(498,504,o),
(476,524,o),
(456,524,qs),
(444,524,o),
(410,515,qs),
(357,500,o),
(318,497,q),
(316,487,o),
(318,477,q)
);
}
);
width = 570;
}
);
note = dagger;
unicode = 8224;
},
{
glyphname = daggerdbl;
layers = (
{
layerId = m01;
shapes = (
{
closed = 1;
nodes = (
(298,236,ls),
(298,276,o),
(324,341,o),
(347,365,q),
(326,385,o),
(298,444,o),
(298,474,qs),
(298,500,ls),
(298,530,o),
(306,580,o),
(314,611,qs),
(322,649,o),
(322,658,qs),
(322,678,o),
(302,700,o),
(285,700,qs),
(268,700,o),
(248,678,o),
(248,658,qs),
(248,649,o),
(256,611,qs),
(264,580,o),
(272,530,o),
(272,500,qs),
(272,474,ls),
(272,444,o),
(244,385,o),
(223,365,q),
(246,341,o),
(272,276,o),
(272,236,qs),
(272,233,ls),
(272,193,o),
(246,128,o),
(223,104,q),
(244,84,o),
(272,25,o),
(272,-5,qs),
(272,-31,ls),
(272,-61,o),
(264,-111,o),
(256,-142,qs),
(248,-180,o),
(248,-189,qs),
(248,-209,o),
(268,-231,o),
(285,-231,qs),
(302,-231,o),
(322,-209,o),
(322,-189,qs),
(322,-180,o),
(314,-142,qs),
(306,-111,o),
(298,-61,o),
(298,-31,qs),
(298,-5,ls),
(298,25,o),
(326,84,o),
(347,104,q),
(324,128,o),
(298,193,o),
(298,233,qs)
);
},
{
closed = 1;
nodes = (
(72,-35,o),
(94,-55,o),
(114,-55,qs),
(126,-55,o),
(160,-46,qs),
(213,-31,o),
(252,-28,q),
(254,-18,o),
(252,-8,q),
(213,-5,o),
(160,10,qs),
(126,19,o),
(114,19,qs),
(94,19,o),
(72,-1,o),
(72,-18,qs)
);
},
{
closed = 1;
nodes = (
(72,470,o),
(94,450,o),
(114,450,qs),
(126,450,o),
(160,459,qs),
(213,474,o),
(252,477,q),
(254,487,o),
(252,497,q),
(213,500,o),
(160,515,qs),
(126,524,o),
(114,524,qs),
(94,524,o),
(72,504,o),
(72,487,qs)
);
},
{
closed = 1;
nodes = (
(357,-31,o),
(410,-46,qs),
(444,-55,o),
(456,-55,qs),
(476,-55,o),
(498,-35,o),
(498,-18,qs),
(498,-1,o),
(476,19,o),
(456,19,qs),
(444,19,o),
(410,10,qs),
(357,-5,o),
(318,-8,q),
(316,-18,o),
(318,-28,q)
);
},
{
closed = 1;
nodes = (
(357,474,o),
(410,459,qs),
(444,450,o),
(456,450,qs),
(476,450,o),
(498,470,o),
(498,487,qs),
(498,504,o),
(476,524,o),
(456,524,qs),
(444,524,o),
(410,515,qs),
(357,500,o),
(318,497,q),
(316,487,o),
(318,477,q)
);
}
);
width = 570;
}
);
note = daggerdbl;
unicode = 8225;
},
{
glyphname = periodcentered;
layers = (
{
layerId = m01;
shapes = (
{
closed = 1;
nodes = (
(64,407,l),
(64,294,l),
(176,294,l),
(176,407,l)
);
}
);
width = 240;
}
);
note = periodcentered;
unicode = 183;
},
{
glyphname = paragraph;
layers = (
{
layerId = m01;
shapes = (
{
closed = 1;
nodes = (
(432,659,l),
(432,-250,l),
(493,-250,l),
(493,595,ls),
(493,663,o),
(564,669,qs),
(587,671,l),
(587,700,l),
(293,700,ls),
(208,700,o),
(85,642,o),
(20,537,o),
(20,467,qs),
(20,395,o),
(86,285,o),
(209,223,o),
(292,223,q),
(292,-250,l),
(353,-250,l),
(353,624,l),
(310,624,l),
(310,659,l)
);
}
);
width = 617;
}
);
note = paragraph;
unicode = 182;
},
{
glyphname = bullet;
layers = (
{
layerId = m01;
shapes = (
{
closed = 1;
nodes = (
(64,426,l),
(64,274,l),
(215,274,l),
(215,426,l)
);
}
);
width = 279;
}
);
note = bullet;
unicode = 8226;
},
{
glyphname = quotesinglbase;
kernLeft = comma;
kernRight = comma;
layers = (
{
layerId = m01;
shapes = (
{
closed = 1;
nodes = (
(41,-141,l),
(105,-119,o),
(182,-25,o),
(182,31,qs),
(182,69,o),
(145,115,o),
(114,115,qs),
(88,115,o),
(53,81,o),
(53,55,qs),
(53,32,o),
(84,-1,o),
(106,-1,qs),
(112,-1,o),
(122,1,o),
(125,3,q),
(125,27,l),
(141,27,l),
(141,8,ls),
(141,-34,o),
(85,-113,o),
(37,-135,q)
);
}
);
width = 238;
}
);
note = quotesinglbase;
unicode = 8218;
},
{
glyphname = quotedblbase;
kernLeft = comma;
kernRight = comma;
layers = (
{
layerId = m01;
shapes = (
{
closed = 1;
nodes = (
(199,-141,l),
(263,-119,o),
(340,-25,o),
(340,31,qs),
(340,69,o),
(303,115,o),
(272,115,qs),
(246,115,o),
(211,81,o),
(211,55,qs),
(211,32,o),
(242,-1,o),
(264,-1,qs),
(270,-1,o),
(280,1,o),
(283,3,q),
(283,27,l),
(299,27,l),
(299,8,ls),
(299,-34,o),
(243,-113,o),
(195,-135,q)
);
},
{
closed = 1;
nodes = (
(41,-141,l),
(105,-119,o),
(182,-25,o),
(182,31,qs),
(182,69,o),
(145,115,o),
(114,115,qs),
(88,115,o),
(53,81,o),
(53,55,qs),
(53,32,o),
(84,-1,o),
(106,-1,qs),
(112,-1,o),
(122,1,o),
(125,3,q),
(125,27,l),
(141,27,l),
(141,8,ls),
(141,-34,o),
(85,-113,o),
(37,-135,q)
);
}
);
width = 396;
}
);
note = quotedblbase;
unicode = 8222;
},
{
glyphname = quotedblright;
kernLeft = quotedbl;
kernRight = quotedbl;
layers = (
{
layerId = m01;
shapes = (
{
closed = 1;
nodes = (
(199,455,l),
(263,477,o),
(340,571,o),
(340,627,qs),
(340,665,o),
(303,711,o),
(272,711,qs),
(246,711,o),
(211,677,o),
(211,651,qs),
(211,628,o),
(242,595,o),
(264,595,qs),
(270,595,o),
(280,597,o),
(283,599,q),
(283,623,l),
(299,623,l),
(299,604,ls),
(299,562,o),
(243,483,o),
(195,461,q)
);
},
{
closed = 1;
nodes = (
(41,455,l),
(105,477,o),
(182,571,o),
(182,627,qs),
(182,665,o),
(145,711,o),
(114,711,qs),
(88,711,o),
(53,677,o),
(53,651,qs),
(53,628,o),
(84,595,o),
(106,595,qs),
(112,595,o),
(122,597,o),
(125,599,q),
(125,623,l),
(141,623,l),
(141,604,ls),
(141,562,o),
(85,483,o),
(37,461,q)
);
}
);
width = 396;
}
);
note = quotedblright;
unicode = 8221;
},
{
glyphname = guillemotright;
layers = (
{
layerId = m01;
shapes = (
{
closed = 1;
nodes = (
(274,474,l),
(406,235,l),
(274,-4,l),
(274,-10,l),
(520,235,l),
(274,480,l)
);
},
{
closed = 1;
nodes = (
(320,235,l),
(74,480,l),
(74,474,l),
(206,235,l),
(74,-4,l),
(74,-10,l)
);
}
);
width = 580;
}
);
note = guillemotright;
unicode = 187;
},
{
glyphname = ellipsis;
kernLeft = comma;
kernRight = comma;
layers = (
{
layerId = m01;
shapes = (
{
closed = 1;
nodes = (
(64,113,l),
(64,0,l),
(176,0,l),
(176,113,l)
);
},
{
closed = 1;
nodes = (
(416,0,l),
(416,113,l),
(304,113,l),
(304,0,l)
);
},
{
closed = 1;
nodes = (
(656,0,l),
(656,113,l),
(544,113,l),
(544,0,l)
);
}
);
width = 720;
}
);
note = ellipsis;
unicode = 8230;
},
{
glyphname = questiondown;
layers = (
{
layerId = m01;
shapes = (
{
closed = 1;
nodes = (
(296,587,l),
(296,700,l),
(184,700,l),
(184,587,l)
);
},
{
closed = 1;
nodes = (
(19,110,o),
(76,33,o),
(175,-10,o),
(237,-10,qs),
(287,-10,o),
(374,28,o),
(426,91,o),
(426,127,qs),
(426,149,o),
(397,181,o),
(377,181,qs),
(355,181,o),
(330,151,o),
(330,127,qs),
(330,121,o),
(332,109,q),
(352,109,l),
(350,71,o),
(292,28,o),
(243,28,qs),
(186,28,o),
(112,99,o),
(112,153,qs),
(112,233,o),
(178,290,qs),
(231,336,ls),
(256,358,o),
(279,401,o),
(279,426,qs),
(279,456,o),
(242,492,o),
(213,493,q),
(235,480,o),
(235,450,qs),
(235,431,o),
(216,394,o),
(198,382,qs),
(128,331,ls),
(70,289,o),
(19,207,o),
(19,157,qs)
);
}
);
width = 430;
}
);
note = questiondown;
unicode = 191;
},
{
glyphname = grave;
layers = (
{
layerId = m01;
shapes = (
{
closed = 1;
nodes = (
(321,535,l),
(325,535,l),
(232,671,ls),
(213,698,o),
(184,720,o),
(164,720,qs),
(142,720,o),
(116,694,o),
(116,676,qs),
(116,662,o),
(133,636,o),
(148,628,qs)
);
}
);
width = 500;
}
);
note = grave;
unicode = 96;
},
{
glyphname = acute;
layers = (
{
layerId = m01;
shapes = (
{
closed = 1;
nodes = (
(179,535,l),
(175,535,l),
(268,671,ls),
(287,698,o),
(316,720,o),
(336,720,qs),
(358,720,o),
(384,694,o),
(384,676,qs),
(384,662,o),
(367,636,o),
(352,628,qs)
);
}
);
width = 500;
}
);
note = acute;
unicode = 180;
},
{
glyphname = circumflex;
layers = (
{
layerId = m01;
shapes = (
{
closed = 1;
nodes = (
(95,535,l),
(261,643,l),
(297,643,l),
(247,608,l),
(405,535,l),
(409,535,l),
(305,685,l),
(195,685,l),
(91,535,l)
);
}
);
width = 500;
}
);
note = circumflex;
unicode = 710;
},
{
glyphname = tilde;
layers = (
{
layerId = m01;
shapes = (
{
closed = 1;
nodes = (
(427,694,l),
(406,659,o),
(368,630,o),
(349,630,qs),
(334,630,o),
(297,646,o),
(271,661,qs),
(242,678,o),
(201,695,o),
(183,695,qs),
(146,695,o),
(92,626,o),
(69,550,q),
(73,550,l),
(94,586,o),
(132,615,o),
(151,615,qs),
(167,615,o),
(204,599,o),
(233,583,qs),
(262,567,o),
(300,550,o),
(317,550,qs),
(354,550,o),
(408,618,o),
(431,694,q)
);
}
);
width = 500;
}
);
note = tilde;
unicode = 732;
},
{
glyphname = macron;
layers = (
{
layerId = m01;
shapes = (
{
closed = 1;
nodes = (
(97,650,l),
(97,590,l),
(403,590,l),
(403,650,l)
);
}
);
width = 500;
}
);
note = macron;
unicode = 175;
},
{
glyphname = breve;
layers = (
{
layerId = m01;
shapes = (
{
closed = 1;
nodes = (
(115,700,l),
(113,653,o),
(149,583,o),
(212,545,o),
(250,545,qs),
(288,545,o),
(351,583,o),
(387,653,o),
(385,700,q),
(381,700,l),
(369,668,o),
(301,627,o),
(250,627,qs),
(199,627,o),
(131,668,o),
(119,700,q)
);
}
);
width = 500;
}
);
note = breve;
unicode = 728;
},
{
glyphname = dotaccent;
layers = (
{
layerId = m01;
shapes = (
{
closed = 1;
nodes = (
(201,575,l),
(299,575,l),
(299,674,l),
(201,674,l)
);
}
);
width = 500;
}
);
note = dotaccent;
unicode = 729;
},
{
glyphname = dieresis;
layers = (
{
layerId = m01;
shapes = (
{
closed = 1;
nodes = (
(104,575,l),
(202,575,l),
(202,674,l),
(104,674,l)
);
},
{
closed = 1;
nodes = (
(396,575,l),
(396,674,l),
(298,674,l),
(298,575,l)
);
}
);
width = 500;
}
);
note = dieresis;
unicode = 168;
},
{
glyphname = ring;
layers = (
{
layerId = m01;
shapes = (
{
closed = 1;
nodes = (
(208,710,o),
(151,656,o),
(151,615,qs),
(151,577,o),
(208,523,o),
(250,523,qs),
(292,523,o),
(349,577,o),
(349,615,qs),
(349,656,o),
(292,710,o),
(250,710,qs)
);
},
{
closed = 1;
nodes = (
(191,641,o),
(222,674,o),
(250,674,qs),
(278,674,o),
(309,641,o),
(309,615,qs),
(309,591,o),
(277,558,o),
(250,558,qs),
(223,558,o),
(191,591,o),
(191,615,qs)
);
}
);
width = 500;
}
);
note = ring;
unicode = 730;
},
{
glyphname = cedilla;
layers = (
{
layerId = m01;
shapes = (
{
closed = 1;
nodes = (
(204,-189,l),
(231,-205,o),
(268,-205,qs),
(313,-205,o),
(372,-163,o),
(372,-131,qs),
(372,-111,o),
(346,-73,o),
(308,-51,qs),
(301,-47,l),
(284,-76,l),
(265,-65,l),
(313,18,l),
(280,18,l),
(220,-80,l),
(268,-109,ls),
(297,-127,o),
(297,-148,qs),
(297,-165,o),
(258,-186,o),
(222,-186,qs),
(204,-185,l)
);
}
);
width = 500;
}
);
note = cedilla;
unicode = 184;
},
{
glyphname = hungarumlaut;
layers = (
{
layerId = m01;
shapes = (
{
closed = 1;
nodes = (
(110,535,l),
(114,535,l),
(268,637,ls),
(282,646,o),
(298,671,o),
(298,683,qs),
(298,699,o),
(275,720,o),
(255,720,qs),
(235,720,o),
(205,697,o),
(189,670,qs)
);
},
{
closed = 1;
nodes = (
(274,535,l),
(428,637,ls),
(442,646,o),
(458,671,o),
(458,683,qs),
(458,699,o),
(435,720,o),
(415,720,qs),
(395,720,o),
(365,697,o),
(349,670,qs),
(270,535,l)
);
}
);
width = 500;
}
);
note = hungarumlaut;
unicode = 733;
},
{
glyphname = ogonek;
layers = (
{
layerId = m01;
shapes = (
{
closed = 1;
nodes = (
(320,-151,l),
(306,-160,o),
(283,-169,o),
(268,-169,qs),
(243,-169,o),
(214,-143,o),
(214,-121,qs),
(214,-93,o),
(261,-30,o),
(308,-6,qs),
(320,0,l),
(300,6,l),
(289,2,ls),
(225,-21,o),
(152,-100,o),
(152,-139,qs),
(152,-171,o),
(195,-211,o),
(232,-211,qs),
(262,-211,o),
(311,-182,o),
(323,-154,q)
);
}
);
width = 500;
}
);
note = ogonek;
unicode = 731;
},
{
glyphname = caron;
layers = (
{
layerId = m01;
shapes = (
{
closed = 1;
nodes = (
(405,695,l),
(239,587,l),
(203,587,l),
(253,622,l),
(95,695,l),
(91,695,l),
(195,545,l),
(305,545,l),
(409,695,l)
);
}
);
width = 500;
}
);
note = caron;
unicode = 711;
},
{
glyphname = emdash;
kernLeft = plus;
kernRight = plus;
layers = (
{
layerId = m01;
shapes = (
{
closed = 1;
nodes = (
(35,335,l),
(35,295,l),
(633,295,l),
(633,335,l)
);
}
);
width = 668;
}
);
note = emdash;
unicode = 8212;
},
{
glyphname = AE;
kernRight = E;
layers = (
{
layerId = m01;
shapes = (
{
closed = 1;
nodes = (
(170,159,ls),
(137,110,o),
(83,57,o),
(38,35,o),
(6,27,q),
(6,0,l),
(234,0,l),
(234,29,l),
(217,31,ls),
(176,36,o),
(176,67,qs),
(176,91,o),
(202,132,qs),
(268,236,l),
(518,236,l),
(518,105,ls),
(518,37,o),
(447,31,qs),
(424,29,l),
(424,0,l),
(991,0,l),
(1023,249,l),
(990,249,l),
(972,184,ls),
(952,110,o),
(874,41,o),
(813,41,qs),
(588,41,l),
(588,61,l),
(624,61,l),
(624,340,l),
(729,340,ls),
(767,340,o),
(806,304,o),
(816,260,qs),
(824,226,l),
(857,226,l),
(857,490,l),
(824,490,l),
(816,456,ls),
(806,411,o),
(767,375,o),
(729,375,qs),
(624,375,l),
(624,659,l),
(806,659,ls),
(864,659,o),
(933,600,o),
(951,535,qs),
(973,456,l),
(1005,456,l),
(993,700,l),
(424,700,l),
(424,671,l),
(444,669,ls),
(477,666,o),
(477,642,qs),
(477,627,o),
(464,607,qs)
);
},
{
closed = 1;
nodes = (
(526,642,l),
(552,642,l),
(518,589,l),
(518,271,l),
(290,271,l)
);
}
);
width = 1095;
}
);
note = AE;
unicode = 198;
},
{
glyphname = Lslash;
layers = (
{
layerId = m01;
shapes = (
{
closed = 1;
nodes = (
(159,350,l),
(159,324,l),
(114,294,l),
(114,105,ls),
(114,37,o),
(43,31,qs),
(20,29,l),
(20,0,l),
(587,0,l),
(619,249,l),
(586,249,l),
(569,188,ls),
(548,112,o),
(470,41,o),
(409,41,qs),
(184,41,l),
(184,61,l),
(220,61,l),
(220,390,l),
(350,478,l),
(350,523,l),
(220,435,l),
(220,595,ls),
(220,663,o),
(291,669,qs),
(314,671,l),
(314,700,l),
(20,700,l),
(20,671,l),
(43,669,ls),
(114,663,o),
(114,595,qs),
(114,365,l),
(6,292,l),
(6,247,l)
);
}
);
width = 645;
}
);
note = Lslash;
unicode = 321;
},
{
glyphname = Oslash;
kernLeft = C;
kernRight = D;
layers = (
{
layerId = m01;
shapes = (
{
closed = 1;
nodes = (
(-9,0,l),
(50,0,l),
(133,85,l),
(178,39,o),
(298,-11,o),
(364,-11,qs),
(456,-11,o),
(610,85,o),
(700,252,o),
(700,354,qs),
(700,471,o),
(641,563,q),
(607,529,l),
(595,553,l),
(740,700,l),
(681,700,l),
(599,616,l),
(554,662,o),
(434,712,o),
(368,712,qs),
(276,712,o),
(122,616,o),
(32,449,o),
(32,347,qs),
(32,230,o),
(91,138,q),
(125,172,l),
(137,148,l)
);
},
{
closed = 1;
nodes = (
(146,461,o),
(200,597,o),
(295,670,o),
(354,670,qs),
(410,670,o),
(503,609,o),
(534,552,q),
(177,188,l),
(146,266,o),
(146,371,qs)
);
},
{
closed = 1;
nodes = (
(553,511,l),
(582,430,o),
(582,331,qs),
(582,241,o),
(528,105,o),
(433,32,o),
(374,32,qs),
(318,32,o),
(226,92,o),
(195,148,q)
);
}
);
width = 731;
}
);
note = Oslash;
unicode = 216;
},
{
glyphname = OE;
kernLeft = C;
kernRight = E;
layers = (
{
layerId = m01;
shapes = (
{
closed = 1;
nodes = (
(983,0,l),
(1015,249,l),
(982,249,l),
(964,184,ls),
(944,110,o),
(866,41,o),
(805,41,qs),
(580,41,l),
(580,61,l),
(616,61,l),
(616,340,l),
(721,340,ls),
(759,340,o),
(798,304,o),
(808,260,qs),
(816,226,l),
(849,226,l),
(849,490,l),
(816,490,l),
(808,456,ls),
(798,411,o),
(759,375,o),
(721,375,qs),
(616,375,l),
(616,659,l),
(798,659,ls),
(856,659,o),
(925,600,o),
(943,535,qs),
(965,456,l),
(997,456,l),
(985,700,l),
(411,700,ls),
(303,700,o),
(130,611,o),
(32,453,o),
(32,355,qs),
(32,256,o),
(133,94,o),
(307,0,o),
(413,0,qs)
);
},
{
closed = 1;
nodes = (
(149,442,o),
(216,581,o),
(337,659,o),
(416,659,qs),
(546,659,l),
(546,639,l),
(510,639,l),
(510,41,l),
(425,41,ls),
(341,41,o),
(216,117,o),
(149,257,o),
(149,351,qs)
);
}
);
width = 1056;
}
);
note = OE;
unicode = 338;
},
{
glyphname = ae;
kernLeft = a;
kernRight = e;
layers = (
{
layerId = m01;
shapes = (
{
closed = 1;
nodes = (
(720,266,l),
(722,328,o),
(675,426,o),
(587,480,o),
(530,480,qs),
(488,480,o),
(411,443,o),
(381,411,q),
(347,480,o),
(231,480,qs),
(181,480,o),
(99,445,o),
(53,390,o),
(53,362,qs),
(53,340,o),
(81,310,o),
(100,310,qs),
(124,310,o),
(152,340,o),
(152,370,qs),
(152,382,o),
(151,388,q),
(120,388,l),
(124,411,o),
(183,441,o),
(222,441,qs),
(264,441,o),
(315,385,o),
(315,338,qs),
(315,292,l),
(161,240,ls),
(90,216,o),
(34,158,o),
(34,109,qs),
(34,53,o),
(105,-10,o),
(167,-10,qs),
(216,-10,o),
(297,45,o),
(339,110,q),
(366,52,o),
(472,-10,o),
(542,-10,qs),
(605,-10,o),
(698,69,o),
(711,134,q),
(709,135,l),
(663,52,o),
(560,52,qs),
(517,52,o),
(450,101,o),
(410,190,o),
(409,247,q),
(377,247,l),
(377,266,l)
);
},
{
closed = 1;
nodes = (
(125,161,o),
(164,207,o),
(212,224,qs),
(315,260,l),
(315,229,ls),
(315,184,o),
(326,145,q),
(301,96,o),
(235,43,o),
(201,43,qs),
(167,43,o),
(125,87,o),
(125,122,qs)
);
},
{
closed = 1;
nodes = (
(418,368,o),
(476,440,o),
(523,440,qs),
(566,440,o),
(622,362,o),
(622,301,q),
(411,301,l)
);
}
);
width = 755;
}
);
note = ae;
unicode = 230;
},
{
glyphname = dotlessi;
kernLeft = m;
kernRight = q;
layers = (
{
layerId = m01;
shapes = (
{
closed = 1;
nodes = (
(195,480,l),
(21,435,l),
(57,418,ls),
(86,404,o),
(103,384,o),
(103,364,qs),
(103,95,ls),
(103,34,o),
(45,28,qs),
(24,26,l),
(24,0,l),
(274,0,l),
(274,26,l),
(253,28,ls),
(195,34,o),
(195,95,qs)
);
}
);
width = 294;
}
);
note = dotlessi;
unicode = 305;
},
{
glyphname = lslash;
kernLeft = h;
layers = (
{
layerId = m01;
shapes = (
{
closed = 1;
nodes = (
(270,26,l),
(249,28,ls),
(191,34,o),
(191,95,qs),
(191,382,l),
(321,469,l),
(321,514,l),
(191,427,l),
(191,725,l),
(17,683,l),
(53,668,ls),
(80,657,o),
(99,634,o),
(99,614,qs),
(99,365,l),
(-9,292,l),
(-9,247,l),
(136,345,l),
(136,320,l),
(99,295,l),
(99,95,ls),
(99,34,o),
(41,28,qs),
(20,26,l),
(20,0,l),
(270,0,l)
);
}
);
width = 290;
}
);
note = lslash;
unicode = 322;
},
{
glyphname = oslash;
kernLeft = c;
kernRight = b;
layers = (
{
layerId = m01;
shapes = (
{
closed = 1;
nodes = (
(194,481,o),
(90,415,o),
(30,301,o),
(30,232,qs),
(30,154,o),
(67,95,q),
(95,123,l),
(100,114,o),
(105,107,q),
(0,0,l),
(56,0,l),
(104,49,l),
(134,20,o),
(213,-11,o),
(258,-11,qs),
(322,-11,o),
(426,55,o),
(486,169,o),
(486,238,qs),
(486,316,o),
(449,375,q),
(421,347,l),
(416,356,o),
(411,363,q),
(516,470,l),
(460,470,l),
(412,421,l),
(382,450,o),
(303,481,o),
(258,481,qs)
);
},
{
closed = 1;
nodes = (
(130,338,o),
(195,439,o),
(252,439,qs),
(286,439,o),
(338,401,o),
(355,366,q),
(143,147,l),
(130,190,o),
(130,250,qs)
);
},
{
closed = 1;
nodes = (
(371,323,l),
(384,280,o),
(384,220,qs),
(384,132,o),
(319,31,o),
(262,31,qs),
(228,31,o),
(176,69,o),
(159,104,q)
);
}
);
width = 516;
}
);
note = oslash;
unicode = 248;
},
{
glyphname = oe;
kernLeft = c;
kernRight = e;
layers = (
{
layerId = m01;
shapes = (
{
closed = 1;
nodes = (
(194,481,o),
(90,415,o),
(30,301,o),
(30,232,qs),
(30,163,o),
(89,52,o),
(193,-11,o),
(258,-11,qs),
(315,-11,o),
(402,44,o),
(430,93,q),
(454,43,o),
(543,-10,o),
(607,-10,qs),
(670,-10,o),
(763,69,o),
(776,134,q),
(774,135,l),
(728,52,o),
(625,52,qs),
(582,52,o),
(515,101,o),
(475,190,o),
(474,247,q),
(442,247,l),
(442,266,l),
(785,266,l),
(787,328,o),
(740,426,o),
(652,480,o),
(595,480,qs),
(542,480,o),
(459,423,o),
(434,373,q),
(408,424,o),
(319,481,o),
(258,481,qs)
);
},
{
closed = 1;
nodes = (
(130,338,o),
(195,439,o),
(252,439,qs),
(313,439,o),
(386,320,o),
(386,220,qs),
(386,132,o),
(320,31,o),
(262,31,qs),
(202,31,o),
(130,150,o),
(130,250,qs)
);
},
{
closed = 1;
nodes = (
(493,368,o),
(551,440,o),
(598,440,qs),
(641,440,o),
(697,362,o),
(697,301,q),
(486,301,l)
);
}
);
width = 829;
}
);
note = oe;
unicode = 339;
},
{
glyphname = germandbls;
kernLeft = f;
kernRight = s;
layers = (
{
layerId = m01;
shapes = (
{
closed = 1;
nodes = (
(444,498,o),
(482,557,o),
(482,594,qs),
(482,649,o),
(383,718,o),
(302,718,qs),
(205,718,o),
(94,602,o),
(94,500,qs),
(94,470,l),
(16,470,l),
(16,430,l),
(128,430,l),
(128,411,l),
(94,411,l),
(94,95,ls),
(94,34,o),
(36,28,qs),
(15,26,l),
(15,0,l),
(186,0,l),
(186,571,ls),
(186,629,o),
(240,685,o),
(296,685,qs),
(342,685,o),
(396,630,o),
(396,584,qs),
(396,547,o),
(367,487,o),
(336,454,qs),
(307,423,o),
(286,388,o),
(286,368,qs),
(286,345,o),
(309,308,o),
(332,289,qs),
(433,210,ls),
(464,185,o),
(496,142,o),
(496,117,qs),
(496,80,o),
(447,35,o),
(406,35,qs),
(364,35,o),
(311,70,o),
(307,101,q),
(335,101,l),
(337,115,o),
(337,121,qs),
(337,146,o),
(310,175,o),
(286,175,qs),
(263,175,o),
(234,143,o),
(234,116,qs),
(234,82,o),
(278,25,o),
(353,-8,o),
(399,-8,qs),
(449,-8,o),
(528,32,o),
(573,104,o),
(573,148,qs),
(573,190,o),
(527,260,o),
(482,294,qs),
(403,354,ls),
(380,371,o),
(365,388,o),
(365,401,qs),
(365,411,o),
(378,432,o),
(396,450,qs)
);
}
);
width = 599;
}
);
note = germandbls;
unicode = 223;
},
{
glyphname = uni00B9;
layers = (
{
layerId = m01;
shapes = (
{
closed = 1;
nodes = (
(143,708,l),
(22,677,l),
(43,667,ls),
(60,659,o),
(71,645,o),
(71,632,qs),
(71,380,ls),
(71,349,o),
(35,346,qs),
(20,345,l),
(20,325,l),
(194,325,l),
(194,345,l),
(178,346,ls),
(143,348,o),
(143,380,qs)
);
}
);
width = 214;
}
);
note = uni00B9;
unicode = 185;
},
{
glyphname = trademark;
layers = (
{
layerId = m01;
shapes = (
{
closed = 1;
nodes = (
(15,700,l),
(9,578,l),
(31,578,l),
(40,608,ls),
(50,641,o),
(86,670,o),
(118,670,qs),
(146,670,l),
(146,395,ls),
(146,377,o),
(126,355,o),
(108,355,qs),
(97,355,l),
(97,330,l),
(262,330,l),
(262,355,l),
(250,355,ls),
(232,355,o),
(212,377,o),
(212,395,qs),
(212,647,l),
(194,647,l),
(194,670,l),
(241,670,ls),
(272,670,o),
(310,641,o),
(319,608,qs),
(327,578,l),
(348,578,l),
(342,700,l)
);
},
{
closed = 1;
nodes = (
(496,330,l),
(496,355,l),
(484,356,ls),
(465,357,o),
(446,380,o),
(446,400,qs),
(446,654,l),
(585,315,l),
(586,315,l),
(723,647,l),
(738,647,l),
(725,609,l),
(725,395,ls),
(725,355,o),
(689,355,qs),
(677,355,l),
(677,330,l),
(841,330,l),
(841,355,l),
(830,355,ls),
(811,355,o),
(791,377,o),
(791,395,qs),
(791,636,ls),
(791,654,o),
(811,675,o),
(830,675,qs),
(841,675,l),
(841,700,l),
(716,700,l),
(596,397,l),
(585,422,l),
(597,452,l),
(496,700,l),
(369,700,l),
(369,675,l),
(381,674,ls),
(418,671,o),
(418,630,qs),
(418,400,ls),
(418,359,o),
(381,356,qs),
(369,355,l),
(369,330,l)
);
}
);
width = 852;
}
);
note = trademark;
unicode = 8482;
},
{
glyphname = Eth;
kernRight = D;
layers = (
{
layerId = m01;
shapes = (
{
closed = 1;
nodes = (
(698,453,o),
(600,611,o),
(427,700,o),
(319,700,qs),
(20,700,l),
(20,671,l),
(43,669,ls),
(114,663,o),
(114,595,qs),
(114,375,l),
(20,375,l),
(20,340,l),
(150,340,l),
(150,320,l),
(114,320,l),
(114,105,ls),
(114,37,o),
(43,31,qs),
(20,29,l),
(20,0,l),
(317,0,ls),
(423,0,o),
(597,94,o),
(698,256,o),
(698,355,qs)
);
},
{
closed = 1;
nodes = (
(184,61,l),
(220,61,l),
(220,340,l),
(314,340,l),
(314,375,l),
(220,375,l),
(220,639,l),
(184,639,l),
(184,659,l),
(314,659,ls),
(393,659,o),
(514,581,o),
(581,442,o),
(581,351,qs),
(581,257,o),
(514,117,o),
(389,41,o),
(305,41,qs),
(184,41,l)
);
}
);
width = 729;
}
);
note = Eth;
unicode = 208;
},
{
glyphname = onehalf;
layers = (
{
layerId = m01;
shapes = (
{
closed = 1;
nodes = (
(143,708,l),
(22,677,l),
(43,667,ls),
(60,659,o),
(71,645,o),
(71,632,qs),
(71,380,ls),
(71,349,o),
(35,346,qs),
(20,345,l),
(20,325,l),
(194,325,l),
(194,345,l),
(178,346,ls),
(143,348,o),
(143,380,qs)
);
},
{
closed = 1;
nodes = (
(85,0,l),
(535,700,l),
(489,700,l),
(39,0,l)
);
},
{
closed = 1;
nodes = (
(595,0,l),
(612,112,l),
(593,112,l),
(584,91,ls),
(575,71,o),
(547,53,o),
(524,53,qs),
(436,53,l),
(419,36,l),
(402,36,l),
(541,175,ls),
(602,236,o),
(602,285,qs),
(602,325,o),
(534,380,o),
(476,380,qs),
(440,380,o),
(384,353,o),
(352,308,o),
(352,284,qs),
(352,268,o),
(372,247,o),
(387,247,qs),
(404,247,o),
(423,267,o),
(423,283,qs),
(423,288,o),
(421,298,q),
(408,298,l),
(410,324,o),
(439,355,o),
(465,355,qs),
(492,355,o),
(525,314,o),
(525,281,qs),
(525,250,o),
(498,190,o),
(463,147,qs),
(346,0,l)
);
}
);
width = 632;
}
);
note = onehalf;
unicode = 189;
},
{
glyphname = Thorn;
layers = (
{
layerId = m01;
shapes = (
{
closed = 1;
nodes = (
(220,555,l),
(220,595,ls),
(220,663,o),
(291,669,qs),
(314,671,l),
(314,700,l),
(20,700,l),
(20,671,l),
(43,669,ls),
(114,663,o),
(114,595,qs),
(114,105,ls),
(114,37,o),
(43,31,qs),
(20,29,l),
(20,0,l),
(314,0,l),
(314,29,l),
(291,31,ls),
(220,37,o),
(220,105,qs),
(220,158,l),
(184,158,l),
(184,178,l),
(345,178,ls),
(415,178,o),
(525,227,o),
(587,316,o),
(587,372,qs),
(587,426,o),
(526,509,o),
(416,555,o),
(344,555,qs)
);
},
{
closed = 1;
nodes = (
(184,514,l),
(333,514,ls),
(400,514,o),
(476,436,o),
(476,368,qs),
(476,298,o),
(398,213,o),
(333,213,qs),
(220,213,l),
(220,494,l),
(184,494,l)
);
}
);
width = 617;
}
);
note = Thorn;
unicode = 222;
},
{
glyphname = onequarter;
layers = (
{
layerId = m01;
shapes = (
{
closed = 1;
nodes = (
(143,708,l),
(22,677,l),
(43,667,ls),
(60,659,o),
(71,645,o),
(71,632,qs),
(71,380,ls),
(71,349,o),
(35,346,qs),
(20,345,l),
(20,325,l),
(194,325,l),
(194,345,l),
(178,346,ls),
(143,348,o),
(143,380,qs)
);
},
{
closed = 1;
nodes = (
(85,0,l),
(535,700,l),
(489,700,l),
(39,0,l)
);
},
{
closed = 1;
nodes = (
(461,105,l),
(461,55,ls),
(461,24,o),
(428,21,qs),
(417,20,l),
(417,0,l),
(572,0,l),
(572,20,l),
(561,21,ls),
(528,24,o),
(528,55,qs),
(528,93,l),
(507,93,l),
(507,105,l),
(581,105,l),
(594,204,l),
(575,204,l),
(569,187,ls),
(559,160,o),
(528,154,q),
(528,255,l),
(461,219,l),
(461,153,l),
(347,153,l),
(404,213,o),
(455,278,qs),
(486,315,o),
(510,364,o),
(511,386,q),
(420,367,l),
(421,359,o),
(421,344,qs),
(421,300,o),
(393,256,qs),
(356,196,o),
(282,105,q)
);
}
);
width = 614;
}
);
note = onequarter;
unicode = 188;
},
{
glyphname = degree;
kernLeft = asterisk;
kernRight = asterisk;
layers = (
{
layerId = m01;
shapes = (
{
closed = 1;
nodes = (
(238,394,o),
(311,436,o),
(354,508,o),
(354,552,qs),
(354,596,o),
(311,668,o),
(238,710,o),
(195,710,qs),
(152,710,o),
(78,668,o),
(35,596,o),
(35,552,qs),
(35,508,o),
(78,436,o),
(152,394,o),
(195,394,qs)
);
},
{
closed = 1;
nodes = (
(87,600,o),
(150,666,o),
(195,666,qs),
(239,666,o),
(302,600,o),
(302,552,qs),
(302,504,o),
(239,438,o),
(195,438,qs),
(150,438,o),
(87,504,o),
(87,552,qs)
);
}
);
width = 389;
}
);
note = degree;
unicode = 176;
},
{
glyphname = thorn;
kernLeft = h;
kernRight = b;
layers = (
{
layerId = m01;
shapes = (
{
closed = 1;
nodes = (
(250,-204,l),
(229,-202,ls),
(171,-196,o),
(171,-135,qs),
(171,12,l),
(213,-9,o),
(274,-9,qs),
(343,-9,o),
(454,59,o),
(517,180,o),
(517,255,qs),
(517,320,o),
(467,423,o),
(379,481,o),
(323,481,qs),
(277,481,o),
(196,426,o),
(158,369,qs),
(140,342,l),
(140,375,l),
(171,418,l),
(171,725,l),
(-3,680,l),
(33,663,ls),
(62,649,o),
(79,629,o),
(79,609,qs),
(79,-135,ls),
(79,-196,o),
(21,-202,qs),
(0,-204,l),
(0,-230,l),
(250,-230,l)
);
},
{
closed = 1;
nodes = (
(171,348,l),
(191,380,o),
(249,418,o),
(280,418,qs),
(341,418,o),
(417,314,o),
(417,232,qs),
(417,142,o),
(337,31,o),
(272,31,qs),
(246,31,o),
(191,55,o),
(171,73,q)
);
}
);
width = 547;
}
);
note = thorn;
unicode = 254;
},
{
glyphname = threequarters;
layers = (
{
layerId = m01;
shapes = (
{
closed = 1;
nodes = (
(280,490,o),
(214,556,o),
(161,556,q),
(280,700,l),
(48,700,l),
(35,600,l),
(53,600,l),
(61,618,ls),
(74,647,o),
(114,647,qs),
(186,647,l),
(200,662,l),
(217,662,l),
(85,507,l),
(93,508,o),
(107,508,qs),
(209,508,o),
(209,429,qs),
(209,394,o),
(169,343,o),
(136,343,qs),
(108,343,o),
(78,371,o),
(76,394,q),
(89,394,l),
(90,398,o),
(90,407,qs),
(90,422,o),
(73,441,o),
(58,441,qs),
(44,441,o),
(26,421,o),
(26,407,qs),
(26,368,o),
(94,319,o),
(142,319,qs),
(204,319,o),
(280,392,o),
(280,444,qs)
);
},
{
closed = 1;
nodes = (
(164,0,l),
(614,700,l),
(568,700,l),
(118,0,l)
);
},
{
closed = 1;
nodes = (
(540,105,l),
(540,55,ls),
(540,24,o),
(507,21,qs),
(496,20,l),
(496,0,l),
(651,0,l),
(651,20,l),
(640,21,ls),
(607,24,o),
(607,55,qs),
(607,93,l),
(586,93,l),
(586,105,l),
(660,105,l),
(673,204,l),
(654,204,l),
(648,187,ls),
(638,160,o),
(607,154,q),
(607,255,l),
(540,219,l),
(540,153,l),
(426,153,l),
(483,213,o),
(534,278,qs),
(565,315,o),
(589,364,o),
(590,386,q),
(499,367,l),
(500,359,o),
(500,344,qs),
(500,300,o),
(472,256,qs),
(435,196,o),
(361,105,q)
);
}
);
width = 693;
}
);
note = threequarters;
unicode = 190;
},
{
glyphname = uni00B2;
layers = (
{
layerId = m01;
shapes = (
{
closed = 1;
nodes = (
(66,361,l),
(205,500,ls),
(266,561,o),
(266,610,qs),
(266,650,o),
(198,705,o),
(140,705,qs),
(104,705,o),
(48,678,o),
(16,633,o),
(16,609,qs),
(16,593,o),
(36,572,o),
(51,572,qs),
(68,572,o),
(87,592,o),
(87,608,qs),
(87,613,o),
(85,623,q),
(72,623,l),
(74,649,o),
(103,680,o),
(129,680,qs),
(156,680,o),
(189,639,o),
(189,606,qs),
(189,575,o),
(162,515,o),
(127,472,qs),
(10,325,l),
(259,325,l),
(276,437,l),
(257,437,l),
(248,416,ls),
(239,396,o),
(211,378,o),
(188,378,qs),
(100,378,l),
(83,361,l)
);
}
);
width = 296;
}
);
note = uni00B2;
unicode = 178;
},
{
glyphname = registered;
kernLeft = asterisk;
kernRight = asterisk;
layers = (
{
layerId = m01;
shapes = (
{
closed = 1;
nodes = (
(338,281,o),
(441,341,o),
(501,444,o),
(501,505,qs),
(501,566,o),
(441,669,o),
(338,730,o),
(277,730,qs),
(216,730,o),
(113,669,o),
(52,566,o),
(52,505,qs),
(52,444,o),
(113,341,o),
(216,281,o),
(277,281,qs)
);
},
{
closed = 1;
nodes = (
(79,559,o),
(132,649,o),
(223,702,o),
(277,702,qs),
(331,702,o),
(421,649,o),
(474,559,o),
(474,505,qs),
(474,451,o),
(421,361,o),
(331,308,o),
(277,308,qs),
(223,308,o),
(132,361,o),
(79,451,o),
(79,505,qs)
);
},
{
closed = 1;
nodes = (
(279,378,l),
(279,397,l),
(270,397,ls),
(243,397,o),
(243,425,qs),
(243,482,l),
(220,482,l),
(220,499,l),
(269,499,ls),
(298,499,o),
(306,476,qs),
(342,378,l),
(417,378,l),
(417,395,l),
(411,397,ls),
(398,401,o),
(386,410,o),
(380,423,qs),
(357,474,ls),
(345,501,o),
(321,510,q),
(344,512,o),
(380,551,o),
(380,574,qs),
(380,603,o),
(331,640,o),
(292,640,qs),
(159,640,l),
(159,620,l),
(167,620,ls),
(179,620,o),
(194,604,o),
(194,592,qs),
(194,425,ls),
(194,412,o),
(180,397,o),
(167,397,qs),
(159,397,l),
(159,378,l)
);
},
{
closed = 1;
nodes = (
(220,619,l),
(275,619,ls),
(300,619,o),
(328,593,o),
(328,570,qs),
(328,547,o),
(299,519,o),
(275,519,qs),
(243,519,l),
(243,602,l),
(220,602,l)
);
}
);
width = 553;
}
);
note = registered;
unicode = 174;
},
{
glyphname = minus;
kernLeft = plus;
kernRight = plus;
layers = (
{
layerId = m01;
shapes = (
{
closed = 1;
nodes = (
(35,335,l),
(35,295,l),
(483,295,l),
(483,335,l)
);
}
);
width = 518;
}
);
note = minus;
unicode = 8722;
},
{
glyphname = eth;
kernLeft = c;
kernRight = b;
layers = (
{
layerId = m01;
shapes = (
{
closed = 1;
nodes = (
(129,538,l),
(145,502,l),
(490,635,l),
(474,671,l),
(319,611,l),
(234,682,o),
(132,710,q),
(129,698,l),
(165,688,o),
(242,635,o),
(276,594,q)
);
},
{
closed = 1;
nodes = (
(30,163,o),
(89,52,o),
(193,-11,o),
(258,-11,qs),
(325,-11,o),
(429,62,o),
(486,192,o),
(486,277,qs),
(486,355,o),
(422,505,o),
(365,566,q),
(311,545,l),
(343,497,o),
(363,441,q),
(315,481,o),
(254,481,qs),
(193,481,o),
(90,414,o),
(30,300,o),
(30,232,qs)
);
},
{
closed = 1;
nodes = (
(130,341,o),
(199,439,o),
(265,439,qs),
(301,439,o),
(366,400,o),
(386,358,q),
(396,301,o),
(396,248,qs),
(396,147,o),
(324,31,o),
(262,31,qs),
(202,31,o),
(130,150,o),
(130,250,qs)
);
}
);
width = 516;
}
);
note = eth;
unicode = 240;
},
{
glyphname = multiply;
layers = (
{
layerId = m01;
shapes = (
{
closed = 1;
nodes = (
(76,161,l),
(105,132,l),
(259,286,l),
(413,132,l),
(442,161,l),
(288,315,l),
(442,469,l),
(413,498,l),
(259,344,l),
(105,498,l),
(76,469,l),
(230,315,l)
);
}
);
width = 518;
}
);
note = multiply;
unicode = 215;
},
{
glyphname = uni00B3;
layers = (
{
layerId = m01;
shapes = (
{
closed = 1;
nodes = (
(280,490,o),
(214,556,o),
(161,556,q),
(280,700,l),
(48,700,l),
(35,600,l),
(53,600,l),
(61,618,ls),
(74,647,o),
(114,647,qs),
(186,647,l),
(200,662,l),
(217,662,l),
(85,507,l),
(93,508,o),
(107,508,qs),
(209,508,o),
(209,429,qs),
(209,394,o),
(169,343,o),
(136,343,qs),
(108,343,o),
(78,371,o),
(76,394,q),
(89,394,l),
(90,398,o),
(90,407,qs),
(90,422,o),
(73,441,o),
(58,441,qs),
(44,441,o),
(26,421,o),
(26,407,qs),
(26,368,o),
(94,319,o),
(142,319,qs),
(204,319,o),
(280,392,o),
(280,444,qs)
);
}
);
width = 311;
}
);
note = uni00B3;
unicode = 179;
},
{
glyphname = copyright;
kernLeft = C;
kernRight = D;
layers = (
{
layerId = m01;
shapes = (
{
closed = 1;
nodes = (
(494,-11,o),
(660,86,o),
(757,252,o),
(757,350,qs),
(757,447,o),
(659,613,o),
(493,711,o),
(396,711,qs),
(298,711,o),
(132,613,o),
(35,447,o),
(35,350,qs),
(35,252,o),
(132,86,o),
(298,-11,o),
(396,-11,qs)
);
},
{
closed = 1;
nodes = (
(68,438,o),
(157,589,o),
(308,678,o),
(396,678,qs),
(484,678,o),
(635,589,o),
(724,438,o),
(724,350,qs),
(724,261,o),
(636,110,o),
(485,22,o),
(396,22,qs),
(307,22,o),
(156,110,o),
(68,261,o),
(68,350,qs)
);
},
{
closed = 1;
nodes = (
(215,287,o),
(262,197,o),
(347,147,o),
(401,147,qs),
(452,147,o),
(529,216,o),
(543,272,q),
(541,273,l),
(516,236,o),
(462,205,o),
(422,205,qs),
(388,205,o),
(333,247,o),
(302,321,o),
(302,367,qs),
(302,437,o),
(357,517,o),
(405,517,qs),
(437,517,o),
(478,492,o),
(479,470,q),
(462,470,l),
(458,439,o),
(482,406,o),
(505,406,qs),
(524,406,o),
(549,432,o),
(549,451,qs),
(549,479,o),
(511,526,o),
(446,554,o),
(408,554,qs),
(355,554,o),
(266,498,o),
(215,402,o),
(215,344,qs)
);
}
);
width = 792;
}
);
note = copyright;
unicode = 169;
},
{
glyphname = Aacute;
kernLeft = A;
kernRight = A;
layers = (
{
layerId = m01;
shapes = (
{
closed = 1;
nodes = (
(472,216,l),
(520,102,ls),
(527,87,o),
(527,73,qs),
(527,55,o),
(503,33,o),
(481,31,qs),
(464,29,l),
(464,0,l),
(715,0,l),
(715,27,l),
(683,34,o),
(646,69,o),
(631,103,qs),
(362,733,l),
(360,733,l),
(93,111,ls),
(64,43,o),
(6,27,q),
(6,0,l),
(210,0,l),
(210,29,l),
(193,31,ls),
(140,37,o),
(140,81,qs),
(140,102,o),
(153,132,qs),
(197,236,l),
(500,236,l),
(508,216,l)
);
},
{
closed = 1;
nodes = (
(331,556,l),
(450,271,l),
(212,271,l)
);
},
{
closed = 1;
nodes = (
(378,901,ls),
(397,928,o),
(426,950,o),
(446,950,qs),
(468,950,o),
(494,924,o),
(494,906,qs),
(494,892,o),
(477,866,o),
(462,858,qs),
(289,765,l),
(285,765,l)
);
}
);
width = 721;
}
);
note = Aacute;
unicode = 193;
},
{
glyphname = Acircumflex;
kernLeft = A;
kernRight = A;
layers = (
{
layerId = m01;
shapes = (
{
closed = 1;
nodes = (
(472,216,l),
(520,102,ls),
(527,87,o),
(527,73,qs),
(527,55,o),
(503,33,o),
(481,31,qs),
(464,29,l),
(464,0,l),
(715,0,l),
(715,27,l),
(683,34,o),
(646,69,o),
(631,103,qs),
(362,733,l),
(360,733,l),
(93,111,ls),
(64,43,o),
(6,27,q),
(6,0,l),
(210,0,l),
(210,29,l),
(193,31,ls),
(140,37,o),
(140,81,qs),
(140,102,o),
(153,132,qs),
(197,236,l),
(500,236,l),
(508,216,l)
);
},
{
closed = 1;
nodes = (
(205,765,l),
(371,873,l),
(407,873,l),
(357,838,l),
(515,765,l),
(519,765,l),
(415,915,l),
(305,915,l),
(201,765,l)
);
},
{
closed = 1;
nodes = (
(331,556,l),
(450,271,l),
(212,271,l)
);
}
);
width = 721;
}
);
note = Acircumflex;
unicode = 194;
},
{
glyphname = Adieresis;
kernLeft = A;
kernRight = A;
layers = (
{
layerId = m01;
shapes = (
{
closed = 1;
nodes = (
(472,216,l),
(520,102,ls),
(527,87,o),
(527,73,qs),
(527,55,o),
(503,33,o),
(481,31,qs),
(464,29,l),
(464,0,l),
(715,0,l),
(715,27,l),
(683,34,o),
(646,69,o),
(631,103,qs),
(362,733,l),
(360,733,l),
(93,111,ls),
(64,43,o),
(6,27,q),
(6,0,l),
(210,0,l),
(210,29,l),
(193,31,ls),
(140,37,o),
(140,81,qs),
(140,102,o),
(153,132,qs),
(197,236,l),
(500,236,l),
(508,216,l)
);
},
{
closed = 1;
nodes = (
(331,556,l),
(450,271,l),
(212,271,l)
);
},
{
closed = 1;
nodes = (
(312,805,l),
(312,904,l),
(214,904,l),
(214,805,l)
);
},
{
closed = 1;
nodes = (
(506,805,l),
(506,904,l),
(408,904,l),
(408,805,l)
);
}
);
width = 721;
}
);
note = Adieresis;
unicode = 196;
},
{
glyphname = Agrave;
kernLeft = A;
kernRight = A;
layers = (
{
layerId = m01;
shapes = (
{
closed = 1;
nodes = (
(472,216,l),
(520,102,ls),
(527,87,o),
(527,73,qs),
(527,55,o),
(503,33,o),
(481,31,qs),
(464,29,l),
(464,0,l),
(715,0,l),
(715,27,l),
(683,34,o),
(646,69,o),
(631,103,qs),
(362,733,l),
(360,733,l),
(93,111,ls),
(64,43,o),
(6,27,q),
(6,0,l),
(210,0,l),
(210,29,l),
(193,31,ls),
(140,37,o),
(140,81,qs),
(140,102,o),
(153,132,qs),
(197,236,l),
(500,236,l),
(508,216,l)
);
},
{
closed = 1;
nodes = (
(331,556,l),
(450,271,l),
(212,271,l)
);
},
{
closed = 1;
nodes = (
(431,765,l),
(435,765,l),
(342,901,ls),
(323,928,o),
(294,950,o),
(274,950,qs),
(252,950,o),
(226,924,o),
(226,906,qs),
(226,892,o),
(243,866,o),
(258,858,qs)
);
}
);
width = 721;
}
);
note = Agrave;
unicode = 192;
},
{
glyphname = Aring;
kernLeft = A;
kernRight = A;
layers = (
{
layerId = m01;
shapes = (
{
closed = 1;
nodes = (
(472,216,l),
(520,102,ls),
(527,87,o),
(527,73,qs),
(527,55,o),
(503,33,o),
(481,31,qs),
(464,29,l),
(464,0,l),
(715,0,l),
(715,27,l),
(683,34,o),
(646,69,o),
(631,103,qs),
(362,733,l),
(360,733,l),
(93,111,ls),
(64,43,o),
(6,27,q),
(6,0,l),
(210,0,l),
(210,29,l),
(193,31,ls),
(140,37,o),
(140,81,qs),
(140,102,o),
(153,132,qs),
(197,236,l),
(500,236,l),
(508,216,l)
);
},
{
closed = 1;
nodes = (
(331,556,l),
(450,271,l),
(212,271,l)
);
},
{
closed = 1;
nodes = (
(261,807,o),
(318,753,o),
(360,753,qs),
(402,753,o),
(459,807,o),
(459,845,qs),
(459,886,o),
(402,940,o),
(360,940,qs),
(318,940,o),
(261,886,o),
(261,845,qs)
);
},
{
closed = 1;
nodes = (
(301,871,o),
(332,904,o),
(360,904,qs),
(388,904,o),
(419,871,o),
(419,845,qs),
(419,821,o),
(387,788,o),
(360,788,qs),
(333,788,o),
(301,821,o),
(301,845,qs)
);
}
);
width = 721;
}
);
note = Aring;
unicode = 197;
},
{
glyphname = Atilde;
kernLeft = A;
kernRight = A;
layers = (
{
layerId = m01;
shapes = (
{
closed = 1;
nodes = (
(472,216,l),
(520,102,ls),
(527,87,o),
(527,73,qs),
(527,55,o),
(503,33,o),
(481,31,qs),
(464,29,l),
(464,0,l),
(715,0,l),
(715,27,l),
(683,34,o),
(646,69,o),
(631,103,qs),
(362,733,l),
(360,733,l),
(93,111,ls),
(64,43,o),
(6,27,q),
(6,0,l),
(210,0,l),
(210,29,l),
(193,31,ls),
(140,37,o),
(140,81,qs),
(140,102,o),
(153,132,qs),
(197,236,l),
(500,236,l),
(508,216,l)
);
},
{
closed = 1;
nodes = (
(183,780,l),
(204,816,o),
(242,845,o),
(261,845,qs),
(277,845,o),
(314,829,o),
(343,813,qs),
(372,797,o),
(410,780,o),
(427,780,qs),
(464,780,o),
(518,848,o),
(541,924,q),
(537,924,l),
(516,889,o),
(478,860,o),
(459,860,qs),
(444,860,o),
(407,876,o),
(381,891,qs),
(352,908,o),
(311,925,o),
(293,925,qs),
(256,925,o),
(202,856,o),
(179,780,q)
);
},
{
closed = 1;
nodes = (
(331,556,l),
(450,271,l),
(212,271,l)
);
}
);
width = 721;
}
);
note = Atilde;
unicode = 195;
},
{
glyphname = Ccedilla;
kernLeft = C;
kernRight = C;
layers = (
{
layerId = m01;
shapes = (
{
closed = 1;
nodes = (
(271,-189,l),
(298,-205,o),
(335,-205,qs),
(380,-205,o),
(439,-163,o),
(439,-131,qs),
(439,-111,o),
(413,-73,o),
(375,-51,qs),
(368,-47,l),
(351,-76,l),
(332,-65,l),
(364,-10,l),
(456,-10,o),
(597,104,o),
(626,201,q),
(622,203,l),
(573,120,o),
(458,44,o),
(381,44,qs),
(313,44,o),
(207,122,o),
(149,263,o),
(149,354,qs),
(149,446,o),
(203,586,o),
(302,663,o),
(366,663,qs),
(432,663,o),
(533,585,o),
(565,508,qs),
(585,462,l),
(619,462,l),
(619,707,l),
(542,664,l),
(549,658,o),
(568,637,o),
(574,629,q),
(574,594,l),
(499,710,o),
(364,710,qs),
(271,710,o),
(119,613,o),
(32,443,o),
(32,340,qs),
(32,246,o),
(109,93,o),
(245,-1,o),
(331,-9,q),
(287,-80,l),
(335,-109,ls),
(364,-127,o),
(364,-148,qs),
(364,-165,o),
(325,-186,o),
(289,-186,qs),
(271,-185,l)
);
}
);
width = 665;
}
);
note = Ccedilla;
unicode = 199;
},
{
glyphname = Eacute;
kernRight = E;
layers = (
{
layerId = m01;
shapes = (
{
closed = 1;
nodes = (
(220,61,l),
(220,340,l),
(325,340,ls),
(363,340,o),
(402,304,o),
(412,260,qs),
(420,226,l),
(453,226,l),
(453,490,l),
(420,490,l),
(412,456,ls),
(402,411,o),
(363,375,o),
(325,375,qs),
(220,375,l),
(220,639,l),
(184,639,l),
(184,659,l),
(402,659,ls),
(460,659,o),
(529,600,o),
(547,535,qs),
(569,456,l),
(601,456,l),
(589,700,l),
(20,700,l),
(20,671,l),
(43,669,ls),
(114,663,o),
(114,595,qs),
(114,105,ls),
(114,37,o),
(43,31,qs),
(20,29,l),
(20,0,l),
(587,0,l),
(619,249,l),
(586,249,l),
(568,184,ls),
(548,110,o),
(470,41,o),
(409,41,qs),
(184,41,l),
(184,61,l)
);
},
{
closed = 1;
nodes = (
(371,901,ls),
(390,928,o),
(419,950,o),
(439,950,qs),
(461,950,o),
(487,924,o),
(487,906,qs),
(487,892,o),
(470,866,o),
(455,858,qs),
(282,765,l),
(278,765,l)
);
}
);
width = 660;
}
);
note = Eacute;
unicode = 201;
},
{
glyphname = Ecircumflex;
kernRight = E;
layers = (
{
layerId = m01;
shapes = (
{
closed = 1;
nodes = (
(220,61,l),
(220,340,l),
(325,340,ls),
(363,340,o),
(402,304,o),
(412,260,qs),
(420,226,l),
(453,226,l),
(453,490,l),
(420,490,l),
(412,456,ls),
(402,411,o),
(363,375,o),
(325,375,qs),
(220,375,l),
(220,639,l),
(184,639,l),
(184,659,l),
(402,659,ls),
(460,659,o),
(529,600,o),
(547,535,qs),
(569,456,l),
(601,456,l),
(589,700,l),
(20,700,l),
(20,671,l),
(43,669,ls),
(114,663,o),
(114,595,qs),
(114,105,ls),
(114,37,o),
(43,31,qs),
(20,29,l),
(20,0,l),
(587,0,l),
(619,249,l),
(586,249,l),
(568,184,ls),
(548,110,o),
(470,41,o),
(409,41,qs),
(184,41,l),
(184,61,l)
);
},
{
closed = 1;
nodes = (
(198,765,l),
(364,873,l),
(400,873,l),
(350,838,l),
(508,765,l),
(512,765,l),
(408,915,l),
(298,915,l),
(194,765,l)
);
}
);
width = 660;
}
);
note = Ecircumflex;
unicode = 202;
},
{
glyphname = Edieresis;
kernRight = E;
layers = (
{
layerId = m01;
shapes = (
{
closed = 1;
nodes = (
(220,61,l),
(220,340,l),
(325,340,ls),
(363,340,o),
(402,304,o),
(412,260,qs),
(420,226,l),
(453,226,l),
(453,490,l),
(420,490,l),
(412,456,ls),
(402,411,o),
(363,375,o),
(325,375,qs),
(220,375,l),
(220,639,l),
(184,639,l),
(184,659,l),
(402,659,ls),
(460,659,o),
(529,600,o),
(547,535,qs),
(569,456,l),
(601,456,l),
(589,700,l),
(20,700,l),
(20,671,l),
(43,669,ls),
(114,663,o),
(114,595,qs),
(114,105,ls),
(114,37,o),
(43,31,qs),
(20,29,l),
(20,0,l),
(587,0,l),
(619,249,l),
(586,249,l),
(568,184,ls),
(548,110,o),
(470,41,o),
(409,41,qs),
(184,41,l),
(184,61,l)
);
},
{
closed = 1;
nodes = (
(305,805,l),
(305,904,l),
(207,904,l),
(207,805,l)
);
},
{
closed = 1;
nodes = (
(499,805,l),
(499,904,l),
(401,904,l),
(401,805,l)
);
}
);
width = 660;
}
);
note = Edieresis;
unicode = 203;
},
{
glyphname = Egrave;
kernRight = E;
layers = (
{
layerId = m01;
shapes = (
{
closed = 1;
nodes = (
(220,61,l),
(220,340,l),
(325,340,ls),
(363,340,o),
(402,304,o),
(412,260,qs),
(420,226,l),
(453,226,l),
(453,490,l),
(420,490,l),
(412,456,ls),
(402,411,o),
(363,375,o),
(325,375,qs),
(220,375,l),
(220,639,l),
(184,639,l),
(184,659,l),
(402,659,ls),
(460,659,o),
(529,600,o),
(547,535,qs),
(569,456,l),
(601,456,l),
(589,700,l),
(20,700,l),
(20,671,l),
(43,669,ls),
(114,663,o),
(114,595,qs),
(114,105,ls),
(114,37,o),
(43,31,qs),
(20,29,l),
(20,0,l),
(587,0,l),
(619,249,l),
(586,249,l),
(568,184,ls),
(548,110,o),
(470,41,o),
(409,41,qs),
(184,41,l),
(184,61,l)
);
},
{
closed = 1;
nodes = (
(424,765,l),
(428,765,l),
(335,901,ls),
(316,928,o),
(287,950,o),
(267,950,qs),
(245,950,o),
(219,924,o),
(219,906,qs),
(219,892,o),
(236,866,o),
(251,858,qs)
);
}
);
width = 660;
}
);
note = Egrave;
unicode = 200;
},
{
glyphname = Iacute;
kernRight = H;
layers = (
{
layerId = m01;
shapes = (
{
closed = 1;
nodes = (
(220,595,ls),
(220,663,o),
(291,669,qs),
(314,671,l),
(314,700,l),
(20,700,l),
(20,671,l),
(43,669,ls),
(114,663,o),
(114,595,qs),
(114,105,ls),
(114,37,o),
(43,31,qs),
(20,29,l),
(20,0,l),
(314,0,l),
(314,29,l),
(291,31,ls),
(220,37,o),
(220,105,qs)
);
},
{
closed = 1;
nodes = (
(185,901,ls),
(204,928,o),
(233,950,o),
(253,950,qs),
(275,950,o),
(301,924,o),
(301,906,qs),
(301,892,o),
(284,866,o),
(269,858,qs),
(96,765,l),
(92,765,l)
);
}
);
width = 334;
}
);
note = Iacute;
unicode = 205;
},
{
glyphname = Icircumflex;
kernRight = H;
layers = (
{
layerId = m01;
shapes = (
{
closed = 1;
nodes = (
(220,595,ls),
(220,663,o),
(291,669,qs),
(314,671,l),
(314,700,l),
(20,700,l),
(20,671,l),
(43,669,ls),
(114,663,o),
(114,595,qs),
(114,105,ls),
(114,37,o),
(43,31,qs),
(20,29,l),
(20,0,l),
(314,0,l),
(314,29,l),
(291,31,ls),
(220,37,o),
(220,105,qs)
);
},
{
closed = 1;
nodes = (
(12,765,l),
(178,873,l),
(214,873,l),
(164,838,l),
(322,765,l),
(326,765,l),
(222,915,l),
(112,915,l),
(8,765,l)
);
}
);
width = 334;
}
);
note = Icircumflex;
unicode = 206;
},
{
glyphname = Idieresis;
kernRight = H;
layers = (
{
layerId = m01;
shapes = (
{
closed = 1;
nodes = (
(220,595,ls),
(220,663,o),
(291,669,qs),
(314,671,l),
(314,700,l),
(20,700,l),
(20,671,l),
(43,669,ls),
(114,663,o),
(114,595,qs),
(114,105,ls),
(114,37,o),
(43,31,qs),
(20,29,l),
(20,0,l),
(314,0,l),
(314,29,l),
(291,31,ls),
(220,37,o),
(220,105,qs)
);
},
{
closed = 1;
nodes = (
(119,805,l),
(119,904,l),
(21,904,l),
(21,805,l)
);
},
{
closed = 1;
nodes = (
(313,805,l),
(313,904,l),
(215,904,l),
(215,805,l)
);
}
);
width = 334;
}
);
note = Idieresis;
unicode = 207;
},
{
glyphname = Igrave;
kernRight = H;
layers = (
{
layerId = m01;
shapes = (
{
closed = 1;
nodes = (
(220,595,ls),
(220,663,o),
(291,669,qs),
(314,671,l),
(314,700,l),
(20,700,l),
(20,671,l),
(43,669,ls),
(114,663,o),
(114,595,qs),
(114,105,ls),
(114,37,o),
(43,31,qs),
(20,29,l),
(20,0,l),
(314,0,l),
(314,29,l),
(291,31,ls),
(220,37,o),
(220,105,qs)
);
},
{
closed = 1;
nodes = (
(238,765,l),
(242,765,l),
(149,901,ls),
(130,928,o),
(101,950,o),
(81,950,qs),
(59,950,o),
(33,924,o),
(33,906,qs),
(33,892,o),
(50,866,o),
(65,858,qs)
);
}
);
width = 334;
}
);
note = Igrave;
unicode = 204;
},
{
glyphname = Ntilde;
kernRight = N;
layers = (
{
layerId = m01;
shapes = (
{
closed = 1;
nodes = (
(650,584,ls),
(650,622,o),
(685,663,o),
(721,668,qs),
(744,671,l),
(744,700,l),
(502,700,l),
(502,671,l),
(525,668,ls),
(597,659,o),
(597,584,qs),
(597,189,l),
(578,211,l),
(578,248,l),
(196,700,l),
(34,700,l),
(114,618,l),
(114,116,ls),
(114,78,o),
(79,37,o),
(43,32,qs),
(20,29,l),
(20,0,l),
(262,0,l),
(262,29,l),
(239,32,ls),
(167,41,o),
(167,116,qs),
(167,570,l),
(650,-10,l)
);
},
{
closed = 1;
nodes = (
(222,780,l),
(243,816,o),
(281,845,o),
(300,845,qs),
(316,845,o),
(353,829,o),
(382,813,qs),
(411,797,o),
(449,780,o),
(466,780,qs),
(503,780,o),
(557,848,o),
(580,924,q),
(576,924,l),
(555,889,o),
(517,860,o),
(498,860,qs),
(483,860,o),
(446,876,o),
(420,891,qs),
(391,908,o),
(350,925,o),
(332,925,qs),
(295,925,o),
(241,856,o),
(218,780,q)
);
}
);
width = 759;
}
);
note = Ntilde;
unicode = 209;
},
{
glyphname = Oacute;
kernLeft = C;
kernRight = D;
layers = (
{
layerId = m01;
shapes = (
{
closed = 1;
nodes = (
(456,-11,o),
(610,85,o),
(700,253,o),
(700,355,qs),
(700,457,o),
(611,620,o),
(459,712,o),
(368,712,qs),
(276,712,o),
(122,616,o),
(32,449,o),
(32,347,qs),
(32,245,o),
(121,81,o),
(273,-11,o),
(364,-11,qs)
);
},
{
closed = 1;
nodes = (
(146,461,o),
(200,597,o),
(295,670,o),
(354,670,qs),
(420,670,o),
(523,588,o),
(582,434,o),
(582,331,qs),
(582,241,o),
(528,105,o),
(433,32,o),
(374,32,qs),
(308,32,o),
(205,114,o),
(146,268,o),
(146,371,qs)
);
},
{
closed = 1;
nodes = (
(379,901,ls),
(398,928,o),
(427,950,o),
(447,950,qs),
(469,950,o),
(495,924,o),
(495,906,qs),
(495,892,o),
(478,866,o),
(463,858,qs),
(290,765,l),
(286,765,l)
);
}
);
width = 731;
}
);
note = Oacute;
unicode = 211;
},
{
glyphname = Ocircumflex;
kernLeft = C;
kernRight = D;
layers = (
{
layerId = m01;
shapes = (
{
closed = 1;
nodes = (
(456,-11,o),
(610,85,o),
(700,253,o),
(700,355,qs),
(700,457,o),
(611,620,o),
(459,712,o),
(368,712,qs),
(276,712,o),
(122,616,o),
(32,449,o),
(32,347,qs),
(32,245,o),
(121,81,o),
(273,-11,o),
(364,-11,qs)
);
},
{
closed = 1;
nodes = (
(146,461,o),
(200,597,o),
(295,670,o),
(354,670,qs),
(420,670,o),
(523,588,o),
(582,434,o),
(582,331,qs),
(582,241,o),
(528,105,o),
(433,32,o),
(374,32,qs),
(308,32,o),
(205,114,o),
(146,268,o),
(146,371,qs)
);
},
{
closed = 1;
nodes = (
(206,765,l),
(372,873,l),
(408,873,l),
(358,838,l),
(516,765,l),
(520,765,l),
(416,915,l),
(306,915,l),
(202,765,l)
);
}
);
width = 731;
}
);
note = Ocircumflex;
unicode = 212;
},
{
glyphname = Odieresis;
kernLeft = C;
kernRight = D;
layers = (
{
layerId = m01;
shapes = (
{
closed = 1;
nodes = (
(456,-11,o),
(610,85,o),
(700,253,o),
(700,355,qs),
(700,457,o),
(611,620,o),
(459,712,o),
(368,712,qs),
(276,712,o),
(122,616,o),
(32,449,o),
(32,347,qs),
(32,245,o),
(121,81,o),
(273,-11,o),
(364,-11,qs)
);
},
{
closed = 1;
nodes = (
(146,461,o),
(200,597,o),
(295,670,o),
(354,670,qs),
(420,670,o),
(523,588,o),
(582,434,o),
(582,331,qs),
(582,241,o),
(528,105,o),
(433,32,o),
(374,32,qs),
(308,32,o),
(205,114,o),
(146,268,o),
(146,371,qs)
);
},
{
closed = 1;
nodes = (
(313,805,l),
(313,904,l),
(215,904,l),
(215,805,l)
);
},
{
closed = 1;
nodes = (
(507,805,l),
(507,904,l),
(409,904,l),
(409,805,l)
);
}
);
width = 731;
}
);
note = Odieresis;
unicode = 214;
},
{
glyphname = Ograve;
kernLeft = C;
kernRight = D;
layers = (
{
layerId = m01;
shapes = (
{
closed = 1;
nodes = (
(456,-11,o),
(610,85,o),
(700,253,o),
(700,355,qs),
(700,457,o),
(611,620,o),
(459,712,o),
(368,712,qs),
(276,712,o),
(122,616,o),
(32,449,o),
(32,347,qs),
(32,245,o),
(121,81,o),
(273,-11,o),
(364,-11,qs)
);
},
{
closed = 1;
nodes = (
(146,461,o),
(200,597,o),
(295,670,o),
(354,670,qs),
(420,670,o),
(523,588,o),
(582,434,o),
(582,331,qs),
(582,241,o),
(528,105,o),
(433,32,o),
(374,32,qs),
(308,32,o),
(205,114,o),
(146,268,o),
(146,371,qs)
);
},
{
closed = 1;
nodes = (
(432,765,l),
(436,765,l),
(343,901,ls),
(324,928,o),
(295,950,o),
(275,950,qs),
(253,950,o),
(227,924,o),
(227,906,qs),
(227,892,o),
(244,866,o),
(259,858,qs)
);
}
);
width = 731;
}
);
note = Ograve;
unicode = 210;
},
{
glyphname = Otilde;
kernLeft = C;
kernRight = D;
layers = (
{
layerId = m01;
shapes = (
{
closed = 1;
nodes = (
(456,-11,o),
(610,85,o),
(700,253,o),
(700,355,qs),
(700,457,o),
(611,620,o),
(459,712,o),
(368,712,qs),
(276,712,o),
(122,616,o),
(32,449,o),
(32,347,qs),
(32,245,o),
(121,81,o),
(273,-11,o),
(364,-11,qs)
);
},
{
closed = 1;
nodes = (
(146,461,o),
(200,597,o),
(295,670,o),
(354,670,qs),
(420,670,o),
(523,588,o),
(582,434,o),
(582,331,qs),
(582,241,o),
(528,105,o),
(433,32,o),
(374,32,qs),
(308,32,o),
(205,114,o),
(146,268,o),
(146,371,qs)
);
},
{
closed = 1;
nodes = (
(184,780,l),
(205,816,o),
(243,845,o),
(262,845,qs),
(278,845,o),
(315,829,o),
(344,813,qs),
(373,797,o),
(411,780,o),
(428,780,qs),
(465,780,o),
(519,848,o),
(542,924,q),
(538,924,l),
(517,889,o),
(479,860,o),
(460,860,qs),
(445,860,o),
(408,876,o),
(382,891,qs),
(353,908,o),
(312,925,o),
(294,925,qs),
(257,925,o),
(203,856,o),
(180,780,q)
);
}
);
width = 731;
}
);
note = Otilde;
unicode = 213;
},
{
glyphname = Scaron;
kernLeft = S;
kernRight = S;
layers = (
{
layerId = m01;
shapes = (
{
closed = 1;
nodes = (
(352,-11,o),
(460,41,o),
(520,136,o),
(520,198,qs),
(520,259,o),
(455,349,o),
(394,373,qs),
(210,445,ls),
(167,462,o),
(121,520,o),
(121,557,qs),
(121,606,o),
(184,665,o),
(237,665,qs),
(300,665,o),
(389,593,o),
(422,516,qs),
(440,474,l),
(475,474,l),
(472,708,l),
(400,667,l),
(406,661,o),
(425,639,o),
(431,630,q),
(432,593,l),
(400,649,o),
(301,710,o),
(240,710,qs),
(180,710,o),
(87,660,o),
(35,571,o),
(35,514,qs),
(35,458,o),
(96,375,o),
(155,351,qs),
(326,283,ls),
(375,264,o),
(428,200,o),
(428,159,qs),
(428,102,o),
(350,34,o),
(283,34,qs),
(156,34,o),
(91,178,qs),
(65,235,l),
(30,235,l),
(33,-9,l),
(107,35,l),
(81,57,o),
(76,64,q),
(75,98,l),
(159,-11,o),
(281,-11,qs)
);
},
{
closed = 1;
nodes = (
(206,778,l),
(316,778,l),
(420,928,l),
(416,928,l),
(250,820,l),
(214,820,l),
(264,855,l),
(106,928,l),
(102,928,l)
);
}
);
width = 545;
}
);
note = Scaron;
unicode = 352;
},
{
glyphname = Uacute;
kernLeft = U;
kernRight = J;
layers = (
{
layerId = m01;
shapes = (
{
closed = 1;
nodes = (
(456,-11,o),
(581,61,o),
(649,194,o),
(649,283,qs),
(649,584,ls),
(649,622,o),
(684,663,o),
(720,668,qs),
(743,671,l),
(743,700,l),
(501,700,l),
(501,671,l),
(524,668,ls),
(596,659,o),
(596,584,qs),
(596,296,ls),
(596,183,o),
(490,51,o),
(399,51,qs),
(317,51,o),
(219,159,o),
(219,250,qs),
(219,595,ls),
(219,663,o),
(290,669,qs),
(313,671,l),
(313,700,l),
(20,700,l),
(20,671,l),
(43,669,ls),
(114,663,o),
(114,595,qs),
(114,230,ls),
(114,157,o),
(177,48,o),
(294,-11,o),
(372,-11,qs)
);
},
{
closed = 1;
nodes = (
(424,901,ls),
(443,928,o),
(472,950,o),
(492,950,qs),
(514,950,o),
(540,924,o),
(540,906,qs),
(540,892,o),
(523,866,o),
(508,858,qs),
(335,765,l),
(331,765,l)
);
}
);
width = 763;
}
);
note = Uacute;
unicode = 218;
},
{
glyphname = Ucircumflex;
kernLeft = U;
kernRight = J;
layers = (
{
layerId = m01;
shapes = (
{
closed = 1;
nodes = (
(456,-11,o),
(581,61,o),
(649,194,o),
(649,283,qs),
(649,584,ls),
(649,622,o),
(684,663,o),
(720,668,qs),
(743,671,l),
(743,700,l),
(501,700,l),
(501,671,l),
(524,668,ls),
(596,659,o),
(596,584,qs),
(596,296,ls),
(596,183,o),
(490,51,o),
(399,51,qs),
(317,51,o),
(219,159,o),
(219,250,qs),
(219,595,ls),
(219,663,o),
(290,669,qs),
(313,671,l),
(313,700,l),
(20,700,l),
(20,671,l),
(43,669,ls),
(114,663,o),
(114,595,qs),
(114,230,ls),
(114,157,o),
(177,48,o),
(294,-11,o),
(372,-11,qs)
);
},
{
closed = 1;
nodes = (
(251,765,l),
(417,873,l),
(453,873,l),
(403,838,l),
(561,765,l),
(565,765,l),
(461,915,l),
(351,915,l),
(247,765,l)
);
}
);
width = 763;
}
);
note = Ucircumflex;
unicode = 219;
},
{
glyphname = Udieresis;
kernLeft = U;
kernRight = J;
layers = (
{
layerId = m01;
shapes = (
{
closed = 1;
nodes = (
(456,-11,o),
(581,61,o),
(649,194,o),
(649,283,qs),
(649,584,ls),
(649,622,o),
(684,663,o),
(720,668,qs),
(743,671,l),
(743,700,l),
(501,700,l),
(501,671,l),
(524,668,ls),
(596,659,o),
(596,584,qs),
(596,296,ls),
(596,183,o),
(490,51,o),
(399,51,qs),
(317,51,o),
(219,159,o),
(219,250,qs),
(219,595,ls),
(219,663,o),
(290,669,qs),
(313,671,l),
(313,700,l),
(20,700,l),
(20,671,l),
(43,669,ls),
(114,663,o),
(114,595,qs),
(114,230,ls),
(114,157,o),
(177,48,o),
(294,-11,o),
(372,-11,qs)
);
},
{
closed = 1;
nodes = (
(358,805,l),
(358,904,l),
(260,904,l),
(260,805,l)
);
},
{
closed = 1;
nodes = (
(552,805,l),
(552,904,l),
(454,904,l),
(454,805,l)
);
}
);
width = 763;
}
);
note = Udieresis;
unicode = 220;
},
{
glyphname = Ugrave;
kernLeft = U;
kernRight = J;
layers = (
{
layerId = m01;
shapes = (
{
closed = 1;
nodes = (
(456,-11,o),
(581,61,o),
(649,194,o),
(649,283,qs),
(649,584,ls),
(649,622,o),
(684,663,o),
(720,668,qs),
(743,671,l),
(743,700,l),
(501,700,l),
(501,671,l),
(524,668,ls),
(596,659,o),
(596,584,qs),
(596,296,ls),
(596,183,o),
(490,51,o),
(399,51,qs),
(317,51,o),
(219,159,o),
(219,250,qs),
(219,595,ls),
(219,663,o),
(290,669,qs),
(313,671,l),
(313,700,l),
(20,700,l),
(20,671,l),
(43,669,ls),
(114,663,o),
(114,595,qs),
(114,230,ls),
(114,157,o),
(177,48,o),
(294,-11,o),
(372,-11,qs)
);
},
{
closed = 1;
nodes = (
(477,765,l),
(481,765,l),
(388,901,ls),
(369,928,o),
(340,950,o),
(320,950,qs),
(298,950,o),
(272,924,o),
(272,906,qs),
(272,892,o),
(289,866,o),
(304,858,qs)
);
}
);
width = 763;
}
);
note = Ugrave;
unicode = 217;
},
{
glyphname = Yacute;
kernLeft = Y;
kernRight = Y;
layers = (
{
layerId = m01;
shapes = (
{
closed = 1;
nodes = (
(369,312,l),
(356,327,l),
(376,357,l),
(223,588,ls),
(208,612,o),
(208,630,qs),
(208,646,o),
(228,666,o),
(247,668,qs),
(272,671,l),
(272,700,l),
(21,700,l),
(21,673,l),
(42,669,o),
(77,640,o),
(95,613,qs),
(314,285,l),
(314,105,ls),
(314,37,o),
(243,31,qs),
(220,29,l),
(220,0,l),
(511,0,l),
(511,29,l),
(488,31,ls),
(417,37,o),
(417,105,qs),
(417,313,l),
(610,599,ls),
(632,632,o),
(672,667,o),
(695,673,q),
(695,700,l),
(486,700,l),
(486,671,l),
(503,669,ls),
(558,663,o),
(558,623,qs),
(558,598,o),
(536,566,qs)
);
},
{
closed = 1;
nodes = (
(396,901,ls),
(415,928,o),
(444,950,o),
(464,950,qs),
(486,950,o),
(512,924,o),
(512,906,qs),
(512,892,o),
(495,866,o),
(480,858,qs),
(307,765,l),
(303,765,l)
);
}
);
width = 716;
}
);
note = Yacute;
unicode = 221;
},
{
glyphname = Ydieresis;
kernLeft = Y;
kernRight = Y;
layers = (
{
layerId = m01;
shapes = (
{
closed = 1;
nodes = (
(369,312,l),
(356,327,l),
(376,357,l),
(223,588,ls),
(208,612,o),
(208,630,qs),
(208,646,o),
(228,666,o),
(247,668,qs),
(272,671,l),
(272,700,l),
(21,700,l),
(21,673,l),
(42,669,o),
(77,640,o),
(95,613,qs),
(314,285,l),
(314,105,ls),
(314,37,o),
(243,31,qs),
(220,29,l),
(220,0,l),
(511,0,l),
(511,29,l),
(488,31,ls),
(417,37,o),
(417,105,qs),
(417,313,l),
(610,599,ls),
(632,632,o),
(672,667,o),
(695,673,q),
(695,700,l),
(486,700,l),
(486,671,l),
(503,669,ls),
(558,663,o),
(558,623,qs),
(558,598,o),
(536,566,qs)
);
},
{
closed = 1;
nodes = (
(330,805,l),
(330,904,l),
(232,904,l),
(232,805,l)
);
},
{
closed = 1;
nodes = (
(524,805,l),
(524,904,l),
(426,904,l),
(426,805,l)
);
}
);
width = 716;
}
);
note = Ydieresis;
unicode = 376;
},
{
glyphname = Zcaron;
kernLeft = Z;
kernRight = Z;
layers = (
{
layerId = m01;
shapes = (
{
closed = 1;
nodes = (
(420,640,l),
(13,0,l),
(561,0,l),
(593,249,l),
(560,249,l),
(542,184,ls),
(522,110,o),
(444,41,o),
(383,41,qs),
(120,41,l),
(132,60,l),
(165,60,l),
(573,700,l),
(56,700,l),
(44,456,l),
(76,456,l),
(98,535,ls),
(116,600,o),
(185,659,o),
(243,659,qs),
(466,659,l),
(454,640,l)
);
},
{
closed = 1;
nodes = (
(256,778,l),
(366,778,l),
(470,928,l),
(466,928,l),
(300,820,l),
(264,820,l),
(314,855,l),
(156,928,l),
(152,928,l)
);
}
);
width = 610;
}
);
note = Zcaron;
unicode = 381;
},
{
glyphname = aacute;
kernLeft = a;
kernRight = a;
layers = (
{
layerId = m01;
shapes = (
{
closed = 1;
nodes = (
(317,59,l),
(318,28,o),
(356,-6,o),
(390,-6,qs),
(419,-6,o),
(477,36,o),
(490,67,q),
(488,68,l),
(476,57,o),
(453,48,o),
(438,48,qs),
(424,48,o),
(406,66,o),
(406,82,qs),
(406,336,ls),
(406,406,o),
(316,480,o),
(231,480,qs),
(181,480,o),
(99,445,o),
(53,390,o),
(53,362,qs),
(53,340,o),
(81,310,o),
(100,310,qs),
(124,310,o),
(152,340,o),
(152,370,qs),
(152,382,o),
(151,388,q),
(120,388,l),
(124,411,o),
(183,441,o),
(222,441,qs),
(264,441,o),
(315,385,o),
(315,338,qs),
(315,292,l),
(161,240,ls),
(90,216,o),
(34,158,o),
(34,109,qs),
(34,53,o),
(105,-10,o),
(167,-10,qs),
(213,-10,o),
(286,40,o),
(330,107,qs),
(340,122,l),
(340,95,l)
);
},
{
closed = 1;
nodes = (
(125,161,o),
(164,207,o),
(212,224,qs),
(315,260,l),
(315,126,l),
(294,89,o),
(232,43,o),
(201,43,qs),
(167,43,o),
(125,87,o),
(125,122,qs)
);
},
{
closed = 1;
nodes = (
(246,671,ls),
(265,698,o),
(294,720,o),
(314,720,qs),
(336,720,o),
(362,694,o),
(362,676,qs),
(362,662,o),
(345,636,o),
(330,628,qs),
(157,535,l),
(153,535,l)
);
}
);
width = 501;
}
);
note = aacute;
unicode = 225;
},
{
glyphname = acircumflex;
kernLeft = a;
kernRight = a;
layers = (
{
layerId = m01;
shapes = (
{
closed = 1;
nodes = (
(317,59,l),
(318,28,o),
(356,-6,o),
(390,-6,qs),
(419,-6,o),
(477,36,o),
(490,67,q),
(488,68,l),
(476,57,o),
(453,48,o),
(438,48,qs),
(424,48,o),
(406,66,o),
(406,82,qs),
(406,336,ls),
(406,406,o),
(316,480,o),
(231,480,qs),
(181,480,o),
(99,445,o),
(53,390,o),
(53,362,qs),
(53,340,o),
(81,310,o),
(100,310,qs),
(124,310,o),
(152,340,o),
(152,370,qs),
(152,382,o),
(151,388,q),
(120,388,l),
(124,411,o),
(183,441,o),
(222,441,qs),
(264,441,o),
(315,385,o),
(315,338,qs),
(315,292,l),
(161,240,ls),
(90,216,o),
(34,158,o),
(34,109,qs),
(34,53,o),
(105,-10,o),
(167,-10,qs),
(213,-10,o),
(286,40,o),
(330,107,qs),
(340,122,l),
(340,95,l)
);
},
{
closed = 1;
nodes = (
(73,535,l),
(239,643,l),
(275,643,l),
(225,608,l),
(383,535,l),
(387,535,l),
(283,685,l),
(173,685,l),
(69,535,l)
);
},
{
closed = 1;
nodes = (
(125,161,o),
(164,207,o),
(212,224,qs),
(315,260,l),
(315,126,l),
(294,89,o),
(232,43,o),
(201,43,qs),
(167,43,o),
(125,87,o),
(125,122,qs)
);
}
);
width = 501;
}
);
note = acircumflex;
unicode = 226;
},
{
glyphname = adieresis;
kernLeft = a;
kernRight = a;
layers = (
{
layerId = m01;
shapes = (
{
closed = 1;
nodes = (
(317,59,l),
(318,28,o),
(356,-6,o),
(390,-6,qs),
(419,-6,o),
(477,36,o),
(490,67,q),
(488,68,l),
(476,57,o),
(453,48,o),
(438,48,qs),
(424,48,o),
(406,66,o),
(406,82,qs),
(406,336,ls),
(406,406,o),
(316,480,o),
(231,480,qs),
(181,480,o),
(99,445,o),
(53,390,o),
(53,362,qs),
(53,340,o),
(81,310,o),
(100,310,qs),
(124,310,o),
(152,340,o),
(152,370,qs),
(152,382,o),
(151,388,q),
(120,388,l),
(124,411,o),
(183,441,o),
(222,441,qs),
(264,441,o),
(315,385,o),
(315,338,qs),
(315,292,l),
(161,240,ls),
(90,216,o),
(34,158,o),
(34,109,qs),
(34,53,o),
(105,-10,o),
(167,-10,qs),
(213,-10,o),
(286,40,o),
(330,107,qs),
(340,122,l),
(340,95,l)
);
},
{
closed = 1;
nodes = (
(180,575,l),
(180,674,l),
(82,674,l),
(82,575,l)
);
},
{
closed = 1;
nodes = (
(125,161,o),
(164,207,o),
(212,224,qs),
(315,260,l),
(315,126,l),
(294,89,o),
(232,43,o),
(201,43,qs),
(167,43,o),
(125,87,o),
(125,122,qs)
);
},
{
closed = 1;
nodes = (
(374,575,l),
(374,674,l),
(276,674,l),
(276,575,l)
);
}
);
width = 501;
}
);
note = adieresis;
unicode = 228;
},
{
glyphname = agrave;
kernLeft = a;
kernRight = a;
layers = (
{
layerId = m01;
shapes = (
{
closed = 1;
nodes = (
(317,59,l),
(318,28,o),
(356,-6,o),
(390,-6,qs),
(419,-6,o),
(477,36,o),
(490,67,q),
(488,68,l),
(476,57,o),
(453,48,o),
(438,48,qs),
(424,48,o),
(406,66,o),
(406,82,qs),
(406,336,ls),
(406,406,o),
(316,480,o),
(231,480,qs),
(181,480,o),
(99,445,o),
(53,390,o),
(53,362,qs),
(53,340,o),
(81,310,o),
(100,310,qs),
(124,310,o),
(152,340,o),
(152,370,qs),
(152,382,o),
(151,388,q),
(120,388,l),
(124,411,o),
(183,441,o),
(222,441,qs),
(264,441,o),
(315,385,o),
(315,338,qs),
(315,292,l),
(161,240,ls),
(90,216,o),
(34,158,o),
(34,109,qs),
(34,53,o),
(105,-10,o),
(167,-10,qs),
(213,-10,o),
(286,40,o),
(330,107,qs),
(340,122,l),
(340,95,l)
);
},
{
closed = 1;
nodes = (
(125,161,o),
(164,207,o),
(212,224,qs),
(315,260,l),
(315,126,l),
(294,89,o),
(232,43,o),
(201,43,qs),
(167,43,o),
(125,87,o),
(125,122,qs)
);
},
{
closed = 1;
nodes = (
(299,535,l),
(303,535,l),
(210,671,ls),
(191,698,o),
(162,720,o),
(142,720,qs),
(120,720,o),
(94,694,o),
(94,676,qs),
(94,662,o),
(111,636,o),
(126,628,qs)
);
}
);
width = 501;
}
);
note = agrave;
unicode = 224;
},
{
glyphname = aring;
kernLeft = a;
kernRight = a;
layers = (
{
layerId = m01;
shapes = (
{
closed = 1;
nodes = (
(317,59,l),
(318,28,o),
(356,-6,o),
(390,-6,qs),
(419,-6,o),
(477,36,o),
(490,67,q),
(488,68,l),
(476,57,o),
(453,48,o),
(438,48,qs),
(424,48,o),
(406,66,o),
(406,82,qs),
(406,336,ls),
(406,406,o),
(316,480,o),
(231,480,qs),
(181,480,o),
(99,445,o),
(53,390,o),
(53,362,qs),
(53,340,o),
(81,310,o),
(100,310,qs),
(124,310,o),
(152,340,o),
(152,370,qs),
(152,382,o),
(151,388,q),
(120,388,l),
(124,411,o),
(183,441,o),
(222,441,qs),
(264,441,o),
(315,385,o),
(315,338,qs),
(315,292,l),
(161,240,ls),
(90,216,o),
(34,158,o),
(34,109,qs),
(34,53,o),
(105,-10,o),
(167,-10,qs),
(213,-10,o),
(286,40,o),
(330,107,qs),
(340,122,l),
(340,95,l)
);
},
{
closed = 1;
nodes = (
(125,161,o),
(164,207,o),
(212,224,qs),
(315,260,l),
(315,126,l),
(294,89,o),
(232,43,o),
(201,43,qs),
(167,43,o),
(125,87,o),
(125,122,qs)
);
},
{
closed = 1;
nodes = (
(129,577,o),
(186,523,o),
(228,523,qs),
(270,523,o),
(327,577,o),
(327,615,qs),
(327,656,o),
(270,710,o),
(228,710,qs),
(186,710,o),
(129,656,o),
(129,615,qs)
);
},
{
closed = 1;
nodes = (
(169,641,o),
(200,674,o),
(228,674,qs),
(256,674,o),
(287,641,o),
(287,615,qs),
(287,591,o),
(255,558,o),
(228,558,qs),
(201,558,o),
(169,591,o),
(169,615,qs)
);
}
);
width = 501;
}
);
note = aring;
unicode = 229;
},
{
glyphname = atilde;
kernLeft = a;
kernRight = a;
layers = (
{
layerId = m01;
shapes = (
{
closed = 1;
nodes = (
(317,59,l),
(318,28,o),
(356,-6,o),
(390,-6,qs),
(419,-6,o),
(477,36,o),
(490,67,q),
(488,68,l),
(476,57,o),
(453,48,o),
(438,48,qs),
(424,48,o),
(406,66,o),
(406,82,qs),
(406,336,ls),
(406,406,o),
(316,480,o),
(231,480,qs),
(181,480,o),
(99,445,o),
(53,390,o),
(53,362,qs),
(53,340,o),
(81,310,o),
(100,310,qs),
(124,310,o),
(152,340,o),
(152,370,qs),
(152,382,o),
(151,388,q),
(120,388,l),
(124,411,o),
(183,441,o),
(222,441,qs),
(264,441,o),
(315,385,o),
(315,338,qs),
(315,292,l),
(161,240,ls),
(90,216,o),
(34,158,o),
(34,109,qs),
(34,53,o),
(105,-10,o),
(167,-10,qs),
(213,-10,o),
(286,40,o),
(330,107,qs),
(340,122,l),
(340,95,l)
);
},
{
closed = 1;
nodes = (
(51,550,l),
(72,586,o),
(110,615,o),
(129,615,qs),
(145,615,o),
(182,599,o),
(211,583,qs),
(240,567,o),
(278,550,o),
(295,550,qs),
(332,550,o),
(386,618,o),
(409,694,q),
(405,694,l),
(384,659,o),
(346,630,o),
(327,630,qs),
(312,630,o),
(275,646,o),
(249,661,qs),
(220,678,o),
(179,695,o),
(161,695,qs),
(124,695,o),
(70,626,o),
(47,550,q)
);
},
{
closed = 1;
nodes = (
(125,161,o),
(164,207,o),
(212,224,qs),
(315,260,l),
(315,126,l),
(294,89,o),
(232,43,o),
(201,43,qs),
(167,43,o),
(125,87,o),
(125,122,qs)
);
}
);
width = 501;
}
);
note = atilde;
unicode = 227;
},
{
glyphname = ccedilla;
kernLeft = c;
kernRight = c;
layers = (
{
layerId = m01;
shapes = (
{
closed = 1;
nodes = (
(169,-189,l),
(196,-205,o),
(233,-205,qs),
(278,-205,o),
(337,-163,o),
(337,-131,qs),
(337,-111,o),
(311,-73,o),
(273,-51,qs),
(266,-47,l),
(249,-76,l),
(230,-65,l),
(262,-10,l),
(318,-5,o),
(403,72,o),
(419,134,q),
(417,135,l),
(388,90,o),
(323,53,o),
(273,53,qs),
(232,53,o),
(165,105,o),
(128,197,o),
(128,255,qs),
(128,342,o),
(196,440,o),
(255,440,qs),
(292,440,o),
(340,410,o),
(343,385,q),
(322,385,l),
(320,371,o),
(320,365,qs),
(320,339,o),
(348,311,o),
(373,311,qs),
(394,311,o),
(423,341,o),
(423,363,qs),
(423,395,o),
(379,449,o),
(303,481,o),
(259,481,qs),
(196,481,o),
(91,414,o),
(30,298,o),
(30,228,qs),
(30,163,o),
(80,59,o),
(170,-4,o),
(228,-9,q),
(185,-80,l),
(233,-109,ls),
(262,-127,o),
(262,-148,qs),
(262,-165,o),
(223,-186,o),
(187,-186,qs),
(169,-185,l)
);
}
);
width = 442;
}
);
note = ccedilla;
unicode = 231;
},
{
glyphname = eacute;
kernLeft = c;
kernRight = e;
layers = (
{
layerId = m01;
shapes = (
{
closed = 1;
nodes = (
(438,266,l),
(440,328,o),
(393,426,o),
(305,480,o),
(248,480,qs),
(190,480,o),
(89,412,o),
(30,296,o),
(30,229,qs),
(30,158,o),
(87,50,o),
(192,-10,o),
(260,-10,qs),
(323,-10,o),
(416,69,o),
(429,134,q),
(427,135,l),
(381,52,o),
(278,52,qs),
(235,52,o),
(168,101,o),
(128,190,o),
(127,247,q),
(95,247,l),
(95,266,l)
);
},
{
closed = 1;
nodes = (
(136,368,o),
(194,440,o),
(241,440,qs),
(284,440,o),
(340,362,o),
(340,301,q),
(129,301,l)
);
},
{
closed = 1;
nodes = (
(259,671,ls),
(278,698,o),
(307,720,o),
(327,720,qs),
(349,720,o),
(375,694,o),
(375,676,qs),
(375,662,o),
(358,636,o),
(343,628,qs),
(170,535,l),
(166,535,l)
);
}
);
width = 473;
}
);
note = eacute;
unicode = 233;
},
{
glyphname = ecircumflex;
kernLeft = c;
kernRight = e;
layers = (
{
layerId = m01;
shapes = (
{
closed = 1;
nodes = (
(438,266,l),
(440,328,o),
(393,426,o),
(305,480,o),
(248,480,qs),
(190,480,o),
(89,412,o),
(30,296,o),
(30,229,qs),
(30,158,o),
(87,50,o),
(192,-10,o),
(260,-10,qs),
(323,-10,o),
(416,69,o),
(429,134,q),
(427,135,l),
(381,52,o),
(278,52,qs),
(235,52,o),
(168,101,o),
(128,190,o),
(127,247,q),
(95,247,l),
(95,266,l)
);
},
{
closed = 1;
nodes = (
(86,535,l),
(252,643,l),
(288,643,l),
(238,608,l),
(396,535,l),
(400,535,l),
(296,685,l),
(186,685,l),
(82,535,l)
);
},
{
closed = 1;
nodes = (
(136,368,o),
(194,440,o),
(241,440,qs),
(284,440,o),
(340,362,o),
(340,301,q),
(129,301,l)
);
}
);
width = 473;
}
);
note = ecircumflex;
unicode = 234;
},
{
glyphname = edieresis;
kernLeft = c;
kernRight = e;
layers = (
{
layerId = m01;
shapes = (
{
closed = 1;
nodes = (
(438,266,l),
(440,328,o),
(393,426,o),
(305,480,o),
(248,480,qs),
(190,480,o),
(89,412,o),
(30,296,o),
(30,229,qs),
(30,158,o),
(87,50,o),
(192,-10,o),
(260,-10,qs),
(323,-10,o),
(416,69,o),
(429,134,q),
(427,135,l),
(381,52,o),
(278,52,qs),
(235,52,o),
(168,101,o),
(128,190,o),
(127,247,q),
(95,247,l),
(95,266,l)
);
},
{
closed = 1;
nodes = (
(193,575,l),
(193,674,l),
(95,674,l),
(95,575,l)
);
},
{
closed = 1;
nodes = (
(136,368,o),
(194,440,o),
(241,440,qs),
(284,440,o),
(340,362,o),
(340,301,q),
(129,301,l)
);
},
{
closed = 1;
nodes = (
(387,575,l),
(387,674,l),
(289,674,l),
(289,575,l)
);
}
);
width = 473;
}
);
note = edieresis;
unicode = 235;
},
{
glyphname = egrave;
kernLeft = c;
kernRight = e;
layers = (
{
layerId = m01;
shapes = (
{
closed = 1;
nodes = (
(438,266,l),
(440,328,o),
(393,426,o),
(305,480,o),
(248,480,qs),
(190,480,o),
(89,412,o),
(30,296,o),
(30,229,qs),
(30,158,o),
(87,50,o),
(192,-10,o),
(260,-10,qs),
(323,-10,o),
(416,69,o),
(429,134,q),
(427,135,l),
(381,52,o),
(278,52,qs),
(235,52,o),
(168,101,o),
(128,190,o),
(127,247,q),
(95,247,l),
(95,266,l)
);
},
{
closed = 1;
nodes = (
(136,368,o),
(194,440,o),
(241,440,qs),
(284,440,o),
(340,362,o),
(340,301,q),
(129,301,l)
);
},
{
closed = 1;
nodes = (
(312,535,l),
(316,535,l),
(223,671,ls),
(204,698,o),
(175,720,o),
(155,720,qs),
(133,720,o),
(107,694,o),
(107,676,qs),
(107,662,o),
(124,636,o),
(139,628,qs)
);
}
);
width = 473;
}
);
note = egrave;
unicode = 232;
},
{
glyphname = iacute;
kernLeft = i;
kernRight = d;
layers = (
{
layerId = m01;
shapes = (
{
closed = 1;
nodes = (
(195,480,l),
(21,435,l),
(57,418,ls),
(86,404,o),
(103,384,o),
(103,364,qs),
(103,95,ls),
(103,34,o),
(45,28,qs),
(24,26,l),
(24,0,l),
(274,0,l),
(274,26,l),
(253,28,ls),
(195,34,o),
(195,95,qs)
);
},
{
closed = 1;
nodes = (
(166,671,ls),
(185,698,o),
(214,720,o),
(234,720,qs),
(256,720,o),
(282,694,o),
(282,676,qs),
(282,662,o),
(265,636,o),
(250,628,qs),
(77,535,l),
(73,535,l)
);
}
);
width = 294;
}
);
note = iacute;
unicode = 237;
},
{
glyphname = icircumflex;
kernLeft = i;
kernRight = d;
layers = (
{
layerId = m01;
shapes = (
{
closed = 1;
nodes = (
(195,480,l),
(21,435,l),
(57,418,ls),
(86,404,o),
(103,384,o),
(103,364,qs),
(103,95,ls),
(103,34,o),
(45,28,qs),
(24,26,l),
(24,0,l),
(274,0,l),
(274,26,l),
(253,28,ls),
(195,34,o),
(195,95,qs)
);
},
{
closed = 1;
nodes = (
(-7,535,l),
(159,643,l),
(195,643,l),
(145,608,l),
(303,535,l),
(307,535,l),
(203,685,l),
(93,685,l),
(-11,535,l)
);
}
);
width = 294;
}
);
note = icircumflex;
unicode = 238;
},
{
glyphname = idieresis;
kernLeft = i;
kernRight = d;
layers = (
{
layerId = m01;
shapes = (
{
closed = 1;
nodes = (
(195,480,l),
(21,435,l),
(57,418,ls),
(86,404,o),
(103,384,o),
(103,364,qs),
(103,95,ls),
(103,34,o),
(45,28,qs),
(24,26,l),
(24,0,l),
(274,0,l),
(274,26,l),
(253,28,ls),
(195,34,o),
(195,95,qs)
);
},
{
closed = 1;
nodes = (
(100,575,l),
(100,674,l),
(2,674,l),
(2,575,l)
);
},
{
closed = 1;
nodes = (
(294,575,l),
(294,674,l),
(196,674,l),
(196,575,l)
);
}
);
width = 294;
}
);
note = idieresis;
unicode = 239;
},
{
glyphname = igrave;
kernLeft = i;
kernRight = d;
layers = (
{
layerId = m01;
shapes = (
{
closed = 1;
nodes = (
(195,480,l),
(21,435,l),
(57,418,ls),
(86,404,o),
(103,384,o),
(103,364,qs),
(103,95,ls),
(103,34,o),
(45,28,qs),
(24,26,l),
(24,0,l),
(274,0,l),
(274,26,l),
(253,28,ls),
(195,34,o),
(195,95,qs)
);
},
{
closed = 1;
nodes = (
(219,535,l),
(223,535,l),
(130,671,ls),
(111,698,o),
(82,720,o),
(62,720,qs),
(40,720,o),
(14,694,o),
(14,676,qs),
(14,662,o),
(31,636,o),
(46,628,qs)
);
}
);
width = 294;
}
);
note = igrave;
unicode = 236;
},
{
glyphname = ntilde;
kernLeft = m;
kernRight = a;
layers = (
{
layerId = m01;
shapes = (
{
closed = 1;
nodes = (
(103,95,ls),
(103,34,o),
(45,28,qs),
(24,26,l),
(24,0,l),
(266,0,l),
(266,26,l),
(248,28,ls),
(195,34,o),
(195,95,qs),
(195,354,l),
(218,384,o),
(277,418,o),
(308,418,qs),
(351,418,o),
(398,369,o),
(398,325,qs),
(398,95,ls),
(398,34,o),
(345,28,qs),
(327,26,l),
(327,0,l),
(569,0,l),
(569,26,l),
(548,28,ls),
(490,34,o),
(490,95,qs),
(490,332,ls),
(490,402,o),
(417,481,o),
(352,481,qs),
(307,481,o),
(220,426,o),
(184,375,qs),
(164,348,l),
(164,379,l),
(195,421,l),
(195,480,l),
(21,435,l),
(57,418,ls),
(86,404,o),
(103,384,o),
(103,364,qs)
);
},
{
closed = 1;
nodes = (
(122,550,l),
(143,586,o),
(181,615,o),
(200,615,qs),
(216,615,o),
(253,599,o),
(282,583,qs),
(311,567,o),
(349,550,o),
(366,550,qs),
(403,550,o),
(457,618,o),
(480,694,q),
(476,694,l),
(455,659,o),
(417,630,o),
(398,630,qs),
(383,630,o),
(346,646,o),
(320,661,qs),
(291,678,o),
(250,695,o),
(232,695,qs),
(195,695,o),
(141,626,o),
(118,550,q)
);
}
);
width = 585;
}
);
note = ntilde;
unicode = 241;
},
{
glyphname = oacute;
kernLeft = c;
kernRight = b;
layers = (
{
layerId = m01;
shapes = (
{
closed = 1;
nodes = (
(194,481,o),
(90,415,o),
(30,301,o),
(30,232,qs),
(30,163,o),
(89,52,o),
(193,-11,o),
(258,-11,qs),
(321,-11,o),
(426,55,o),
(486,169,o),
(486,238,qs),
(486,307,o),
(427,418,o),
(323,481,o),
(258,481,qs)
);
},
{
closed = 1;
nodes = (
(130,338,o),
(195,439,o),
(252,439,qs),
(313,439,o),
(386,320,o),
(386,220,qs),
(386,132,o),
(320,31,o),
(262,31,qs),
(202,31,o),
(130,150,o),
(130,250,qs)
);
},
{
closed = 1;
nodes = (
(274,671,ls),
(293,698,o),
(322,720,o),
(342,720,qs),
(364,720,o),
(390,694,o),
(390,676,qs),
(390,662,o),
(373,636,o),
(358,628,qs),
(185,535,l),
(181,535,l)
);
}
);
width = 516;
}
);
note = oacute;
unicode = 243;
},
{
glyphname = ocircumflex;
kernLeft = c;
kernRight = b;
layers = (
{
layerId = m01;
shapes = (
{
closed = 1;
nodes = (
(194,481,o),
(90,415,o),
(30,301,o),
(30,232,qs),
(30,163,o),
(89,52,o),
(193,-11,o),
(258,-11,qs),
(321,-11,o),
(426,55,o),
(486,169,o),
(486,238,qs),
(486,307,o),
(427,418,o),
(323,481,o),
(258,481,qs)
);
},
{
closed = 1;
nodes = (
(101,535,l),
(267,643,l),
(303,643,l),
(253,608,l),
(411,535,l),
(415,535,l),
(311,685,l),
(201,685,l),
(97,535,l)
);
},
{
closed = 1;
nodes = (
(130,338,o),
(195,439,o),
(252,439,qs),
(313,439,o),
(386,320,o),
(386,220,qs),
(386,132,o),
(320,31,o),
(262,31,qs),
(202,31,o),
(130,150,o),
(130,250,qs)
);
}
);
width = 516;
}
);
note = ocircumflex;
unicode = 244;
},
{
glyphname = odieresis;
kernLeft = c;
kernRight = b;
layers = (
{
layerId = m01;
shapes = (
{
closed = 1;
nodes = (
(194,481,o),
(90,415,o),
(30,301,o),
(30,232,qs),
(30,163,o),
(89,52,o),
(193,-11,o),
(258,-11,qs),
(321,-11,o),
(426,55,o),
(486,169,o),
(486,238,qs),
(486,307,o),
(427,418,o),
(323,481,o),
(258,481,qs)
);
},
{
closed = 1;
nodes = (
(208,575,l),
(208,674,l),
(110,674,l),
(110,575,l)
);
},
{
closed = 1;
nodes = (
(130,338,o),
(195,439,o),
(252,439,qs),
(313,439,o),
(386,320,o),
(386,220,qs),
(386,132,o),
(320,31,o),
(262,31,qs),
(202,31,o),
(130,150,o),
(130,250,qs)
);
},
{
closed = 1;
nodes = (
(402,575,l),
(402,674,l),
(304,674,l),
(304,575,l)
);
}
);
width = 516;
}
);
note = odieresis;
unicode = 246;
},
{
glyphname = ograve;
kernLeft = c;
kernRight = b;
layers = (
{
layerId = m01;
shapes = (
{
closed = 1;
nodes = (
(194,481,o),
(90,415,o),
(30,301,o),
(30,232,qs),
(30,163,o),
(89,52,o),
(193,-11,o),
(258,-11,qs),
(321,-11,o),
(426,55,o),
(486,169,o),
(486,238,qs),
(486,307,o),
(427,418,o),
(323,481,o),
(258,481,qs)
);
},
{
closed = 1;
nodes = (
(130,338,o),
(195,439,o),
(252,439,qs),
(313,439,o),
(386,320,o),
(386,220,qs),
(386,132,o),
(320,31,o),
(262,31,qs),
(202,31,o),
(130,150,o),
(130,250,qs)
);
},
{
closed = 1;
nodes = (
(327,535,l),
(331,535,l),
(238,671,ls),
(219,698,o),
(190,720,o),
(170,720,qs),
(148,720,o),
(122,694,o),
(122,676,qs),
(122,662,o),
(139,636,o),
(154,628,qs)
);
}
);
width = 516;
}
);
note = ograve;
unicode = 242;
},
{
glyphname = otilde;
kernLeft = c;
kernRight = b;
layers = (
{
layerId = m01;
shapes = (
{
closed = 1;
nodes = (
(194,481,o),
(90,415,o),
(30,301,o),
(30,232,qs),
(30,163,o),
(89,52,o),
(193,-11,o),
(258,-11,qs),
(321,-11,o),
(426,55,o),
(486,169,o),
(486,238,qs),
(486,307,o),
(427,418,o),
(323,481,o),
(258,481,qs)
);
},
{
closed = 1;
nodes = (
(79,550,l),
(100,586,o),
(138,615,o),
(157,615,qs),
(173,615,o),
(210,599,o),
(239,583,qs),
(268,567,o),
(306,550,o),
(323,550,qs),
(360,550,o),
(414,618,o),
(437,694,q),
(433,694,l),
(412,659,o),
(374,630,o),
(355,630,qs),
(340,630,o),
(303,646,o),
(277,661,qs),
(248,678,o),
(207,695,o),
(189,695,qs),
(152,695,o),
(98,626,o),
(75,550,q)
);
},
{
closed = 1;
nodes = (
(130,338,o),
(195,439,o),
(252,439,qs),
(313,439,o),
(386,320,o),
(386,220,qs),
(386,132,o),
(320,31,o),
(262,31,qs),
(202,31,o),
(130,150,o),
(130,250,qs)
);
}
);
width = 516;
}
);
note = otilde;
unicode = 245;
},
{
glyphname = scaron;
kernLeft = s;
kernRight = s;
layers = (
{
layerId = m01;
shapes = (
{
closed = 1;
nodes = (
(224,437,o),
(289,386,o),
(310,339,qs),
(325,306,l),
(359,306,l),
(357,483,l),
(292,458,l),
(308,446,o),
(322,430,q),
(322,401,l),
(293,439,o),
(225,478,o),
(181,478,qs),
(119,478,o),
(38,402,o),
(38,339,qs),
(38,296,o),
(89,233,o),
(137,215,qs),
(237,177,ls),
(271,164,o),
(306,130,o),
(306,106,qs),
(306,73,o),
(258,35,o),
(217,35,qs),
(173,35,o),
(105,85,o),
(82,132,qs),
(64,169,l),
(30,169,l),
(33,-14,l),
(99,18,l),
(87,29,o),
(72,45,q),
(72,73,l),
(104,33,o),
(177,-8,o),
(224,-8,qs),
(266,-8,o),
(339,28,o),
(383,94,o),
(383,137,qs),
(383,219,o),
(288,256,qs),
(172,302,ls),
(114,326,o),
(114,373,qs),
(114,402,o),
(153,437,o),
(184,437,qs)
);
},
{
closed = 1;
nodes = (
(140,548,l),
(250,548,l),
(354,698,l),
(350,698,l),
(184,590,l),
(148,590,l),
(198,625,l),
(40,698,l),
(36,698,l)
);
}
);
width = 409;
}
);
note = scaron;
unicode = 353;
},
{
glyphname = uacute;
kernLeft = u;
kernRight = a;
layers = (
{
layerId = m01;
shapes = (
{
closed = 1;
nodes = (
(187,480,l),
(13,435,l),
(49,418,ls),
(78,404,o),
(95,384,o),
(95,364,qs),
(95,139,ls),
(95,70,o),
(167,-10,o),
(233,-10,qs),
(328,-10,o),
(402,97,qs),
(421,124,l),
(421,93,l),
(390,50,l),
(390,-6,l),
(565,18,l),
(527,35,ls),
(502,46,o),
(482,73,o),
(482,98,qs),
(482,480,l),
(308,435,l),
(344,418,ls),
(373,404,o),
(390,384,o),
(390,364,qs),
(390,118,l),
(371,90,o),
(312,53,o),
(277,53,qs),
(232,53,o),
(187,104,o),
(187,146,qs)
);
},
{
closed = 1;
nodes = (
(303,671,ls),
(322,698,o),
(351,720,o),
(371,720,qs),
(393,720,o),
(419,694,o),
(419,676,qs),
(419,662,o),
(402,636,o),
(387,628,qs),
(214,535,l),
(210,535,l)
);
}
);
width = 581;
}
);
note = uacute;
unicode = 250;
},
{
glyphname = ucircumflex;
kernLeft = u;
kernRight = a;
layers = (
{
layerId = m01;
shapes = (
{
closed = 1;
nodes = (
(187,480,l),
(13,435,l),
(49,418,ls),
(78,404,o),
(95,384,o),
(95,364,qs),
(95,139,ls),
(95,70,o),
(167,-10,o),
(233,-10,qs),
(328,-10,o),
(402,97,qs),
(421,124,l),
(421,93,l),
(390,50,l),
(390,-6,l),
(565,18,l),
(527,35,ls),
(502,46,o),
(482,73,o),
(482,98,qs),
(482,480,l),
(308,435,l),
(344,418,ls),
(373,404,o),
(390,384,o),
(390,364,qs),
(390,118,l),
(371,90,o),
(312,53,o),
(277,53,qs),
(232,53,o),
(187,104,o),
(187,146,qs)
);
},
{
closed = 1;
nodes = (
(130,535,l),
(296,643,l),
(332,643,l),
(282,608,l),
(440,535,l),
(444,535,l),
(340,685,l),
(230,685,l),
(126,535,l)
);
}
);
width = 581;
}
);
note = ucircumflex;
unicode = 251;
},
{
glyphname = udieresis;
kernLeft = u;
kernRight = a;
layers = (
{
layerId = m01;
shapes = (
{
closed = 1;
nodes = (
(187,480,l),
(13,435,l),
(49,418,ls),
(78,404,o),
(95,384,o),
(95,364,qs),
(95,139,ls),
(95,70,o),
(167,-10,o),
(233,-10,qs),
(328,-10,o),
(402,97,qs),
(421,124,l),
(421,93,l),
(390,50,l),
(390,-6,l),
(565,18,l),
(527,35,ls),
(502,46,o),
(482,73,o),
(482,98,qs),
(482,480,l),
(308,435,l),
(344,418,ls),
(373,404,o),
(390,384,o),
(390,364,qs),
(390,118,l),
(371,90,o),
(312,53,o),
(277,53,qs),
(232,53,o),
(187,104,o),
(187,146,qs)
);
},
{
closed = 1;
nodes = (
(237,575,l),
(237,674,l),
(139,674,l),
(139,575,l)
);
},
{
closed = 1;
nodes = (
(431,575,l),
(431,674,l),
(333,674,l),
(333,575,l)
);
}
);
width = 581;
}
);
note = udieresis;
unicode = 252;
},
{
glyphname = ugrave;
kernLeft = u;
kernRight = a;
layers = (
{
layerId = m01;
shapes = (
{
closed = 1;
nodes = (
(187,480,l),
(13,435,l),
(49,418,ls),
(78,404,o),
(95,384,o),
(95,364,qs),
(95,139,ls),
(95,70,o),
(167,-10,o),
(233,-10,qs),
(328,-10,o),
(402,97,qs),
(421,124,l),
(421,93,l),
(390,50,l),
(390,-6,l),
(565,18,l),
(527,35,ls),
(502,46,o),
(482,73,o),
(482,98,qs),
(482,480,l),
(308,435,l),
(344,418,ls),
(373,404,o),
(390,384,o),
(390,364,qs),
(390,118,l),
(371,90,o),
(312,53,o),
(277,53,qs),
(232,53,o),
(187,104,o),
(187,146,qs)
);
},
{
closed = 1;
nodes = (
(356,535,l),
(360,535,l),
(267,671,ls),
(248,698,o),
(219,720,o),
(199,720,qs),
(177,720,o),
(151,694,o),
(151,676,qs),
(151,662,o),
(168,636,o),
(183,628,qs)
);
}
);
width = 581;
}
);
note = ugrave;
unicode = 249;
},
{
glyphname = yacute;
kernLeft = v;
kernRight = v;
layers = (
{
layerId = m01;
shapes = (
{
closed = 1;
nodes = (
(236,6,l),
(201,-67,ls),
(169,-135,o),
(113,-194,o),
(80,-194,qs),
(67,-194,l),
(67,-179,l),
(79,-179,l),
(82,-178,o),
(87,-165,o),
(87,-159,qs),
(87,-139,o),
(57,-110,o),
(37,-110,qs),
(15,-110,o),
(-13,-140,o),
(-13,-163,qs),
(-13,-194,o),
(33,-233,o),
(68,-233,qs),
(117,-233,o),
(193,-175,o),
(222,-115,qs),
(456,368,ls),
(487,432,o),
(536,445,q),
(536,470,l),
(347,470,l),
(347,444,l),
(362,442,ls),
(412,434,o),
(412,395,qs),
(412,375,o),
(399,349,qs),
(272,82,l),
(261,103,l),
(276,136,l),
(182,377,ls),
(177,388,o),
(177,403,qs),
(177,436,o),
(218,442,qs),
(233,444,l),
(233,470,l),
(5,470,l),
(5,445,l),
(34,438,o),
(69,407,o),
(82,376,qs)
);
},
{
closed = 1;
nodes = (
(308,671,ls),
(327,698,o),
(356,720,o),
(376,720,qs),
(398,720,o),
(424,694,o),
(424,676,qs),
(424,662,o),
(407,636,o),
(392,628,qs),
(219,535,l),
(215,535,l)
);
}
);
width = 541;
}
);
note = yacute;
unicode = 253;
},
{
glyphname = ydieresis;
kernLeft = v;
kernRight = v;
layers = (
{
layerId = m01;
shapes = (
{
closed = 1;
nodes = (
(236,6,l),
(201,-67,ls),
(169,-135,o),
(113,-194,o),
(80,-194,qs),
(67,-194,l),
(67,-179,l),
(79,-179,l),
(82,-178,o),
(87,-165,o),
(87,-159,qs),
(87,-139,o),
(57,-110,o),
(37,-110,qs),
(15,-110,o),
(-13,-140,o),
(-13,-163,qs),
(-13,-194,o),
(33,-233,o),
(68,-233,qs),
(117,-233,o),
(193,-175,o),
(222,-115,qs),
(456,368,ls),
(487,432,o),
(536,445,q),
(536,470,l),
(347,470,l),
(347,444,l),
(362,442,ls),
(412,434,o),
(412,395,qs),
(412,375,o),
(399,349,qs),
(272,82,l),
(261,103,l),
(276,136,l),
(182,377,ls),
(177,388,o),
(177,403,qs),
(177,436,o),
(218,442,qs),
(233,444,l),
(233,470,l),
(5,470,l),
(5,445,l),
(34,438,o),
(69,407,o),
(82,376,qs)
);
},
{
closed = 1;
nodes = (
(242,575,l),
(242,674,l),
(144,674,l),
(144,575,l)
);
},
{
closed = 1;
nodes = (
(436,575,l),
(436,674,l),
(338,674,l),
(338,575,l)
);
}
);
width = 541;
}
);
note = ydieresis;
unicode = 255;
},
{
glyphname = zcaron;
kernLeft = z;
kernRight = z;
layers = (
{
layerId = m01;
shapes = (
{
closed = 1;
nodes = (
(296,414,l),
(15,0,l),
(419,0,l),
(439,189,l),
(408,189,l),
(397,149,ls),
(381,93,o),
(312,38,o),
(256,38,qs),
(118,38,l),
(130,56,l),
(160,56,l),
(441,470,l),
(42,470,l),
(36,286,l),
(66,286,l),
(81,338,ls),
(95,387,o),
(159,432,o),
(214,432,qs),
(338,432,l),
(326,414,l)
);
},
{
closed = 1;
nodes = (
(184,548,l),
(294,548,l),
(398,698,l),
(394,698,l),
(228,590,l),
(192,590,l),
(242,625,l),
(84,698,l),
(80,698,l)
);
}
);
width = 459;
}
);
note = zcaron;
unicode = 382;
},
{
glyphname = Abreve;
kernLeft = A;
kernRight = A;
layers = (
{
layerId = m01;
shapes = (
{
closed = 1;
nodes = (
(472,216,l),
(520,102,ls),
(527,87,o),
(527,73,qs),
(527,55,o),
(503,33,o),
(481,31,qs),
(464,29,l),
(464,0,l),
(715,0,l),
(715,27,l),
(683,34,o),
(646,69,o),
(631,103,qs),
(362,733,l),
(360,733,l),
(93,111,ls),
(64,43,o),
(6,27,q),
(6,0,l),
(210,0,l),
(210,29,l),
(193,31,ls),
(140,37,o),
(140,81,qs),
(140,102,o),
(153,132,qs),
(197,236,l),
(500,236,l),
(508,216,l)
);
},
{
closed = 1;
nodes = (
(331,556,l),
(450,271,l),
(212,271,l)
);
},
{
closed = 1;
nodes = (
(223,883,o),
(259,813,o),
(322,775,o),
(360,775,qs),
(398,775,o),
(461,813,o),
(497,883,o),
(495,930,q),
(491,930,l),
(479,898,o),
(411,857,o),
(360,857,qs),
(309,857,o),
(241,898,o),
(229,930,q),
(225,930,l)
);
}
);
width = 721;
}
);
note = Abreve;
unicode = 258;
},
{
glyphname = Amacron;
kernLeft = A;
kernRight = A;
layers = (
{
layerId = m01;
shapes = (
{
closed = 1;
nodes = (
(472,216,l),
(520,102,ls),
(527,87,o),
(527,73,qs),
(527,55,o),
(503,33,o),
(481,31,qs),
(464,29,l),
(464,0,l),
(715,0,l),
(715,27,l),
(683,34,o),
(646,69,o),
(631,103,qs),
(362,733,l),
(360,733,l),
(93,111,ls),
(64,43,o),
(6,27,q),
(6,0,l),
(210,0,l),
(210,29,l),
(193,31,ls),
(140,37,o),
(140,81,qs),
(140,102,o),
(153,132,qs),
(197,236,l),
(500,236,l),
(508,216,l)
);
},
{
closed = 1;
nodes = (
(513,820,l),
(513,880,l),
(207,880,l),
(207,820,l)
);
},
{
closed = 1;
nodes = (
(331,556,l),
(450,271,l),
(212,271,l)
);
}
);
width = 721;
}
);
note = Amacron;
unicode = 256;
},
{
glyphname = Aogonek;
kernLeft = A;
kernRight = A;
layers = (
{
layerId = m01;
shapes = (
{
closed = 1;
nodes = (
(472,216,l),
(520,102,ls),
(527,87,o),
(527,73,qs),
(527,55,o),
(503,33,o),
(481,31,qs),
(464,29,l),
(464,0,l),
(679,0,l),
(619,-22,o),
(547,-100,o),
(547,-139,qs),
(547,-171,o),
(590,-211,o),
(627,-211,qs),
(657,-211,o),
(706,-182,o),
(718,-154,q),
(715,-151,l),
(701,-160,o),
(678,-169,o),
(663,-169,qs),
(638,-169,o),
(609,-143,o),
(609,-121,qs),
(609,-93,o),
(656,-30,o),
(703,-6,qs),
(715,0,l),
(715,27,l),
(683,34,o),
(646,69,o),
(631,103,qs),
(362,733,l),
(360,733,l),
(93,111,ls),
(64,43,o),
(6,27,q),
(6,0,l),
(210,0,l),
(210,29,l),
(193,31,ls),
(140,37,o),
(140,81,qs),
(140,102,o),
(153,132,qs),
(197,236,l),
(500,236,l),
(508,216,l)
);
},
{
closed = 1;
nodes = (
(331,556,l),
(450,271,l),
(212,271,l)
);
}
);
width = 721;
}
);
note = Aogonek;
unicode = 260;
},
{
glyphname = Cacute;
kernLeft = C;
kernRight = C;
layers = (
{
layerId = m01;
shapes = (
{
closed = 1;
nodes = (
(455,-10,o),
(597,103,o),
(626,201,q),
(622,203,l),
(573,120,o),
(458,44,o),
(381,44,qs),
(313,44,o),
(207,122,o),
(149,263,o),
(149,354,qs),
(149,446,o),
(203,586,o),
(302,663,o),
(366,663,qs),
(432,663,o),
(533,585,o),
(565,508,qs),
(585,462,l),
(619,462,l),
(619,707,l),
(542,664,l),
(549,658,o),
(568,637,o),
(574,629,q),
(574,594,l),
(499,710,o),
(364,710,qs),
(271,710,o),
(119,613,o),
(32,443,o),
(32,340,qs),
(32,241,o),
(118,81,o),
(269,-10,o),
(362,-10,qs)
);
},
{
closed = 1;
nodes = (
(391,901,ls),
(410,928,o),
(439,950,o),
(459,950,qs),
(481,950,o),
(507,924,o),
(507,906,qs),
(507,892,o),
(490,866,o),
(475,858,qs),
(302,765,l),
(298,765,l)
);
}
);
width = 665;
}
);
note = Cacute;
unicode = 262;
},
{
glyphname = Ccaron;
kernLeft = C;
kernRight = C;
layers = (
{
layerId = m01;
shapes = (
{
closed = 1;
nodes = (
(455,-10,o),
(597,103,o),
(626,201,q),
(622,203,l),
(573,120,o),
(458,44,o),
(381,44,qs),
(313,44,o),
(207,122,o),
(149,263,o),
(149,354,qs),
(149,446,o),
(203,586,o),
(302,663,o),
(366,663,qs),
(432,663,o),
(533,585,o),
(565,508,qs),
(585,462,l),
(619,462,l),
(619,707,l),
(542,664,l),
(549,658,o),
(568,637,o),
(574,629,q),
(574,594,l),
(499,710,o),
(364,710,qs),
(271,710,o),
(119,613,o),
(32,443,o),
(32,340,qs),
(32,241,o),
(118,81,o),
(269,-10,o),
(362,-10,qs)
);
},
{
closed = 1;
nodes = (
(318,778,l),
(428,778,l),
(532,928,l),
(528,928,l),
(362,820,l),
(326,820,l),
(376,855,l),
(218,928,l),
(214,928,l)
);
}
);
width = 665;
}
);
note = Ccaron;
unicode = 268;
},
{
glyphname = Ccircumflex;
kernLeft = C;
kernRight = C;
layers = (
{
layerId = m01;
shapes = (
{
closed = 1;
nodes = (
(455,-10,o),
(597,103,o),
(626,201,q),
(622,203,l),
(573,120,o),
(458,44,o),
(381,44,qs),
(313,44,o),
(207,122,o),
(149,263,o),
(149,354,qs),
(149,446,o),
(203,586,o),
(302,663,o),
(366,663,qs),
(432,663,o),
(533,585,o),
(565,508,qs),
(585,462,l),
(619,462,l),
(619,707,l),
(542,664,l),
(549,658,o),
(568,637,o),
(574,629,q),
(574,594,l),
(499,710,o),
(364,710,qs),
(271,710,o),
(119,613,o),
(32,443,o),
(32,340,qs),
(32,241,o),
(118,81,o),
(269,-10,o),
(362,-10,qs)
);
},
{
closed = 1;
nodes = (
(218,765,l),
(384,873,l),
(420,873,l),
(370,838,l),
(528,765,l),
(532,765,l),
(428,915,l),
(318,915,l),
(214,765,l)
);
}
);
width = 665;
}
);
note = Ccircumflex;
unicode = 264;
},
{
glyphname = Cdotaccent;
kernLeft = C;
kernRight = C;
layers = (
{
layerId = m01;
shapes = (
{
closed = 1;
nodes = (
(455,-10,o),
(597,103,o),
(626,201,q),
(622,203,l),
(573,120,o),
(458,44,o),
(381,44,qs),
(313,44,o),
(207,122,o),
(149,263,o),
(149,354,qs),
(149,446,o),
(203,586,o),
(302,663,o),
(366,663,qs),
(432,663,o),
(533,585,o),
(565,508,qs),
(585,462,l),
(619,462,l),
(619,707,l),
(542,664,l),
(549,658,o),
(568,637,o),
(574,629,q),
(574,594,l),
(499,710,o),
(364,710,qs),
(271,710,o),
(119,613,o),
(32,443,o),
(32,340,qs),
(32,241,o),
(118,81,o),
(269,-10,o),
(362,-10,qs)
);
},
{
closed = 1;
nodes = (
(422,805,l),
(422,904,l),
(324,904,l),
(324,805,l)
);
}
);
width = 665;
}
);
note = Cdotaccent;
unicode = 266;
},
{
glyphname = Dcaron;
kernRight = D;
layers = (
{
layerId = m01;
shapes = (
{
closed = 1;
nodes = (
(20,29,l),
(20,0,l),
(317,0,ls),
(423,0,o),
(597,94,o),
(698,256,o),
(698,355,qs),
(698,453,o),
(600,611,o),
(427,700,o),
(319,700,qs),
(20,700,l),
(20,671,l),
(43,669,ls),
(114,663,o),
(114,595,qs),
(114,105,ls),
(114,37,o),
(43,31,qs)
);
},
{
closed = 1;
nodes = (
(184,61,l),
(220,61,l),
(220,639,l),
(184,639,l),
(184,659,l),
(314,659,ls),
(393,659,o),
(514,581,o),
(581,442,o),
(581,351,qs),
(581,257,o),
(514,117,o),
(389,41,o),
(305,41,qs),
(184,41,l)
);
},
{
closed = 1;
nodes = (
(293,778,l),
(403,778,l),
(507,928,l),
(503,928,l),
(337,820,l),
(301,820,l),
(351,855,l),
(193,928,l),
(189,928,l)
);
}
);
width = 729;
}
);
note = Dcaron;
unicode = 270;
},
{
glyphname = Dcroat;
kernRight = D;
layers = (
{
layerId = m01;
shapes = (
{
closed = 1;
nodes = (
(698,453,o),
(600,611,o),
(427,700,o),
(319,700,qs),
(20,700,l),
(20,671,l),
(43,669,ls),
(114,663,o),
(114,595,qs),
(114,375,l),
(20,375,l),
(20,340,l),
(150,340,l),
(150,320,l),
(114,320,l),
(114,105,ls),
(114,37,o),
(43,31,qs),
(20,29,l),
(20,0,l),
(317,0,ls),
(423,0,o),
(597,94,o),
(698,256,o),
(698,355,qs)
);
},
{
closed = 1;
nodes = (
(184,61,l),
(220,61,l),
(220,340,l),
(314,340,l),
(314,375,l),
(220,375,l),
(220,639,l),
(184,639,l),
(184,659,l),
(314,659,ls),
(393,659,o),
(514,581,o),
(581,442,o),
(581,351,qs),
(581,257,o),
(514,117,o),
(389,41,o),
(305,41,qs),
(184,41,l)
);
}
);
width = 729;
}
);
note = Dcroat;
unicode = 272;
},
{
glyphname = Ebreve;
kernRight = E;
layers = (
{
layerId = m01;
shapes = (
{
closed = 1;
nodes = (
(220,61,l),
(220,340,l),
(325,340,ls),
(363,340,o),
(402,304,o),
(412,260,qs),
(420,226,l),
(453,226,l),
(453,490,l),
(420,490,l),
(412,456,ls),
(402,411,o),
(363,375,o),
(325,375,qs),
(220,375,l),
(220,639,l),
(184,639,l),
(184,659,l),
(402,659,ls),
(460,659,o),
(529,600,o),
(547,535,qs),
(569,456,l),
(601,456,l),
(589,700,l),
(20,700,l),
(20,671,l),
(43,669,ls),
(114,663,o),
(114,595,qs),
(114,105,ls),
(114,37,o),
(43,31,qs),
(20,29,l),
(20,0,l),
(587,0,l),
(619,249,l),
(586,249,l),
(568,184,ls),
(548,110,o),
(470,41,o),
(409,41,qs),
(184,41,l),
(184,61,l)
);
},
{
closed = 1;
nodes = (
(216,883,o),
(252,813,o),
(315,775,o),
(353,775,qs),
(391,775,o),
(454,813,o),
(490,883,o),
(488,930,q),
(484,930,l),
(472,898,o),
(404,857,o),
(353,857,qs),
(302,857,o),
(234,898,o),
(222,930,q),
(218,930,l)
);
}
);
width = 660;
}
);
note = Ebreve;
unicode = 276;
},
{
glyphname = Ecaron;
kernRight = E;
layers = (
{
layerId = m01;
shapes = (
{
closed = 1;
nodes = (
(220,61,l),
(220,340,l),
(325,340,ls),
(363,340,o),
(402,304,o),
(412,260,qs),
(420,226,l),
(453,226,l),
(453,490,l),
(420,490,l),
(412,456,ls),
(402,411,o),
(363,375,o),
(325,375,qs),
(220,375,l),
(220,639,l),
(184,639,l),
(184,659,l),
(402,659,ls),
(460,659,o),
(529,600,o),
(547,535,qs),
(569,456,l),
(601,456,l),
(589,700,l),
(20,700,l),
(20,671,l),
(43,669,ls),
(114,663,o),
(114,595,qs),
(114,105,ls),
(114,37,o),
(43,31,qs),
(20,29,l),
(20,0,l),
(587,0,l),
(619,249,l),
(586,249,l),
(568,184,ls),
(548,110,o),
(470,41,o),
(409,41,qs),
(184,41,l),
(184,61,l)
);
},
{
closed = 1;
nodes = (
(298,778,l),
(408,778,l),
(512,928,l),
(508,928,l),
(342,820,l),
(306,820,l),
(356,855,l),
(198,928,l),
(194,928,l)
);
}
);
width = 660;
}
);
note = Ecaron;
unicode = 282;
},
{
glyphname = Edotaccent;
kernRight = E;
layers = (
{
layerId = m01;
shapes = (
{
closed = 1;
nodes = (
(220,61,l),
(220,340,l),
(325,340,ls),
(363,340,o),
(402,304,o),
(412,260,qs),
(420,226,l),
(453,226,l),
(453,490,l),
(420,490,l),
(412,456,ls),
(402,411,o),
(363,375,o),
(325,375,qs),
(220,375,l),
(220,639,l),
(184,639,l),
(184,659,l),
(402,659,ls),
(460,659,o),
(529,600,o),
(547,535,qs),
(569,456,l),
(601,456,l),
(589,700,l),
(20,700,l),
(20,671,l),
(43,669,ls),
(114,663,o),
(114,595,qs),
(114,105,ls),
(114,37,o),
(43,31,qs),
(20,29,l),
(20,0,l),
(587,0,l),
(619,249,l),
(586,249,l),
(568,184,ls),
(548,110,o),
(470,41,o),
(409,41,qs),
(184,41,l),
(184,61,l)
);
},
{
closed = 1;
nodes = (
(402,805,l),
(402,904,l),
(304,904,l),
(304,805,l)
);
}
);
width = 660;
}
);
note = Edotaccent;
unicode = 278;
},
{
glyphname = Emacron;
kernRight = E;
layers = (
{
layerId = m01;
shapes = (
{
closed = 1;
nodes = (
(220,61,l),
(220,340,l),
(325,340,ls),
(363,340,o),
(402,304,o),
(412,260,qs),
(420,226,l),
(453,226,l),
(453,490,l),
(420,490,l),
(412,456,ls),
(402,411,o),
(363,375,o),
(325,375,qs),
(220,375,l),
(220,639,l),
(184,639,l),
(184,659,l),
(402,659,ls),
(460,659,o),
(529,600,o),
(547,535,qs),
(569,456,l),
(601,456,l),
(589,700,l),
(20,700,l),
(20,671,l),
(43,669,ls),
(114,663,o),
(114,595,qs),
(114,105,ls),
(114,37,o),
(43,31,qs),
(20,29,l),
(20,0,l),
(587,0,l),
(619,249,l),
(586,249,l),
(568,184,ls),
(548,110,o),
(470,41,o),
(409,41,qs),
(184,41,l),
(184,61,l)
);
},
{
closed = 1;
nodes = (
(506,820,l),
(506,880,l),
(200,880,l),
(200,820,l)
);
}
);
width = 660;
}
);
note = Emacron;
unicode = 274;
},
{
glyphname = Eng;
kernRight = N;
layers = (
{
layerId = m01;
shapes = (
{
closed = 1;
nodes = (
(650,584,ls),
(650,622,o),
(685,663,o),
(721,668,qs),
(744,671,l),
(744,700,l),
(502,700,l),
(502,671,l),
(525,668,ls),
(597,659,o),
(597,584,qs),
(597,189,l),
(578,211,l),
(578,248,l),
(196,700,l),
(34,700,l),
(114,618,l),
(114,116,ls),
(114,78,o),
(79,37,o),
(43,32,qs),
(20,29,l),
(20,0,l),
(262,0,l),
(262,29,l),
(239,32,ls),
(167,41,o),
(167,116,qs),
(167,570,l),
(597,53,l),
(597,-86,ls),
(597,-148,o),
(546,-217,o),
(502,-217,qs),
(460,-217,o),
(414,-182,o),
(408,-145,q),
(440,-145,l),
(442,-133,o),
(442,-126,qs),
(442,-99,o),
(413,-67,o),
(389,-67,qs),
(363,-67,o),
(333,-102,o),
(333,-130,qs),
(333,-165,o),
(372,-224,o),
(444,-260,o),
(490,-260,qs),
(562,-260,o),
(650,-162,o),
(650,-72,qs)
);
}
);
width = 759;
}
);
note = Eng;
unicode = 330;
},
{
glyphname = Eogonek;
kernRight = E;
layers = (
{
layerId = m01;
shapes = (
{
closed = 1;
nodes = (
(220,61,l),
(220,340,l),
(325,340,ls),
(363,340,o),
(402,304,o),
(412,260,qs),
(420,226,l),
(453,226,l),
(453,490,l),
(420,490,l),
(412,456,ls),
(402,411,o),
(363,375,o),
(325,375,qs),
(220,375,l),
(220,639,l),
(184,639,l),
(184,659,l),
(402,659,ls),
(460,659,o),
(529,600,o),
(547,535,qs),
(569,456,l),
(601,456,l),
(589,700,l),
(20,700,l),
(20,671,l),
(43,669,ls),
(114,663,o),
(114,595,qs),
(114,105,ls),
(114,37,o),
(43,31,qs),
(20,29,l),
(20,0,l),
(551,0,l),
(491,-22,o),
(419,-100,o),
(419,-139,qs),
(419,-171,o),
(462,-211,o),
(499,-211,qs),
(529,-211,o),
(578,-182,o),
(590,-154,q),
(587,-151,l),
(573,-160,o),
(550,-169,o),
(535,-169,qs),
(510,-169,o),
(481,-143,o),
(481,-121,qs),
(481,-93,o),
(528,-30,o),
(575,-6,qs),
(587,0,l),
(619,249,l),
(586,249,l),
(568,184,ls),
(548,110,o),
(470,41,o),
(409,41,qs),
(184,41,l),
(184,61,l)
);
}
);
width = 660;
}
);
note = Eogonek;
unicode = 280;
},
{
glyphname = Gbreve;
kernLeft = C;
kernRight = G;
layers = (
{
layerId = m01;
shapes = (
{
closed = 1;
nodes = (
(490,-9,o),
(579,56,q),
(650,-11,l),
(650,232,ls),
(650,300,o),
(716,306,qs),
(739,308,l),
(739,337,l),
(452,337,l),
(452,308,l),
(475,306,ls),
(551,300,o),
(551,232,qs),
(551,118,l),
(589,144,l),
(589,119,l),
(538,80,o),
(445,44,o),
(395,44,qs),
(322,44,o),
(211,122,o),
(149,263,o),
(149,355,qs),
(149,446,o),
(204,586,o),
(305,663,o),
(371,663,qs),
(443,663,o),
(549,585,o),
(581,508,qs),
(600,463,l),
(634,463,l),
(634,708,l),
(558,665,l),
(565,658,o),
(588,634,o),
(589,630,q),
(589,595,l),
(553,652,o),
(443,710,o),
(373,710,qs),
(277,710,o),
(121,613,o),
(32,445,o),
(32,341,qs),
(32,242,o),
(118,82,o),
(269,-9,o),
(363,-9,qs)
);
},
{
closed = 1;
nodes = (
(249,883,o),
(285,813,o),
(348,775,o),
(386,775,qs),
(424,775,o),
(487,813,o),
(523,883,o),
(521,930,q),
(517,930,l),
(505,898,o),
(437,857,o),
(386,857,qs),
(335,857,o),
(267,898,o),
(255,930,q),
(251,930,l)
);
}
);
width = 755;
}
);
note = Gbreve;
unicode = 286;
},
{
glyphname = Gcircumflex;
kernLeft = C;
kernRight = G;
layers = (
{
layerId = m01;
shapes = (
{
closed = 1;
nodes = (
(490,-9,o),
(579,56,q),
(650,-11,l),
(650,232,ls),
(650,300,o),
(716,306,qs),
(739,308,l),
(739,337,l),
(452,337,l),
(452,308,l),
(475,306,ls),
(551,300,o),
(551,232,qs),
(551,118,l),
(589,144,l),
(589,119,l),
(538,80,o),
(445,44,o),
(395,44,qs),
(322,44,o),
(211,122,o),
(149,263,o),
(149,355,qs),
(149,446,o),
(204,586,o),
(305,663,o),
(371,663,qs),
(443,663,o),
(549,585,o),
(581,508,qs),
(600,463,l),
(634,463,l),
(634,708,l),
(558,665,l),
(565,658,o),
(588,634,o),
(589,630,q),
(589,595,l),
(553,652,o),
(443,710,o),
(373,710,qs),
(277,710,o),
(121,613,o),
(32,445,o),
(32,341,qs),
(32,242,o),
(118,82,o),
(269,-9,o),
(363,-9,qs)
);
},
{
closed = 1;
nodes = (
(231,765,l),
(397,873,l),
(433,873,l),
(383,838,l),
(541,765,l),
(545,765,l),
(441,915,l),
(331,915,l),
(227,765,l)
);
}
);
width = 755;
}
);
note = Gcircumflex;
unicode = 284;
},
{
glyphname = uni0122;
kernLeft = C;
kernRight = G;
layers = (
{
layerId = m01;
shapes = (
{
closed = 1;
nodes = (
(490,-9,o),
(579,56,q),
(650,-11,l),
(650,232,ls),
(650,300,o),
(716,306,qs),
(739,308,l),
(739,337,l),
(452,337,l),
(452,308,l),
(475,306,ls),
(551,300,o),
(551,232,qs),
(551,118,l),
(589,144,l),
(589,119,l),
(538,80,o),
(445,44,o),
(395,44,qs),
(322,44,o),
(211,122,o),
(149,263,o),
(149,355,qs),
(149,446,o),
(204,586,o),
(305,663,o),
(371,663,qs),
(443,663,o),
(549,585,o),
(581,508,qs),
(600,463,l),
(634,463,l),
(634,708,l),
(558,665,l),
(565,658,o),
(588,634,o),
(589,630,q),
(589,595,l),
(553,652,o),
(443,710,o),
(373,710,qs),
(277,710,o),
(121,613,o),
(32,445,o),
(32,341,qs),
(32,242,o),
(118,82,o),
(269,-9,o),
(363,-9,qs)
);
},
{
closed = 1;
nodes = (
(314,-127,o),
(346,-158,o),
(368,-158,qs),
(382,-158,o),
(386,-154,q),
(386,-114,l),
(404,-114,l),
(404,-133,ls),
(404,-173,o),
(361,-237,o),
(324,-254,q),
(327,-260,l),
(383,-244,o),
(447,-169,o),
(447,-122,qs),
(447,-87,o),
(410,-46,o),
(378,-46,qs),
(350,-46,o),
(314,-79,o),
(314,-104,qs)
);
}
);
width = 755;
}
);
note = uni0122;
unicode = 290;
},
{
glyphname = Gdotaccent;
kernLeft = C;
kernRight = G;
layers = (
{
layerId = m01;
shapes = (
{
closed = 1;
nodes = (
(490,-9,o),
(579,56,q),
(650,-11,l),
(650,232,ls),
(650,300,o),
(716,306,qs),
(739,308,l),
(739,337,l),
(452,337,l),
(452,308,l),
(475,306,ls),
(551,300,o),
(551,232,qs),
(551,118,l),
(589,144,l),
(589,119,l),
(538,80,o),
(445,44,o),
(395,44,qs),
(322,44,o),
(211,122,o),
(149,263,o),
(149,355,qs),
(149,446,o),
(204,586,o),
(305,663,o),
(371,663,qs),
(443,663,o),
(549,585,o),
(581,508,qs),
(600,463,l),
(634,463,l),
(634,708,l),
(558,665,l),
(565,658,o),
(588,634,o),
(589,630,q),
(589,595,l),
(553,652,o),
(443,710,o),
(373,710,qs),
(277,710,o),
(121,613,o),
(32,445,o),
(32,341,qs),
(32,242,o),
(118,82,o),
(269,-9,o),
(363,-9,qs)
);
},
{
closed = 1;
nodes = (
(435,805,l),
(435,904,l),
(337,904,l),
(337,805,l)
);
}
);
width = 755;
}
);
note = Gdotaccent;
unicode = 288;
},
{
glyphname = Hbar;
layers = (
{
layerId = m01;
shapes = (
{
closed = 1;
nodes = (
(655,480,l),
(619,480,l),
(619,500,l),
(749,500,l),
(749,535,l),
(655,535,l),
(655,595,ls),
(655,663,o),
(726,669,qs),
(749,671,l),
(749,700,l),
(455,700,l),
(455,671,l),
(478,669,ls),
(549,663,o),
(549,595,qs),
(549,535,l),
(220,535,l),
(220,595,ls),
(220,663,o),
(291,669,qs),
(314,671,l),
(314,700,l),
(20,700,l),
(20,671,l),
(43,669,ls),
(114,663,o),
(114,595,qs),
(114,535,l),
(20,535,l),
(20,500,l),
(150,500,l),
(150,480,l),
(114,480,l),
(114,105,ls),
(114,37,o),
(43,31,qs),
(20,29,l),
(20,0,l),
(314,0,l),
(314,29,l),
(291,31,ls),
(220,37,o),
(220,105,qs),
(220,320,l),
(184,320,l),
(184,340,l),
(585,340,l),
(585,320,l),
(549,320,l),
(549,105,ls),
(549,37,o),
(478,31,qs),
(455,29,l),
(455,0,l),
(749,0,l),
(749,29,l),
(726,31,ls),
(655,37,o),
(655,105,qs)
);
},
{
closed = 1;
nodes = (
(220,500,l),
(549,500,l),
(549,375,l),
(220,375,l)
);
}
);
width = 769;
}
);
note = Hbar;
unicode = 294;
},
{
glyphname = Hcircumflex;
kernRight = H;
layers = (
{
layerId = m01;
shapes = (
{
closed = 1;
nodes = (
(184,340,l),
(585,340,l),
(585,320,l),
(549,320,l),
(549,105,ls),
(549,37,o),
(478,31,qs),
(455,29,l),
(455,0,l),
(749,0,l),
(749,29,l),
(726,31,ls),
(655,37,o),
(655,105,qs),
(655,595,ls),
(655,663,o),
(726,669,qs),
(749,671,l),
(749,700,l),
(455,700,l),
(455,671,l),
(478,669,ls),
(549,663,o),
(549,595,qs),
(549,375,l),
(220,375,l),
(220,595,ls),
(220,663,o),
(291,669,qs),
(314,671,l),
(314,700,l),
(20,700,l),
(20,671,l),
(43,669,ls),
(114,663,o),
(114,595,qs),
(114,105,ls),
(114,37,o),
(43,31,qs),
(20,29,l),
(20,0,l),
(314,0,l),
(314,29,l),
(291,31,ls),
(220,37,o),
(220,105,qs),
(220,320,l),
(184,320,l)
);
},
{
closed = 1;
nodes = (
(230,765,l),
(396,873,l),
(432,873,l),
(382,838,l),
(540,765,l),
(544,765,l),
(440,915,l),
(330,915,l),
(226,765,l)
);
}
);
width = 769;
}
);
note = Hcircumflex;
unicode = 292;
},
{
glyphname = Ibreve;
kernRight = H;
layers = (
{
layerId = m01;
shapes = (
{
closed = 1;
nodes = (
(220,595,ls),
(220,663,o),
(291,669,qs),
(314,671,l),
(314,700,l),
(20,700,l),
(20,671,l),
(43,669,ls),
(114,663,o),
(114,595,qs),
(114,105,ls),
(114,37,o),
(43,31,qs),
(20,29,l),
(20,0,l),
(314,0,l),
(314,29,l),
(291,31,ls),
(220,37,o),
(220,105,qs)
);
},
{
closed = 1;
nodes = (
(30,883,o),
(66,813,o),
(129,775,o),
(167,775,qs),
(205,775,o),
(268,813,o),
(304,883,o),
(302,930,q),
(298,930,l),
(286,898,o),
(218,857,o),
(167,857,qs),
(116,857,o),
(48,898,o),
(36,930,q),
(32,930,l)
);
}
);
width = 334;
}
);
note = Ibreve;
unicode = 300;
},
{
glyphname = Idotaccent;
kernRight = H;
layers = (
{
layerId = m01;
shapes = (
{
closed = 1;
nodes = (
(220,595,ls),
(220,663,o),
(291,669,qs),
(314,671,l),
(314,700,l),
(20,700,l),
(20,671,l),
(43,669,ls),
(114,663,o),
(114,595,qs),
(114,105,ls),
(114,37,o),
(43,31,qs),
(20,29,l),
(20,0,l),
(314,0,l),
(314,29,l),
(291,31,ls),
(220,37,o),
(220,105,qs)
);
},
{
closed = 1;
nodes = (
(216,805,l),
(216,904,l),
(118,904,l),
(118,805,l)
);
}
);
width = 334;
}
);
note = Idotaccent;
unicode = 304;
},
{
glyphname = IJ;
kernRight = J;
layers = (
{
layerId = m01;
shapes = (
{
closed = 1;
nodes = (
(220,595,ls),
(220,663,o),
(291,669,qs),
(314,671,l),
(314,700,l),
(20,700,l),
(20,671,l),
(43,669,ls),
(114,663,o),
(114,595,qs),
(114,105,ls),
(114,37,o),
(43,31,qs),
(20,29,l),
(20,0,l),
(314,0,l),
(314,29,l),
(291,31,ls),
(220,37,o),
(220,105,qs)
);
},
{
closed = 1;
nodes = (
(355,97,o),
(408,29,o),
(499,-11,o),
(552,-11,qs),
(620,-11,o),
(728,47,o),
(788,149,o),
(788,214,qs),
(788,595,ls),
(788,663,o),
(859,669,qs),
(882,671,l),
(882,700,l),
(588,700,l),
(588,671,l),
(611,669,ls),
(682,663,o),
(682,595,qs),
(682,183,ls),
(682,112,o),
(609,32,o),
(545,32,qs),
(499,32,o),
(442,77,o),
(441,114,q),
(462,114,l),
(464,126,o),
(464,132,qs),
(464,160,o),
(434,192,o),
(408,192,qs),
(386,192,o),
(355,160,o),
(355,137,qs)
);
}
);
width = 902;
}
);
note = IJ;
unicode = 306;
},
{
glyphname = Imacron;
kernRight = H;
layers = (
{
layerId = m01;
shapes = (
{
closed = 1;
nodes = (
(220,595,ls),
(220,663,o),
(291,669,qs),
(314,671,l),
(314,700,l),
(20,700,l),
(20,671,l),
(43,669,ls),
(114,663,o),
(114,595,qs),
(114,105,ls),
(114,37,o),
(43,31,qs),
(20,29,l),
(20,0,l),
(314,0,l),
(314,29,l),
(291,31,ls),
(220,37,o),
(220,105,qs)
);
},
{
closed = 1;
nodes = (
(320,820,l),
(320,880,l),
(14,880,l),
(14,820,l)
);
}
);
width = 334;
}
);
note = Imacron;
unicode = 298;
},
{
glyphname = Iogonek;
kernRight = H;
layers = (
{
layerId = m01;
shapes = (
{
closed = 1;
nodes = (
(220,595,ls),
(220,663,o),
(291,669,qs),
(314,671,l),
(314,700,l),
(20,700,l),
(20,671,l),
(43,669,ls),
(114,663,o),
(114,595,qs),
(114,105,ls),
(114,37,o),
(43,31,qs),
(20,29,l),
(20,0,l),
(278,0,l),
(218,-22,o),
(146,-100,o),
(146,-139,qs),
(146,-171,o),
(189,-211,o),
(226,-211,qs),
(256,-211,o),
(305,-182,o),
(317,-154,q),
(314,-151,l),
(300,-160,o),
(277,-169,o),
(262,-169,qs),
(237,-169,o),
(208,-143,o),
(208,-121,qs),
(208,-93,o),
(255,-30,o),
(302,-6,qs),
(314,0,l),
(314,29,l),
(291,31,ls),
(220,37,o),
(220,105,qs)
);
}
);
width = 334;
}
);
note = Iogonek;
unicode = 302;
},
{
glyphname = Itilde;
kernRight = H;
layers = (
{
layerId = m01;
shapes = (
{
closed = 1;
nodes = (
(220,595,ls),
(220,663,o),
(291,669,qs),
(314,671,l),
(314,700,l),
(20,700,l),
(20,671,l),
(43,669,ls),
(114,663,o),
(114,595,qs),
(114,105,ls),
(114,37,o),
(43,31,qs),
(20,29,l),
(20,0,l),
(314,0,l),
(314,29,l),
(291,31,ls),
(220,37,o),
(220,105,qs)
);
},
{
closed = 1;
nodes = (
(-10,780,l),
(11,816,o),
(49,845,o),
(68,845,qs),
(84,845,o),
(121,829,o),
(150,813,qs),
(179,797,o),
(217,780,o),
(234,780,qs),
(271,780,o),
(325,848,o),
(348,924,q),
(344,924,l),
(323,889,o),
(285,860,o),
(266,860,qs),
(251,860,o),
(214,876,o),
(188,891,qs),
(159,908,o),
(118,925,o),
(100,925,qs),
(63,925,o),
(9,856,o),
(-14,780,q)
);
}
);
width = 334;
}
);
note = Itilde;
unicode = 296;
},
{
glyphname = Jcircumflex;
kernLeft = J;
kernRight = J;
layers = (
{
layerId = m01;
shapes = (
{
closed = 1;
nodes = (
(454,595,ls),
(454,663,o),
(525,669,qs),
(548,671,l),
(548,700,l),
(254,700,l),
(254,671,l),
(277,669,ls),
(348,663,o),
(348,595,qs),
(348,183,ls),
(348,112,o),
(275,32,o),
(211,32,qs),
(165,32,o),
(108,77,o),
(107,114,q),
(128,114,l),
(130,126,o),
(130,132,qs),
(130,160,o),
(100,192,o),
(74,192,qs),
(52,192,o),
(21,160,o),
(21,137,qs),
(21,97,o),
(74,29,o),
(165,-11,o),
(218,-11,qs),
(286,-11,o),
(394,47,o),
(454,149,o),
(454,214,qs)
);
},
{
closed = 1;
nodes = (
(246,765,l),
(412,873,l),
(448,873,l),
(398,838,l),
(556,765,l),
(560,765,l),
(456,915,l),
(346,915,l),
(242,765,l)
);
}
);
width = 568;
}
);
note = Jcircumflex;
unicode = 308;
},
{
glyphname = uni0136;
kernRight = K;
layers = (
{
layerId = m01;
shapes = (
{
closed = 1;
nodes = (
(17,29,l),
(17,0,l),
(311,0,l),
(311,29,l),
(288,31,ls),
(217,37,o),
(217,105,qs),
(217,259,l),
(311,356,l),
(556,0,l),
(719,0,l),
(719,27,l),
(689,35,o),
(642,71,o),
(619,103,qs),
(383,431,l),
(535,587,ls),
(564,616,o),
(649,663,o),
(689,673,q),
(689,700,l),
(454,700,l),
(454,671,l),
(476,669,ls),
(492,668,o),
(510,652,o),
(510,639,qs),
(510,617,o),
(483,588,qs),
(189,283,l),
(189,308,l),
(217,338,l),
(217,595,ls),
(217,663,o),
(288,669,qs),
(311,671,l),
(311,700,l),
(17,700,l),
(17,671,l),
(40,669,ls),
(111,663,o),
(111,595,qs),
(111,105,ls),
(111,37,o),
(40,31,qs)
);
},
{
closed = 1;
nodes = (
(333,-127,o),
(365,-158,o),
(387,-158,qs),
(401,-158,o),
(405,-154,q),
(405,-114,l),
(423,-114,l),
(423,-133,ls),
(423,-173,o),
(380,-237,o),
(343,-254,q),
(346,-260,l),
(402,-244,o),
(466,-169,o),
(466,-122,qs),
(466,-87,o),
(429,-46,o),
(397,-46,qs),
(369,-46,o),
(333,-79,o),
(333,-104,qs)
);
}
);
width = 728;
}
);
note = uni0136;
unicode = 310;
},
{
glyphname = Lacute;
kernRight = L;
layers = (
{
layerId = m01;
shapes = (
{
closed = 1;
nodes = (
(587,0,l),
(619,249,l),
(586,249,l),
(569,188,ls),
(548,112,o),
(470,41,o),
(409,41,qs),
(184,41,l),
(184,61,l),
(220,61,l),
(220,595,ls),
(220,663,o),
(291,669,qs),
(314,671,l),
(314,700,l),
(20,700,l),
(20,671,l),
(43,669,ls),
(114,663,o),
(114,595,qs),
(114,105,ls),
(114,37,o),
(43,31,qs),
(20,29,l),
(20,0,l)
);
},
{
closed = 1;
nodes = (
(185,901,ls),
(204,928,o),
(233,950,o),
(253,950,qs),
(275,950,o),
(301,924,o),
(301,906,qs),
(301,892,o),
(284,866,o),
(269,858,qs),
(96,765,l),
(92,765,l)
);
}
);
width = 645;
}
);
note = Lacute;
unicode = 313;
},
{
glyphname = Lcaron;
kernRight = L;
layers = (
{
layerId = m01;
shapes = (
{
closed = 1;
nodes = (
(587,0,l),
(619,249,l),
(586,249,l),
(569,188,ls),
(548,112,o),
(470,41,o),
(409,41,qs),
(184,41,l),
(184,61,l),
(220,61,l),
(220,595,ls),
(220,663,o),
(291,669,qs),
(314,671,l),
(314,700,l),
(20,700,l),
(20,671,l),
(43,669,ls),
(114,663,o),
(114,595,qs),
(114,105,ls),
(114,37,o),
(43,31,qs),
(20,29,l),
(20,0,l)
);
},
{
closed = 1;
nodes = (
(439,630,o),
(471,598,o),
(493,598,qs),
(507,598,o),
(511,602,q),
(511,642,l),
(529,642,l),
(529,623,ls),
(529,583,o),
(486,519,o),
(449,502,q),
(452,496,l),
(508,512,o),
(572,587,o),
(572,634,qs),
(572,669,o),
(535,710,o),
(503,710,qs),
(475,710,o),
(439,677,o),
(439,652,qs)
);
}
);
width = 645;
}
);
note = Lcaron;
unicode = 317;
},
{
glyphname = uni013B;
kernRight = L;
layers = (
{
layerId = m01;
shapes = (
{
closed = 1;
nodes = (
(587,0,l),
(619,249,l),
(586,249,l),
(569,188,ls),
(548,112,o),
(470,41,o),
(409,41,qs),
(184,41,l),
(184,61,l),
(220,61,l),
(220,595,ls),
(220,663,o),
(291,669,qs),
(314,671,l),
(314,700,l),
(20,700,l),
(20,671,l),
(43,669,ls),
(114,663,o),
(114,595,qs),
(114,105,ls),
(114,37,o),
(43,31,qs),
(20,29,l),
(20,0,l)
);
},
{
closed = 1;
nodes = (
(271,-127,o),
(303,-158,o),
(325,-158,qs),
(339,-158,o),
(343,-154,q),
(343,-114,l),
(361,-114,l),
(361,-133,ls),
(361,-173,o),
(318,-237,o),
(281,-254,q),
(284,-260,l),
(340,-244,o),
(404,-169,o),
(404,-122,qs),
(404,-87,o),
(367,-46,o),
(335,-46,qs),
(307,-46,o),
(271,-79,o),
(271,-104,qs)
);
}
);
width = 645;
}
);
note = uni013B;
unicode = 315;
},
{
glyphname = Ldot;
kernRight = L;
layers = (
{
layerId = m01;
shapes = (
{
closed = 1;
nodes = (
(587,0,l),
(619,249,l),
(586,249,l),
(569,188,ls),
(548,112,o),
(470,41,o),
(409,41,qs),
(184,41,l),
(184,61,l),
(220,61,l),
(220,595,ls),
(220,663,o),
(291,669,qs),
(314,671,l),
(314,700,l),
(20,700,l),
(20,671,l),
(43,669,ls),
(114,663,o),
(114,595,qs),
(114,105,ls),
(114,37,o),
(43,31,qs),
(20,29,l),
(20,0,l)
);
},
{
closed = 1;
nodes = (
(559,373,l),
(559,472,l),
(461,472,l),
(461,373,l)
);
}
);
width = 645;
}
);
note = Ldot;
unicode = 319;
},
{
glyphname = Nacute;
kernRight = N;
layers = (
{
layerId = m01;
shapes = (
{
closed = 1;
nodes = (
(650,584,ls),
(650,622,o),
(685,663,o),
(721,668,qs),
(744,671,l),
(744,700,l),
(502,700,l),
(502,671,l),
(525,668,ls),
(597,659,o),
(597,584,qs),
(597,189,l),
(578,211,l),
(578,248,l),
(196,700,l),
(34,700,l),
(114,618,l),
(114,116,ls),
(114,78,o),
(79,37,o),
(43,32,qs),
(20,29,l),
(20,0,l),
(262,0,l),
(262,29,l),
(239,32,ls),
(167,41,o),
(167,116,qs),
(167,570,l),
(650,-10,l)
);
},
{
closed = 1;
nodes = (
(417,901,ls),
(436,928,o),
(465,950,o),
(485,950,qs),
(507,950,o),
(533,924,o),
(533,906,qs),
(533,892,o),
(516,866,o),
(501,858,qs),
(328,765,l),
(324,765,l)
);
}
);
width = 759;
}
);
note = Nacute;
unicode = 323;
},
{
glyphname = Ncaron;
kernRight = N;
layers = (
{
layerId = m01;
shapes = (
{
closed = 1;
nodes = (
(650,584,ls),
(650,622,o),
(685,663,o),
(721,668,qs),
(744,671,l),
(744,700,l),
(502,700,l),
(502,671,l),
(525,668,ls),
(597,659,o),
(597,584,qs),
(597,189,l),
(578,211,l),
(578,248,l),
(196,700,l),
(34,700,l),
(114,618,l),
(114,116,ls),
(114,78,o),
(79,37,o),
(43,32,qs),
(20,29,l),
(20,0,l),
(262,0,l),
(262,29,l),
(239,32,ls),
(167,41,o),
(167,116,qs),
(167,570,l),
(650,-10,l)
);
},
{
closed = 1;
nodes = (
(344,778,l),
(454,778,l),
(558,928,l),
(554,928,l),
(388,820,l),
(352,820,l),
(402,855,l),
(244,928,l),
(240,928,l)
);
}
);
width = 759;
}
);
note = Ncaron;
unicode = 327;
},
{
glyphname = uni0145;
kernRight = N;
layers = (
{
layerId = m01;
shapes = (
{
closed = 1;
nodes = (
(650,584,ls),
(650,622,o),
(685,663,o),
(721,668,qs),
(744,671,l),
(744,700,l),
(502,700,l),
(502,671,l),
(525,668,ls),
(597,659,o),
(597,584,qs),
(597,189,l),
(578,211,l),
(578,248,l),
(196,700,l),
(34,700,l),
(114,618,l),
(114,116,ls),
(114,78,o),
(79,37,o),
(43,32,qs),
(20,29,l),
(20,0,l),
(262,0,l),
(262,29,l),
(239,32,ls),
(167,41,o),
(167,116,qs),
(167,570,l),
(650,-10,l)
);
},
{
closed = 1;
nodes = (
(318,-127,o),
(350,-158,o),
(372,-158,qs),
(386,-158,o),
(390,-154,q),
(390,-114,l),
(408,-114,l),
(408,-133,ls),
(408,-173,o),
(365,-237,o),
(328,-254,q),
(331,-260,l),
(387,-244,o),
(451,-169,o),
(451,-122,qs),
(451,-87,o),
(414,-46,o),
(382,-46,qs),
(354,-46,o),
(318,-79,o),
(318,-104,qs)
);
}
);
width = 759;
}
);
note = uni0145;
unicode = 325;
},
{
glyphname = Obreve;
kernLeft = C;
kernRight = D;
layers = (
{
layerId = m01;
shapes = (
{
closed = 1;
nodes = (
(456,-11,o),
(610,85,o),
(700,253,o),
(700,355,qs),
(700,457,o),
(611,620,o),
(459,712,o),
(368,712,qs),
(276,712,o),
(122,616,o),
(32,449,o),
(32,347,qs),
(32,245,o),
(121,81,o),
(273,-11,o),
(364,-11,qs)
);
},
{
closed = 1;
nodes = (
(146,461,o),
(200,597,o),
(295,670,o),
(354,670,qs),
(420,670,o),
(523,588,o),
(582,434,o),
(582,331,qs),
(582,241,o),
(528,105,o),
(433,32,o),
(374,32,qs),
(308,32,o),
(205,114,o),
(146,268,o),
(146,371,qs)
);
},
{
closed = 1;
nodes = (
(224,883,o),
(260,813,o),
(323,775,o),
(361,775,qs),
(399,775,o),
(462,813,o),
(498,883,o),
(496,930,q),
(492,930,l),
(480,898,o),
(412,857,o),
(361,857,qs),
(310,857,o),
(242,898,o),
(230,930,q),
(226,930,l)
);
}
);
width = 731;
}
);
note = Obreve;
unicode = 334;
},
{
glyphname = Ohungarumlaut;
kernLeft = C;
kernRight = D;
layers = (
{
layerId = m01;
shapes = (
{
closed = 1;
nodes = (
(456,-11,o),
(610,85,o),
(700,253,o),
(700,355,qs),
(700,457,o),
(611,620,o),
(459,712,o),
(368,712,qs),
(276,712,o),
(122,616,o),
(32,449,o),
(32,347,qs),
(32,245,o),
(121,81,o),
(273,-11,o),
(364,-11,qs)
);
},
{
closed = 1;
nodes = (
(146,461,o),
(200,597,o),
(295,670,o),
(354,670,qs),
(420,670,o),
(523,588,o),
(582,434,o),
(582,331,qs),
(582,241,o),
(528,105,o),
(433,32,o),
(374,32,qs),
(308,32,o),
(205,114,o),
(146,268,o),
(146,371,qs)
);
},
{
closed = 1;
nodes = (
(225,768,l),
(379,870,ls),
(393,879,o),
(409,904,o),
(409,916,qs),
(409,932,o),
(386,953,o),
(366,953,qs),
(346,953,o),
(316,930,o),
(300,903,qs),
(221,768,l)
);
},
{
closed = 1;
nodes = (
(385,768,l),
(539,870,ls),
(553,879,o),
(569,904,o),
(569,916,qs),
(569,932,o),
(546,953,o),
(526,953,qs),
(506,953,o),
(476,930,o),
(460,903,qs),
(381,768,l)
);
}
);
width = 731;
}
);
note = Ohungarumlaut;
unicode = 336;
},
{
glyphname = Omacron;
kernLeft = C;
kernRight = D;
layers = (
{
layerId = m01;
shapes = (
{
closed = 1;
nodes = (
(456,-11,o),
(610,85,o),
(700,253,o),
(700,355,qs),
(700,457,o),
(611,620,o),
(459,712,o),
(368,712,qs),
(276,712,o),
(122,616,o),
(32,449,o),
(32,347,qs),
(32,245,o),
(121,81,o),
(273,-11,o),
(364,-11,qs)
);
},
{
closed = 1;
nodes = (
(146,461,o),
(200,597,o),
(295,670,o),
(354,670,qs),
(420,670,o),
(523,588,o),
(582,434,o),
(582,331,qs),
(582,241,o),
(528,105,o),
(433,32,o),
(374,32,qs),
(308,32,o),
(205,114,o),
(146,268,o),
(146,371,qs)
);
},
{
closed = 1;
nodes = (
(514,820,l),
(514,880,l),
(208,880,l),
(208,820,l)
);
}
);
width = 731;
}
);
note = Omacron;
unicode = 332;
},
{
glyphname = Racute;
kernRight = R;
layers = (
{
layerId = m01;
shapes = (
{
closed = 1;
nodes = (
(220,318,l),
(184,318,l),
(184,338,l),
(316,338,ls),
(353,338,o),
(397,304,o),
(412,264,qs),
(511,0,l),
(687,0,l),
(687,28,l),
(674,30,ls),
(644,35,o),
(607,59,o),
(597,84,qs),
(524,258,ls),
(509,294,o),
(464,339,o),
(428,352,q),
(469,360,o),
(542,411,o),
(587,486,o),
(587,527,qs),
(587,578,o),
(527,657,o),
(419,700,o),
(349,700,qs),
(20,700,l),
(20,671,l),
(43,669,ls),
(114,663,o),
(114,595,qs),
(114,105,ls),
(114,37,o),
(43,31,qs),
(20,29,l),
(20,0,l),
(314,0,l),
(314,29,l),
(291,31,ls),
(220,37,o),
(220,105,qs)
);
},
{
closed = 1;
nodes = (
(184,659,l),
(333,659,ls),
(400,659,o),
(476,583,o),
(476,517,qs),
(476,453,o),
(397,373,o),
(333,373,qs),
(220,373,l),
(220,639,l),
(184,639,l)
);
},
{
closed = 1;
nodes = (
(364,901,ls),
(383,928,o),
(412,950,o),
(432,950,qs),
(454,950,o),
(480,924,o),
(480,906,qs),
(480,892,o),
(463,866,o),
(448,858,qs),
(275,765,l),
(271,765,l)
);
}
);
width = 693;
}
);
note = Racute;
unicode = 340;
},
{
glyphname = Rcaron;
kernRight = R;
layers = (
{
layerId = m01;
shapes = (
{
closed = 1;
nodes = (
(220,318,l),
(184,318,l),
(184,338,l),
(316,338,ls),
(353,338,o),
(397,304,o),
(412,264,qs),
(511,0,l),
(687,0,l),
(687,28,l),
(674,30,ls),
(644,35,o),
(607,59,o),
(597,84,qs),
(524,258,ls),
(509,294,o),
(464,339,o),
(428,352,q),
(469,360,o),
(542,411,o),
(587,486,o),
(587,527,qs),
(587,578,o),
(527,657,o),
(419,700,o),
(349,700,qs),
(20,700,l),
(20,671,l),
(43,669,ls),
(114,663,o),
(114,595,qs),
(114,105,ls),
(114,37,o),
(43,31,qs),
(20,29,l),
(20,0,l),
(314,0,l),
(314,29,l),
(291,31,ls),
(220,37,o),
(220,105,qs)
);
},
{
closed = 1;
nodes = (
(184,659,l),
(333,659,ls),
(400,659,o),
(476,583,o),
(476,517,qs),
(476,453,o),
(397,373,o),
(333,373,qs),
(220,373,l),
(220,639,l),
(184,639,l)
);
},
{
closed = 1;
nodes = (
(291,778,l),
(401,778,l),
(505,928,l),
(501,928,l),
(335,820,l),
(299,820,l),
(349,855,l),
(191,928,l),
(187,928,l)
);
}
);
width = 693;
}
);
note = Rcaron;
unicode = 344;
},
{
glyphname = uni0156;
kernRight = R;
layers = (
{
layerId = m01;
shapes = (
{
closed = 1;
nodes = (
(220,318,l),
(184,318,l),
(184,338,l),
(316,338,ls),
(353,338,o),
(397,304,o),
(412,264,qs),
(511,0,l),
(687,0,l),
(687,28,l),
(674,30,ls),
(644,35,o),
(607,59,o),
(597,84,qs),
(524,258,ls),
(509,294,o),
(464,339,o),
(428,352,q),
(469,360,o),
(542,411,o),
(587,486,o),
(587,527,qs),
(587,578,o),
(527,657,o),
(419,700,o),
(349,700,qs),
(20,700,l),
(20,671,l),
(43,669,ls),
(114,663,o),
(114,595,qs),
(114,105,ls),
(114,37,o),
(43,31,qs),
(20,29,l),
(20,0,l),
(314,0,l),
(314,29,l),
(291,31,ls),
(220,37,o),
(220,105,qs)
);
},
{
closed = 1;
nodes = (
(184,659,l),
(333,659,ls),
(400,659,o),
(476,583,o),
(476,517,qs),
(476,453,o),
(397,373,o),
(333,373,qs),
(220,373,l),
(220,639,l),
(184,639,l)
);
},
{
closed = 1;
nodes = (
(298,-127,o),
(330,-158,o),
(352,-158,qs),
(366,-158,o),
(370,-154,q),
(370,-114,l),
(388,-114,l),
(388,-133,ls),
(388,-173,o),
(345,-237,o),
(308,-254,q),
(311,-260,l),
(367,-244,o),
(431,-169,o),
(431,-122,qs),
(431,-87,o),
(394,-46,o),
(362,-46,qs),
(334,-46,o),
(298,-79,o),
(298,-104,qs)
);
}
);
width = 693;
}
);
note = uni0156;
unicode = 342;
},
{
glyphname = Sacute;
kernLeft = S;
kernRight = S;
layers = (
{
layerId = m01;
shapes = (
{
closed = 1;
nodes = (
(352,-11,o),
(460,41,o),
(520,136,o),
(520,198,qs),
(520,259,o),
(455,349,o),
(394,373,qs),
(210,445,ls),
(167,462,o),
(121,520,o),
(121,557,qs),
(121,606,o),
(184,665,o),
(237,665,qs),
(300,665,o),
(389,593,o),
(422,516,qs),
(440,474,l),
(475,474,l),
(472,708,l),
(400,667,l),
(406,661,o),
(425,639,o),
(431,630,q),
(432,593,l),
(400,649,o),
(301,710,o),
(240,710,qs),
(180,710,o),
(87,660,o),
(35,571,o),
(35,514,qs),
(35,458,o),
(96,375,o),
(155,351,qs),
(326,283,ls),
(375,264,o),
(428,200,o),
(428,159,qs),
(428,102,o),
(350,34,o),
(283,34,qs),
(156,34,o),
(91,178,qs),
(65,235,l),
(30,235,l),
(33,-9,l),
(107,35,l),
(81,57,o),
(76,64,q),
(75,98,l),
(159,-11,o),
(281,-11,qs)
);
},
{
closed = 1;
nodes = (
(279,901,ls),
(298,928,o),
(327,950,o),
(347,950,qs),
(369,950,o),
(395,924,o),
(395,906,qs),
(395,892,o),
(378,866,o),
(363,858,qs),
(190,765,l),
(186,765,l)
);
}
);
width = 545;
}
);
note = Sacute;
unicode = 346;
},
{
glyphname = Scedilla;
kernLeft = S;
kernRight = S;
layers = (
{
layerId = m01;
shapes = (
{
closed = 1;
nodes = (
(196,-189,l),
(223,-205,o),
(260,-205,qs),
(305,-205,o),
(364,-163,o),
(364,-131,qs),
(364,-111,o),
(338,-73,o),
(300,-51,qs),
(293,-47,l),
(276,-76,l),
(257,-65,l),
(288,-11,l),
(357,-10,o),
(462,43,o),
(520,137,o),
(520,198,qs),
(520,259,o),
(455,349,o),
(394,373,qs),
(210,445,ls),
(167,462,o),
(121,520,o),
(121,557,qs),
(121,606,o),
(184,665,o),
(237,665,qs),
(300,665,o),
(389,593,o),
(422,516,qs),
(440,474,l),
(475,474,l),
(472,708,l),
(400,667,l),
(406,661,o),
(425,639,o),
(431,630,q),
(432,593,l),
(400,649,o),
(301,710,o),
(240,710,qs),
(180,710,o),
(87,660,o),
(35,571,o),
(35,514,qs),
(35,458,o),
(96,375,o),
(155,351,qs),
(326,283,ls),
(375,264,o),
(428,200,o),
(428,159,qs),
(428,102,o),
(350,34,o),
(283,34,qs),
(156,34,o),
(91,178,qs),
(65,235,l),
(30,235,l),
(33,-9,l),
(107,35,l),
(81,57,o),
(76,64,q),
(75,98,l),
(150,1,o),
(255,-10,q),
(212,-80,l),
(260,-109,ls),
(289,-127,o),
(289,-148,qs),
(289,-165,o),
(250,-186,o),
(214,-186,qs),
(196,-185,l)
);
}
);
width = 545;
}
);
note = Scedilla;
unicode = 350;
},
{
glyphname = Scircumflex;
kernLeft = S;
kernRight = S;
layers = (
{
layerId = m01;
shapes = (
{
closed = 1;
nodes = (
(352,-11,o),
(460,41,o),
(520,136,o),
(520,198,qs),
(520,259,o),
(455,349,o),
(394,373,qs),
(210,445,ls),
(167,462,o),
(121,520,o),
(121,557,qs),
(121,606,o),
(184,665,o),
(237,665,qs),
(300,665,o),
(389,593,o),
(422,516,qs),
(440,474,l),
(475,474,l),
(472,708,l),
(400,667,l),
(406,661,o),
(425,639,o),
(431,630,q),
(432,593,l),
(400,649,o),
(301,710,o),
(240,710,qs),
(180,710,o),
(87,660,o),
(35,571,o),
(35,514,qs),
(35,458,o),
(96,375,o),
(155,351,qs),
(326,283,ls),
(375,264,o),
(428,200,o),
(428,159,qs),
(428,102,o),
(350,34,o),
(283,34,qs),
(156,34,o),
(91,178,qs),
(65,235,l),
(30,235,l),
(33,-9,l),
(107,35,l),
(81,57,o),
(76,64,q),
(75,98,l),
(159,-11,o),
(281,-11,qs)
);
},
{
closed = 1;
nodes = (
(106,765,l),
(272,873,l),
(308,873,l),
(258,838,l),
(416,765,l),
(420,765,l),
(316,915,l),
(206,915,l),
(102,765,l)
);
}
);
width = 545;
}
);
note = Scircumflex;
unicode = 348;
},
{
glyphname = uni0218;
kernLeft = S;
kernRight = S;
layers = (
{
layerId = m01;
shapes = (
{
closed = 1;
nodes = (
(352,-11,o),
(460,41,o),
(520,136,o),
(520,198,qs),
(520,259,o),
(455,349,o),
(394,373,qs),
(210,445,ls),
(167,462,o),
(121,520,o),
(121,557,qs),
(121,606,o),
(184,665,o),
(237,665,qs),
(300,665,o),
(389,593,o),
(422,516,qs),
(440,474,l),
(475,474,l),
(472,708,l),
(400,667,l),
(406,661,o),
(425,639,o),
(431,630,q),
(432,593,l),
(400,649,o),
(301,710,o),
(240,710,qs),
(180,710,o),
(87,660,o),
(35,571,o),
(35,514,qs),
(35,458,o),
(96,375,o),
(155,351,qs),
(326,283,ls),
(375,264,o),
(428,200,o),
(428,159,qs),
(428,102,o),
(350,34,o),
(283,34,qs),
(156,34,o),
(91,178,qs),
(65,235,l),
(30,235,l),
(33,-9,l),
(107,35,l),
(81,57,o),
(76,64,q),
(75,98,l),
(159,-11,o),
(281,-11,qs)
);
},
{
closed = 1;
nodes = (
(214,-127,o),
(246,-158,o),
(268,-158,qs),
(282,-158,o),
(286,-154,q),
(286,-114,l),
(304,-114,l),
(304,-133,ls),
(304,-173,o),
(261,-237,o),
(224,-254,q),
(227,-260,l),
(283,-244,o),
(347,-169,o),
(347,-122,qs),
(347,-87,o),
(310,-46,o),
(278,-46,qs),
(250,-46,o),
(214,-79,o),
(214,-104,qs)
);
}
);
width = 545;
}
);
note = uni0218;
unicode = 536;
},
{
glyphname = Tbar;
kernLeft = T;
kernRight = T;
layers = (
{
layerId = m01;
shapes = (
{
closed = 1;
nodes = (
(547,375,l),
(383,375,l),
(383,639,l),
(347,639,l),
(347,659,l),
(444,659,ls),
(503,659,o),
(573,601,o),
(592,536,qs),
(608,480,l),
(641,480,l),
(629,700,l),
(30,700,l),
(18,480,l),
(51,480,l),
(67,536,ls),
(86,601,o),
(156,659,o),
(215,659,qs),
(277,659,l),
(277,375,l),
(113,375,l),
(113,340,l),
(313,340,l),
(313,320,l),
(277,320,l),
(277,105,ls),
(277,37,o),
(206,31,qs),
(183,29,l),
(183,0,l),
(477,0,l),
(477,29,l),
(454,31,ls),
(383,37,o),
(383,105,qs),
(383,340,l),
(547,340,l)
);
}
);
width = 659;
}
);
note = Tbar;
unicode = 358;
},
{
glyphname = Tcaron;
kernLeft = T;
kernRight = T;
layers = (
{
layerId = m01;
shapes = (
{
closed = 1;
nodes = (
(30,700,l),
(18,480,l),
(51,480,l),
(67,536,ls),
(86,601,o),
(156,659,o),
(215,659,qs),
(277,659,l),
(277,105,ls),
(277,37,o),
(206,31,qs),
(183,29,l),
(183,0,l),
(477,0,l),
(477,29,l),
(454,31,ls),
(383,37,o),
(383,105,qs),
(383,639,l),
(347,639,l),
(347,659,l),
(444,659,ls),
(503,659,o),
(573,601,o),
(592,536,qs),
(608,480,l),
(641,480,l),
(629,700,l)
);
},
{
closed = 1;
nodes = (
(274,778,l),
(384,778,l),
(488,928,l),
(484,928,l),
(318,820,l),
(282,820,l),
(332,855,l),
(174,928,l),
(170,928,l)
);
}
);
width = 659;
}
);
note = Tcaron;
unicode = 356;
},
{
glyphname = uni0162;
kernLeft = T;
kernRight = T;
layers = (
{
layerId = m01;
shapes = (
{
closed = 1;
nodes = (
(245,-189,l),
(272,-205,o),
(309,-205,qs),
(354,-205,o),
(413,-163,o),
(413,-131,qs),
(413,-111,o),
(387,-73,o),
(349,-51,qs),
(342,-47,l),
(325,-76,l),
(306,-65,l),
(344,0,l),
(477,0,l),
(477,29,l),
(454,31,ls),
(383,37,o),
(383,105,qs),
(383,639,l),
(347,639,l),
(347,659,l),
(444,659,ls),
(503,659,o),
(573,601,o),
(592,536,qs),
(608,480,l),
(641,480,l),
(629,700,l),
(30,700,l),
(18,480,l),
(51,480,l),
(67,536,ls),
(86,601,o),
(156,659,o),
(215,659,qs),
(277,659,l),
(277,105,ls),
(277,37,o),
(206,31,qs),
(183,29,l),
(183,0,l),
(310,0,l),
(261,-80,l),
(309,-109,ls),
(338,-127,o),
(338,-148,qs),
(338,-165,o),
(299,-186,o),
(263,-186,qs),
(245,-185,l)
);
}
);
width = 659;
}
);
note = uni0162;
},
{
glyphname = uni021A;
kernLeft = T;
kernRight = T;
layers = (
{
layerId = m01;
shapes = (
{
closed = 1;
nodes = (
(30,700,l),
(18,480,l),
(51,480,l),
(67,536,ls),
(86,601,o),
(156,659,o),
(215,659,qs),
(277,659,l),
(277,105,ls),
(277,37,o),
(206,31,qs),
(183,29,l),
(183,0,l),
(477,0,l),
(477,29,l),
(454,31,ls),
(383,37,o),
(383,105,qs),
(383,639,l),
(347,639,l),
(347,659,l),
(444,659,ls),
(503,659,o),
(573,601,o),
(592,536,qs),
(608,480,l),
(641,480,l),
(629,700,l)
);
},
{
closed = 1;
nodes = (
(263,-127,o),
(295,-158,o),
(317,-158,qs),
(331,-158,o),
(335,-154,q),
(335,-114,l),
(353,-114,l),
(353,-133,ls),
(353,-173,o),
(310,-237,o),
(273,-254,q),
(276,-260,l),
(332,-244,o),
(396,-169,o),
(396,-122,qs),
(396,-87,o),
(359,-46,o),
(327,-46,qs),
(299,-46,o),
(263,-79,o),
(263,-104,qs)
);
}
);
width = 659;
}
);
note = uni021A;
unicode = 538;
},
{
glyphname = Ubreve;
kernLeft = U;
kernRight = J;
layers = (
{
layerId = m01;
shapes = (
{
closed = 1;
nodes = (
(456,-11,o),
(581,61,o),
(649,194,o),
(649,283,qs),
(649,584,ls),
(649,622,o),
(684,663,o),
(720,668,qs),
(743,671,l),
(743,700,l),
(501,700,l),
(501,671,l),
(524,668,ls),
(596,659,o),
(596,584,qs),
(596,296,ls),
(596,183,o),
(490,51,o),
(399,51,qs),
(317,51,o),
(219,159,o),
(219,250,qs),
(219,595,ls),
(219,663,o),
(290,669,qs),
(313,671,l),
(313,700,l),
(20,700,l),
(20,671,l),
(43,669,ls),
(114,663,o),
(114,595,qs),
(114,230,ls),
(114,157,o),
(177,48,o),
(294,-11,o),
(372,-11,qs)
);
},
{
closed = 1;
nodes = (
(269,883,o),
(305,813,o),
(368,775,o),
(406,775,qs),
(444,775,o),
(507,813,o),
(543,883,o),
(541,930,q),
(537,930,l),
(525,898,o),
(457,857,o),
(406,857,qs),
(355,857,o),
(287,898,o),
(275,930,q),
(271,930,l)
);
}
);
width = 763;
}
);
note = Ubreve;
unicode = 364;
},
{
glyphname = Uhungarumlaut;
kernLeft = U;
kernRight = J;
layers = (
{
layerId = m01;
shapes = (
{
closed = 1;
nodes = (
(456,-11,o),
(581,61,o),
(649,194,o),
(649,283,qs),
(649,584,ls),
(649,622,o),
(684,663,o),
(720,668,qs),
(743,671,l),
(743,700,l),
(501,700,l),
(501,671,l),
(524,668,ls),
(596,659,o),
(596,584,qs),
(596,296,ls),
(596,183,o),
(490,51,o),
(399,51,qs),
(317,51,o),
(219,159,o),
(219,250,qs),
(219,595,ls),
(219,663,o),
(290,669,qs),
(313,671,l),
(313,700,l),
(20,700,l),
(20,671,l),
(43,669,ls),
(114,663,o),
(114,595,qs),
(114,230,ls),
(114,157,o),
(177,48,o),
(294,-11,o),
(372,-11,qs)
);
},
{
closed = 1;
nodes = (
(270,768,l),
(424,870,ls),
(438,879,o),
(454,904,o),
(454,916,qs),
(454,932,o),
(431,953,o),
(411,953,qs),
(391,953,o),
(361,930,o),
(345,903,qs),
(266,768,l)
);
},
{
closed = 1;
nodes = (
(430,768,l),
(584,870,ls),
(598,879,o),
(614,904,o),
(614,916,qs),
(614,932,o),
(591,953,o),
(571,953,qs),
(551,953,o),
(521,930,o),
(505,903,qs),
(426,768,l)
);
}
);
width = 763;
}
);
note = Uhungarumlaut;
unicode = 368;
},
{
glyphname = Umacron;
kernLeft = U;
kernRight = J;
layers = (
{
layerId = m01;
shapes = (
{
closed = 1;
nodes = (
(456,-11,o),
(581,61,o),
(649,194,o),
(649,283,qs),
(649,584,ls),
(649,622,o),
(684,663,o),
(720,668,qs),
(743,671,l),
(743,700,l),
(501,700,l),
(501,671,l),
(524,668,ls),
(596,659,o),
(596,584,qs),
(596,296,ls),
(596,183,o),
(490,51,o),
(399,51,qs),
(317,51,o),
(219,159,o),
(219,250,qs),
(219,595,ls),
(219,663,o),
(290,669,qs),
(313,671,l),
(313,700,l),
(20,700,l),
(20,671,l),
(43,669,ls),
(114,663,o),
(114,595,qs),
(114,230,ls),
(114,157,o),
(177,48,o),
(294,-11,o),
(372,-11,qs)
);
},
{
closed = 1;
nodes = (
(559,820,l),
(559,880,l),
(253,880,l),
(253,820,l)
);
}
);
width = 763;
}
);
note = Umacron;
unicode = 362;
},
{
glyphname = Uogonek;
kernLeft = U;
kernRight = J;
layers = (
{
layerId = m01;
shapes = (
{
closed = 1;
nodes = (
(391,-11,o),
(400,-10,q),
(349,-34,o),
(291,-104,o),
(291,-139,qs),
(291,-171,o),
(334,-211,o),
(371,-211,qs),
(401,-211,o),
(450,-182,o),
(462,-154,q),
(459,-151,l),
(445,-160,o),
(422,-169,o),
(407,-169,qs),
(382,-169,o),
(353,-143,o),
(353,-121,qs),
(353,-93,o),
(400,-30,o),
(447,-6,qs),
(459,0,l),
(458,0,l),
(548,25,o),
(649,174,o),
(649,283,qs),
(649,584,ls),
(649,622,o),
(684,663,o),
(720,668,qs),
(743,671,l),
(743,700,l),
(501,700,l),
(501,671,l),
(524,668,ls),
(596,659,o),
(596,584,qs),
(596,296,ls),
(596,183,o),
(490,51,o),
(399,51,qs),
(317,51,o),
(219,159,o),
(219,250,qs),
(219,595,ls),
(219,663,o),
(290,669,qs),
(313,671,l),
(313,700,l),
(20,700,l),
(20,671,l),
(43,669,ls),
(114,663,o),
(114,595,qs),
(114,230,ls),
(114,157,o),
(177,48,o),
(294,-11,o),
(372,-11,qs)
);
}
);
width = 763;
}
);
note = Uogonek;
unicode = 370;
},
{
glyphname = Uring;
kernLeft = U;
kernRight = J;
layers = (
{
layerId = m01;
shapes = (
{
closed = 1;
nodes = (
(456,-11,o),
(581,61,o),
(649,194,o),
(649,283,qs),
(649,584,ls),
(649,622,o),
(684,663,o),
(720,668,qs),
(743,671,l),
(743,700,l),
(501,700,l),
(501,671,l),
(524,668,ls),
(596,659,o),
(596,584,qs),
(596,296,ls),
(596,183,o),
(490,51,o),
(399,51,qs),
(317,51,o),
(219,159,o),
(219,250,qs),
(219,595,ls),
(219,663,o),
(290,669,qs),
(313,671,l),
(313,700,l),
(20,700,l),
(20,671,l),
(43,669,ls),
(114,663,o),
(114,595,qs),
(114,230,ls),
(114,157,o),
(177,48,o),
(294,-11,o),
(372,-11,qs)
);
},
{
closed = 1;
nodes = (
(307,807,o),
(364,753,o),
(406,753,qs),
(448,753,o),
(505,807,o),
(505,845,qs),
(505,886,o),
(448,940,o),
(406,940,qs),
(364,940,o),
(307,886,o),
(307,845,qs)
);
},
{
closed = 1;
nodes = (
(347,871,o),
(378,904,o),
(406,904,qs),
(434,904,o),
(465,871,o),
(465,845,qs),
(465,821,o),
(433,788,o),
(406,788,qs),
(379,788,o),
(347,821,o),
(347,845,qs)
);
}
);
width = 763;
}
);
note = Uring;
unicode = 366;
},
{
glyphname = Utilde;
kernLeft = U;
kernRight = J;
layers = (
{
layerId = m01;
shapes = (
{
closed = 1;
nodes = (
(456,-11,o),
(581,61,o),
(649,194,o),
(649,283,qs),
(649,584,ls),
(649,622,o),
(684,663,o),
(720,668,qs),
(743,671,l),
(743,700,l),
(501,700,l),
(501,671,l),
(524,668,ls),
(596,659,o),
(596,584,qs),
(596,296,ls),
(596,183,o),
(490,51,o),
(399,51,qs),
(317,51,o),
(219,159,o),
(219,250,qs),
(219,595,ls),
(219,663,o),
(290,669,qs),
(313,671,l),
(313,700,l),
(20,700,l),
(20,671,l),
(43,669,ls),
(114,663,o),
(114,595,qs),
(114,230,ls),
(114,157,o),
(177,48,o),
(294,-11,o),
(372,-11,qs)
);
},
{
closed = 1;
nodes = (
(229,780,l),
(250,816,o),
(288,845,o),
(307,845,qs),
(323,845,o),
(360,829,o),
(389,813,qs),
(418,797,o),
(456,780,o),
(473,780,qs),
(510,780,o),
(564,848,o),
(587,924,q),
(583,924,l),
(562,889,o),
(524,860,o),
(505,860,qs),
(490,860,o),
(453,876,o),
(427,891,qs),
(398,908,o),
(357,925,o),
(339,925,qs),
(302,925,o),
(248,856,o),
(225,780,q)
);
}
);
width = 763;
}
);
note = Utilde;
unicode = 360;
},
{
glyphname = Wacute;
kernLeft = V;
kernRight = V;
layers = (
{
layerId = m01;
shapes = (
{
closed = 1;
nodes = (
(701,195,l),
(550,598,ls),
(544,615,o),
(544,627,qs),
(544,663,o),
(589,669,qs),
(606,671,l),
(606,700,l),
(357,700,l),
(357,673,l),
(390,666,o),
(428,631,o),
(442,597,qs),
(498,462,l),
(363,124,l),
(352,149,l),
(364,185,l),
(203,598,ls),
(197,615,o),
(197,627,qs),
(197,663,o),
(242,669,qs),
(259,671,l),
(259,700,l),
(10,700,l),
(10,673,l),
(43,665,o),
(82,631,o),
(95,597,qs),
(347,-36,l),
(349,-36,l),
(522,402,l),
(684,-36,l),
(686,-36,l),
(926,589,ls),
(938,622,o),
(982,665,o),
(1011,673,q),
(1011,700,l),
(806,700,l),
(806,671,l),
(823,669,ls),
(850,666,o),
(875,642,o),
(875,619,qs),
(875,599,o),
(864,568,qs),
(701,133,l),
(688,160,l)
);
},
{
closed = 1;
nodes = (
(533,901,ls),
(552,928,o),
(581,950,o),
(601,950,qs),
(623,950,o),
(649,924,o),
(649,906,qs),
(649,892,o),
(632,866,o),
(617,858,qs),
(444,765,l),
(440,765,l)
);
}
);
width = 1021;
}
);
note = Wacute;
unicode = 7810;
},
{
glyphname = Wdieresis;
kernLeft = V;
kernRight = V;
layers = (
{
layerId = m01;
shapes = (
{
closed = 1;
nodes = (
(701,195,l),
(550,598,ls),
(544,615,o),
(544,627,qs),
(544,663,o),
(589,669,qs),
(606,671,l),
(606,700,l),
(357,700,l),
(357,673,l),
(390,666,o),
(428,631,o),
(442,597,qs),
(498,462,l),
(363,124,l),
(352,149,l),
(364,185,l),
(203,598,ls),
(197,615,o),
(197,627,qs),
(197,663,o),
(242,669,qs),
(259,671,l),
(259,700,l),
(10,700,l),
(10,673,l),
(43,665,o),
(82,631,o),
(95,597,qs),
(347,-36,l),
(349,-36,l),
(522,402,l),
(684,-36,l),
(686,-36,l),
(926,589,ls),
(938,622,o),
(982,665,o),
(1011,673,q),
(1011,700,l),
(806,700,l),
(806,671,l),
(823,669,ls),
(850,666,o),
(875,642,o),
(875,619,qs),
(875,599,o),
(864,568,qs),
(701,133,l),
(688,160,l)
);
},
{
closed = 1;
nodes = (
(467,805,l),
(467,904,l),
(369,904,l),
(369,805,l)
);
},
{
closed = 1;
nodes = (
(661,805,l),
(661,904,l),
(563,904,l),
(563,805,l)
);
}
);
width = 1021;
}
);
note = Wdieresis;
unicode = 7812;
},
